  0
SECTION
  2
HEADER
  9
$ACADVER
  1
AC1015
  9
$ACADMAINTVER
 70
     6
  9
$DWGCODEPAGE
  3
ANSI_1252
  9
$INSBASE
 10
0.0
 20
0.0
 30
0.0
  9
$EXTMIN
 10
-1.5833333333
 20
-1.5753333333
 30
0.0
  9
$EXTMAX
 10
1.5833333333
 20
1.5913333333
 30
0.0
  9
$LIMMIN
 10
0.0
 20
0.0
  9
$LIMMAX
 10
12.0
 20
9.0
  9
$ORTHOMODE
 70
     0
  9
$REGENMODE
 70
     1
  9
$FILLMODE
 70
     1
  9
$QTEXTMODE
 70
     0
  9
$MIRRTEXT
 70
     1
  9
$LTSCALE
 40
1.0
  9
$ATTMODE
 70
     1
  9
$TEXTSIZE
 40
0.1377952756
  9
$TRACEWID
 40
0.05
  9
$TEXTSTYLE
  7
Standard
  9
$CLAYER
  8
0
  9
$CELTYPE
  6
ByLayer
  9
$CECOLOR
 62
   256
  9
$CELTSCALE
 40
1.0
  9
$DISPSILH
 70
     0
  9
$DIMSCALE
 40
1.0
  9
$DIMASZ
 40
0.13
  9
$DIMEXO
 40
0.0393700787
  9
$DIMDLI
 40
0.38
  9
$DIMRND
 40
0.0
  9
$DIMDLE
 40
0.0
  9
$DIMEXE
 40
0.0393700787
  9
$DIMTP
 40
0.0
  9
$DIMTM
 40
0.0
  9
$DIMTXT
 40
0.1377952756
  9
$DIMCEN
 40
0.09
  9
$DIMTSZ
 40
0.0
  9
$DIMTOL
 70
     0
  9
$DIMLIM
 70
     0
  9
$DIMTIH
 70
     1
  9
$DIMTOH
 70
     1
  9
$DIMSE1
 70
     0
  9
$DIMSE2
 70
     0
  9
$DIMTAD
 70
     1
  9
$DIMZIN
 70
     0
  9
$DIMBLK
  1

  9
$DIMASO
 70
     1
  9
$DIMSHO
 70
     1
  9
$DIMPOST
  1

  9
$DIMAPOST
  1

  9
$DIMALT
 70
     0
  9
$DIMALTD
 70
     2
  9
$DIMALTF
 40
25.4
  9
$DIMLFAC
 40
1.0
  9
$DIMTOFL
 70
     0
  9
$DIMTVP
 40
0.0
  9
$DIMTIX
 70
     0
  9
$DIMSOXD
 70
     0
  9
$DIMSAH
 70
     0
  9
$DIMBLK1
  1

  9
$DIMBLK2
  1

  9
$DIMSTYLE
  2
Standard
  9
$DIMCLRD
 70
     0
  9
$DIMCLRE
 70
     0
  9
$DIMCLRT
 70
     0
  9
$DIMTFAC
 40
1.0
  9
$DIMGAP
 40
0.06
  9
$DIMJUST
 70
     0
  9
$DIMSD1
 70
     0
  9
$DIMSD2
 70
     0
  9
$DIMTOLJ
 70
     1
  9
$DIMTZIN
 70
     0
  9
$DIMALTZ
 70
     0
  9
$DIMALTTZ
 70
     0
  9
$DIMUPT
 70
     0
  9
$DIMDEC
 70
     5
  9
$DIMTDEC
 70
     5
  9
$DIMALTU
 70
     2
  9
$DIMALTTD
 70
     2
  9
$DIMTXSTY
  7
Standard
  9
$DIMAUNIT
 70
     0
  9
$DIMADEC
 70
     2
  9
$DIMALTRND
 40
0.0
  9
$DIMAZIN
 70
     0
  9
$DIMDSEP
 70
    46
  9
$DIMATFIT
 70
     3
  9
$DIMFRAC
 70
     0
  9
$DIMLDRBLK
  1

  9
$DIMLUNIT
 70
     2
  9
$DIMLWD
 70
    -2
  9
$DIMLWE
 70
    -2
  9
$DIMTMOVE
 70
     0
  9
$LUNITS
 70
     2
  9
$LUPREC
 70
     5
  9
$SKETCHINC
 40
0.1
  9
$FILLETRAD
 40
0.5
  9
$AUNITS
 70
     0
  9
$AUPREC
 70
     2
  9
$MENU
  1
.
  9
$ELEVATION
 40
0.0
  9
$PELEVATION
 40
0.0
  9
$THICKNESS
 40
0.0
  9
$LIMCHECK
 70
     0
  9
$CHAMFERA
 40
0.0
  9
$CHAMFERB
 40
0.0
  9
$CHAMFERC
 40
0.0
  9
$CHAMFERD
 40
0.0
  9
$SKPOLY
 70
     0
  9
$TDCREATE
 40
2458241.490694213
  9
$TDUCREATE
 40
2458241.78236088
  9
$TDUPDATE
 40
2458241.490802558
  9
$TDUUPDATE
 40
2458241.782469225
  9
$TDINDWG
 40
0.0000000116
  9
$TDUSRTIMER
 40
0.0000000116
  9
$USRTIMER
 70
     1
  9
$ANGBASE
 50
0.0
  9
$ANGDIR
 70
     0
  9
$PDMODE
 70
     0
  9
$PDSIZE
 40
-1.0
  9
$PLINEWID
 40
0.0
  9
$SPLFRAME
 70
     0
  9
$SPLINETYPE
 70
     6
  9
$SPLINESEGS
 70
     8
  9
$HANDSEED
  5
287
  9
$SURFTAB1
 70
     6
  9
$SURFTAB2
 70
     6
  9
$SURFTYPE
 70
     6
  9
$SURFU
 70
     6
  9
$SURFV
 70
     6
  9
$UCSBASE
  2

  9
$UCSNAME
  2

  9
$UCSORG
 10
0.0
 20
0.0
 30
0.0
  9
$UCSXDIR
 10
1.0
 20
0.0
 30
0.0
  9
$UCSYDIR
 10
0.0
 20
1.0
 30
0.0
  9
$UCSORTHOREF
  2

  9
$UCSORTHOVIEW
 70
     0
  9
$UCSORGTOP
 10
0.0
 20
0.0
 30
0.0
  9
$UCSORGBOTTOM
 10
0.0
 20
0.0
 30
0.0
  9
$UCSORGLEFT
 10
0.0
 20
0.0
 30
0.0
  9
$UCSORGRIGHT
 10
0.0
 20
0.0
 30
0.0
  9
$UCSORGFRONT
 10
0.0
 20
0.0
 30
0.0
  9
$UCSORGBACK
 10
0.0
 20
0.0
 30
0.0
  9
$PUCSBASE
  2

  9
$PUCSNAME
  2

  9
$PUCSORG
 10
0.0
 20
0.0
 30
0.0
  9
$PUCSXDIR
 10
1.0
 20
0.0
 30
0.0
  9
$PUCSYDIR
 10
0.0
 20
1.0
 30
0.0
  9
$PUCSORTHOREF
  2

  9
$PUCSORTHOVIEW
 70
     0
  9
$PUCSORGTOP
 10
0.0
 20
0.0
 30
0.0
  9
$PUCSORGBOTTOM
 10
0.0
 20
0.0
 30
0.0
  9
$PUCSORGLEFT
 10
0.0
 20
0.0
 30
0.0
  9
$PUCSORGRIGHT
 10
0.0
 20
0.0
 30
0.0
  9
$PUCSORGFRONT
 10
0.0
 20
0.0
 30
0.0
  9
$PUCSORGBACK
 10
0.0
 20
0.0
 30
0.0
  9
$USERI1
 70
     0
  9
$USERI2
 70
     0
  9
$USERI3
 70
     0
  9
$USERI4
 70
     0
  9
$USERI5
 70
     0
  9
$USERR1
 40
0.0
  9
$USERR2
 40
0.0
  9
$USERR3
 40
0.0
  9
$USERR4
 40
0.0
  9
$USERR5
 40
0.0
  9
$WORLDVIEW
 70
     1
  9
$SHADEDGE
 70
     3
  9
$SHADEDIF
 70
    70
  9
$TILEMODE
 70
     1
  9
$MAXACTVP
 70
    64
  9
$PINSBASE
 10
0.0
 20
0.0
 30
0.0
  9
$PLIMCHECK
 70
     0
  9
$PEXTMIN
 10
1.0000000000E+20
 20
1.0000000000E+20
 30
1.0000000000E+20
  9
$PEXTMAX
 10
-1.0000000000E+20
 20
-1.0000000000E+20
 30
-1.0000000000E+20
  9
$PLIMMIN
 10
0.0
 20
0.0
  9
$PLIMMAX
 10
12.0
 20
9.0
  9
$UNITMODE
 70
     0
  9
$VISRETAIN
 70
     1
  9
$PLINEGEN
 70
     0
  9
$PSLTSCALE
 70
     1
  9
$TREEDEPTH
 70
  3020
  9
$CMLSTYLE
  2
Standard
  9
$CMLJUST
 70
     0
  9
$CMLSCALE
 40
1.0
  9
$PROXYGRAPHICS
 70
     1
  9
$MEASUREMENT
 70
     0
  9
$CELWEIGHT
370
    -1
  9
$ENDCAPS
280
     0
  9
$JOINSTYLE
280
     0
  9
$LWDISPLAY
290
     1
  9
$INSUNITS
 70
     1
  9
$HYPERLINKBASE
  1

  9
$STYLESHEET
  1

  9
$XEDIT
290
     1
  9
$CEPSNTYPE
380
     0
  9
$PSTYLEMODE
290
     1
  9
$FINGERPRINTGUID
  2
{4D9D3A8F-397B-43DA-8968-76F971E37366}
  9
$VERSIONGUID
  2
{FAEB1C32-E019-11D5-929B-00C0DF256EC4}
  9
$EXTNAMES
290
     1
  9
$PSVPSCALE
 40
0.0
  9
$OLESTARTUP
290
     0
  0
ENDSEC
  0
SECTION
  2
CLASSES
  0
CLASS
  1
ACDBDICTIONARYWDFLT
  2
AcDbDictionaryWithDefault
  3
ObjectDBX Classes
 90
        0
280
     0
281
     0
  0
CLASS
  1
VISUALSTYLE
  2
AcDbVisualStyle
  3
ObjectDBX Classes
 90
     4095
280
     0
281
     0
  0
CLASS
  1
MATERIAL
  2
AcDbMaterial
  3
ObjectDBX Classes
 90
     1153
280
     0
281
     0
  0
CLASS
  1
SCALE
  2
AcDbScale
  3
ObjectDBX Classes
 90
     1153
280
     0
281
     0
  0
CLASS
  1
TABLESTYLE
  2
AcDbTableStyle
  3
ObjectDBX Classes
 90
     4095
280
     0
281
     0
  0
CLASS
  1
MLEADERSTYLE
  2
AcDbMLeaderStyle
  3
ACDB_MLEADERSTYLE_CLASS
 90
     4095
280
     0
281
     0
  0
CLASS
  1
SUN
  2
AcDbSun
  3
SCENEOE
 90
     1153
280
     0
281
     0
  0
CLASS
  1
ACDBPLACEHOLDER
  2
AcDbPlaceHolder
  3
ObjectDBX Classes
 90
        0
280
     0
281
     0
  0
CLASS
  1
LAYOUT
  2
AcDbLayout
  3
ObjectDBX Classes
 90
        0
280
     0
281
     0
  0
ENDSEC
  0
SECTION
  2
TABLES
  0
TABLE
  2
VPORT
  5
8
330
0
100
AcDbSymbolTable
 70
     1
  0
VPORT
  5
29
330
8
100
AcDbSymbolTableRecord
100
AcDbViewportTableRecord
  2
*Active
 70
     0
 10
0.0
 20
0.0
 11
1.0
 21
1.0
 12
0.0
 22
0.008
 13
0.0
 23
0.0
 14
0.5
 24
0.5
 15
0.5
 25
0.5
 16
0.0
 26
0.0
 36
1.0
 17
0.0
 27
0.0
 37
0.0
 40
3.23
 41
1.0
 42
50.0
 43
0.0
 44
0.0
 50
0.0
 51
0.0
 71
     0
 72
   100
 73
     1
 74
     3
 75
     0
 76
     0
 77
     0
 78
     0
281
     0
 65
     1
110
0.0
120
0.0
130
0.0
111
1.0
121
0.0
131
0.0
112
0.0
122
1.0
132
0.0
 79
     0
146
0.0
  0
ENDTAB
  0
TABLE
  2
LTYPE
  5
5
330
0
100
AcDbSymbolTable
 70
     6
  0
LTYPE
  5
14
330
5
100
AcDbSymbolTableRecord
100
AcDbLinetypeTableRecord
  2
ByBlock
 70
     0
  3

 72
    65
 73
     0
 40
0.0
  0
LTYPE
  5
15
330
5
100
AcDbSymbolTableRecord
100
AcDbLinetypeTableRecord
  2
ByLayer
 70
     0
  3

 72
    65
 73
     0
 40
0.0
  0
LTYPE
  5
16
330
5
100
AcDbSymbolTableRecord
100
AcDbLinetypeTableRecord
  2
Continuous
 70
     0
  3
Solid line
 72
    65
 73
     0
 40
0.0
  0
LTYPE
  5
6E
330
5
100
AcDbSymbolTableRecord
100
AcDbLinetypeTableRecord
  2
HIDDEN
 70
     0
  3
Hidden __ __ __ __ __ __ __ __ __ __ __ __ __ __
 72
    65
 73
     2
 40
0.075
 49
0.05
 74
     0
 49
-0.025
 74
     0
  0
LTYPE
  5
6F
330
5
100
AcDbSymbolTableRecord
100
AcDbLinetypeTableRecord
  2
PHANTOM
 70
     0
  3
Phantom ______  __  __  ______  __  __  ______
 72
    65
 73
     6
 40
0.5
 49
0.25
 74
     0
 49
-0.05
 74
     0
 49
0.05
 74
     0
 49
-0.05
 74
     0
 49
0.05
 74
     0
 49
-0.05
 74
     0
  0
LTYPE
  5
70
330
5
100
AcDbSymbolTableRecord
100
AcDbLinetypeTableRecord
  2
CENTER
 70
     0
  3
Center ____ _ ____ _ ____ _ ____ _ ____ _ ____
 72
    65
 73
     4
 40
0.4
 49
0.25
 74
     0
 49
-0.05
 74
     0
 49
0.05
 74
     0
 49
-0.05
 74
     0
  0
LTYPE
  5
71
330
5
100
AcDbSymbolTableRecord
100
AcDbLinetypeTableRecord
  2
CENTERX2
 70
     0
  3
Center (2x) ________  __  ________  __  _____
 72
    65
 73
     4
 40
0.8
 49
0.5
 74
     0
 49
-0.1
 74
     0
 49
0.1
 74
     0
 49
-0.1
 74
     0
  0
LTYPE
  5
72
330
5
100
AcDbSymbolTableRecord
100
AcDbLinetypeTableRecord
  2
DOT2
 70
     0
  3
Dot (.5x) ........................................
 72
    65
 73
     2
 40
0.025
 49
0.0
 74
     0
 49
-0.025
 74
     0
  0
ENDTAB
  0
TABLE
  2
LAYER
  5
2
330
0
100
AcDbSymbolTable
 70
     1
  0
LAYER
  5
10
330
2
100
AcDbSymbolTableRecord
100
AcDbLayerTableRecord
  2
0
 70
     0
 62
     7
  6
Continuous
370
    -3
390
F
  0
ENDTAB
  0
TABLE
  2
STYLE
  5
3
330
0
100
AcDbSymbolTable
 70
     2
  0
STYLE
  5
11
330
3
100
AcDbSymbolTableRecord
100
AcDbTextStyleTableRecord
  2
Standard
 70
     0
 40
0.0
 41
1.0
 50
0.0
 71
     0
 42
0.1377952756
  3
txt
  4

  0
STYLE
  5
284
330
3
100
AcDbSymbolTableRecord
100
AcDbTextStyleTableRecord
  2
SLDTEXTSTYLE0
 70
     0
 40
0.0
 41
0.7
 50
0.0
 71
     0
 42
0.1377952756
  3
TXT
  4

  0
ENDTAB
  0
TABLE
  2
VIEW
  5
6
330
0
100
AcDbSymbolTable
 70
     0
  0
ENDTAB
  0
TABLE
  2
UCS
  5
7
330
0
100
AcDbSymbolTable
 70
     0
  0
ENDTAB
  0
TABLE
  2
APPID
  5
9
330
0
100
AcDbSymbolTable
 70
     1
  0
APPID
  5
12
330
9
100
AcDbSymbolTableRecord
100
AcDbRegAppTableRecord
  2
ACAD
 70
     0
  0
ENDTAB
  0
TABLE
  2
DIMSTYLE
  5
A
330
0
100
AcDbSymbolTable
 70
     1
100
AcDbDimStyleTable
  0
DIMSTYLE
105
27
330
A
100
AcDbSymbolTableRecord
100
AcDbDimStyleTableRecord
  2
Standard
 70
     0
178
     0
340
11
  0
ENDTAB
  0
TABLE
  2
BLOCK_RECORD
  5
1
330
0
100
AcDbSymbolTable
 70
     1
  0
BLOCK_RECORD
  5
1F
330
1
100
AcDbSymbolTableRecord
100
AcDbBlockTableRecord
  2
*Model_Space
340
22
  0
BLOCK_RECORD
  5
1B
330
1
100
AcDbSymbolTableRecord
100
AcDbBlockTableRecord
  2
*Paper_Space
340
1E
  0
BLOCK_RECORD
  5
23
330
1
100
AcDbSymbolTableRecord
100
AcDbBlockTableRecord
  2
*Paper_Space0
340
26
  0
ENDTAB
  0
ENDSEC
  0
SECTION
  2
BLOCKS
  0
BLOCK
  5
20
330
1F
100
AcDbEntity
  8
0
100
AcDbBlockBegin
  2
*Model_Space
 70
     0
 10
0.0
 20
0.0
 30
0.0
  3
*Model_Space
  1

  0
ENDBLK
  5
21
330
1F
100
AcDbEntity
  8
0
100
AcDbBlockEnd
  0
BLOCK
  5
1C
330
1B
100
AcDbEntity
 67
     1
  8
0
100
AcDbBlockBegin
  2
*Paper_Space
 70
     0
 10
0.0
 20
0.0
 30
0.0
  3
*Paper_Space
  1

  0
ENDBLK
  5
1D
330
1B
100
AcDbEntity
 67
     1
  8
0
100
AcDbBlockEnd
  0
BLOCK
  5
24
330
23
100
AcDbEntity
  8
0
100
AcDbBlockBegin
  2
*Paper_Space0
 70
     0
 10
0.0
 20
0.0
 30
0.0
  3
*Paper_Space0
  1

  0
ENDBLK
  5
25
330
23
100
AcDbEntity
  8
0
100
AcDbBlockEnd
  0
ENDSEC
  0
SECTION
  2
ENTITIES
  0
SPLINE
  5
73
330
1F
100
AcDbEntity
  8
0
  6
Continuous
 62
     7
370
    25
100
AcDbSpline
210
0.0
220
0.0
230
1.0
 70
     8
 71
     3
 72
    14
 73
    10
 74
     0
 42
0.000000001
 43
0.00000001
 40
0.0
 40
0.0
 40
0.0
 40
0.0
 40
0.5000000000000036
 40
0.5000000000000036
 40
0.7500000000000053
 40
0.7500000000000053
 40
0.8750000000000027
 40
0.8750000000000027
 40
1.0
 40
1.0
 40
1.0
 40
1.0
 10
-0.8198248236306462
 20
1.36255959743505
 30
0.0
 10
-0.8165370051506626
 20
1.344073167994556
 30
0.0
 10
-0.8123926637905965
 20
1.325958071789455
 30
0.0
 10
-0.8045141932087828
 20
1.299624956355734
 30
0.0
 10
-0.8016103104978641
 20
1.290987681042051
 30
0.0
 10
-0.796688897942407
 20
1.278341827044101
 30
0.0
 10
-0.7949703829104192
 20
1.27416917885043
 30
0.0
 10
-0.7912139404866457
 20
1.266006213767191
 30
0.0
 10
-0.789374121110735
 20
1.26190442327381
 30
0.0
 10
-0.7869922321891163
 20
1.258118964282251
 30
0.0
  0
SPLINE
  5
75
330
1F
100
AcDbEntity
  8
0
  6
Continuous
 62
     7
370
    25
100
AcDbSpline
210
0.0
220
0.0
230
1.0
 70
     8
 71
     3
 72
    14
 73
    10
 74
     0
 42
0.000000001
 43
0.00000001
 40
0.0
 40
0.0
 40
0.0
 40
0.0
 40
0.1250000000000003
 40
0.1250000000000003
 40
0.2500000000000007
 40
0.2500000000000007
 40
0.5000000000000013
 40
0.5000000000000013
 40
1.0
 40
1.0
 40
1.0
 40
1.0
 10
-0.6703234985461802
 20
1.3243664405024
 30
0.0
 10
-0.6723538985975761
 20
1.3283514838199
 30
0.0
 10
-0.6749336939775422
 20
1.332033097105617
 30
0.0
 10
-0.6800190532133626
 20
1.339441469401617
 30
0.0
 10
-0.682721851577042
 20
1.343055216469207
 30
0.0
 10
-0.6910600536185112
 20
1.353760930438584
 30
0.0
 10
-0.6969895610886727
 20
1.360680179010803
 30
0.0
 10
-0.7155667685795379
 20
1.380938279341237
 30
0.0
 10
-0.7289999056805686
 20
1.393778960921374
 30
0.0
 10
-0.7431907887531242
 20
1.40607435279993
 30
0.0
  0
SPLINE
  5
7B
330
1F
100
AcDbEntity
  8
0
  6
Continuous
 62
     7
370
    25
100
AcDbSpline
210
0.0
220
0.0
230
1.0
 70
     8
 71
     3
 72
    14
 73
    10
 74
     0
 42
0.000000001
 43
0.00000001
 40
0.0
 40
0.0
 40
0.0
 40
0.0
 40
0.499999999999996
 40
0.499999999999996
 40
0.7499999999999978
 40
0.7499999999999978
 40
0.8749999999999989
 40
0.8749999999999989
 40
1.0
 40
1.0
 40
1.0
 40
1.0
 10
-0.5721530367874782
 20
1.48434188010071
 30
0.0
 10
-0.5721253024418981
 20
1.465565377374381
 30
0.0
 10
-0.5711895763835543
 20
1.447005832860486
 30
0.0
 10
-0.5680034949800715
 20
1.419704694561066
 30
0.0
 10
-0.5666435758907522
 20
1.410694384926369
 30
0.0
 10
-0.5639928601521459
 20
1.397386055543878
 30
0.0
 10
-0.5630250259798513
 20
1.392978382248585
 30
0.0
 10
-0.5607431363682427
 20
1.384287131565639
 30
0.0
 10
-0.559643536427044
 20
1.379928175204779
 30
0.0
 10
-0.5579551718057421
 20
1.37578661517042
 30
0.0
  0
SPLINE
  5
7D
330
1F
100
AcDbEntity
  8
0
  6
Continuous
 62
     7
370
    25
100
AcDbSpline
210
0.0
220
0.0
230
1.0
 70
     8
 71
     3
 72
    14
 73
    10
 74
     0
 42
0.000000001
 43
0.00000001
 40
0.0
 40
0.0
 40
0.0
 40
0.0
 40
0.1250000000000035
 40
0.1250000000000035
 40
0.250000000000007
 40
0.250000000000007
 40
0.5000000000000064
 40
0.5000000000000064
 40
1.0
 40
1.0
 40
1.0
 40
1.0
 10
-0.4315551448594021
 20
1.42076833038171
 30
0.0
 10
-0.4328627030616888
 20
1.425045407205828
 30
0.0
 10
-0.4347640001151588
 20
1.429119065279584
 30
0.0
 10
-0.4384856509687718
 20
1.43729795111797
 30
0.0
 10
-0.4405198671593141
 20
1.441326133258003
 30
0.0
 10
-0.4468723654545307
 20
1.453317116966111
 30
0.0
 10
-0.4515102754772978
 20
1.461160894771708
 30
0.0
 10
-0.4662874712382458
 20
1.484337127265329
 30
0.0
 10
-0.4772867678461599
 20
1.499315369816962
 30
0.0
 10
-0.4891269871247542
 20
1.51388818805073
 30
0.0
  0
SPLINE
  5
83
330
1F
100
AcDbEntity
  8
0
  6
Continuous
 62
     7
370
    25
100
AcDbSpline
210
0.0
220
0.0
230
1.0
 70
     8
 71
     3
 72
    14
 73
    10
 74
     0
 42
0.000000001
 43
0.00000001
 40
0.0
 40
0.0
 40
0.0
 40
0.0
 40
0.4999999999999962
 40
0.4999999999999962
 40
0.7499999999999981
 40
0.7499999999999981
 40
0.874999999999999
 40
0.874999999999999
 40
1.0
 40
1.0
 40
1.0
 40
1.0
 10
-0.3070966694449291
 20
1.56126626180455
 30
0.0
 10
-0.3103298619277838
 20
1.542770200326149
 30
0.0
 10
-0.3126311827339696
 20
1.524330129872191
 30
0.0
 10
-0.3142342979800292
 20
1.496890499979188
 30
0.0
 10
-0.3144596629656801
 20
1.487780929722251
 30
0.0
 10
-0.3141601847003216
 20
1.474214491809258
 30
0.0
 10
-0.3139724385392979
 20
1.469705718334993
 30
0.0
 10
-0.3132344358010054
 20
1.460750261306359
 30
0.0
 10
-0.3129084660823132
 20
1.456266583761149
 30
0.0
 10
-0.3119649258659902
 20
1.45189476189006
 30
0.0
  0
SPLINE
  5
85
330
1F
100
AcDbEntity
  8
0
  6
Continuous
 62
     7
370
    25
100
AcDbSpline
210
0.0
220
0.0
230
1.0
 70
     8
 71
     3
 72
    14
 73
    10
 74
     0
 42
0.000000001
 43
0.00000001
 40
0.0
 40
0.0
 40
0.0
 40
0.0
 40
0.125
 40
0.125
 40
0.25
 40
0.25
 40
0.5
 40
0.5
 40
1.0
 40
1.0
 40
1.0
 40
1.0
 10
-0.17967420647351
 20
1.47424396943764
 30
0.0
 10
-0.1802191933323896
 20
1.478683122953346
 30
0.0
 10
-0.1813842221104784
 20
1.483025049775983
 30
0.0
 10
-0.1836290841039374
 20
1.491725937849265
 30
0.0
 10
-0.1849329094917577
 20
1.496046160785773
 30
0.0
 10
-0.1891066865945438
 20
1.508958074260392
 30
0.0
 10
-0.1923120786207647
 20
1.517488052079868
 30
0.0
 10
-0.2028402650362298
 20
1.542878218640105
 30
0.0
 10
-0.211071513089529
 20
1.559538915843287
 30
0.0
 10
-0.2202013095027961
 20
1.57594637272379
 30
0.0
  0
SPLINE
  5
8B
330
1F
100
AcDbEntity
  8
0
  6
Continuous
 62
     7
370
    25
100
AcDbSpline
210
0.0
220
0.0
230
1.0
 70
     8
 71
     3
 72
    14
 73
    10
 74
     0
 42
0.000000001
 43
0.00000001
 40
0.0
 40
0.0
 40
0.0
 40
0.0
 40
0.5
 40
0.5
 40
0.75
 40
0.75
 40
0.875
 40
0.875
 40
1.0
 40
1.0
 40
1.0
 40
1.0
 10
-0.0327093251997095
 20
1.5909954341341
 30
0.0
 10
-0.0391052055934203
 20
1.573341807373521
 30
0.0
 10
-0.0445736487960253
 20
1.555581503187727
 30
0.0
 10
-0.0509172508460897
 20
1.528837120970415
 30
0.0
 10
-0.052721052305663
 20
1.519905079773809
 30
0.0
 10
-0.0547819110091021
 20
1.506492742681339
 30
0.0
 10
-0.0553799574314474
 20
1.502019865828564
 30
0.0
 10
-0.0562082654062286
 20
1.493072309484393
 30
0.0
 10
-0.0566658303349875
 20
1.488600145028118
 30
0.0
 10
-0.0564957835156703
 20
1.48413089691568
 30
0.0
  0
SPLINE
  5
8D
330
1F
100
AcDbEntity
  8
0
  6
Continuous
 62
     7
370
    25
100
AcDbSpline
210
0.0
220
0.0
230
1.0
 70
     8
 71
     3
 72
    14
 73
    10
 74
     0
 42
0.000000001
 43
0.00000001
 40
0.0
 40
0.0
 40
0.0
 40
0.0
 40
0.125
 40
0.125
 40
0.25
 40
0.25
 40
0.5
 40
0.5
 40
1.0
 40
1.0
 40
1.0
 40
1.0
 10
0.0776660417565438
 20
1.48316852743746
 30
0.0
 10
0.0779001853910043
 20
1.487634876211437
 30
0.0
 10
0.0775068236981861
 20
1.492113144533621
 30
0.0
 10
0.0768069595605922
 20
1.501071662760568
 30
0.0
 10
0.0762731410501369
 20
1.505552658705791
 30
0.0
 10
0.0744049032450193
 20
1.518993179989647
 30
0.0
 10
0.0727294234300502
 20
1.527950178763374
 30
0.0
 10
0.0667701399767889
 20
1.554782812027372
 30
0.0
 10
0.0615570427849263
 20
1.572619737028482
 30
0.0
 10
0.0554150734811654
 20
1.59036330028079
 30
0.0
  0
SPLINE
  5
93
330
1F
100
AcDbEntity
  8
0
  6
Continuous
 62
     7
370
    25
100
AcDbSpline
210
0.0
220
0.0
230
1.0
 70
     8
 71
     3
 72
    14
 73
    10
 74
     0
 42
0.000000001
 43
0.00000001
 40
0.0
 40
0.0
 40
0.0
 40
0.0
 40
0.5000000000000039
 40
0.5000000000000039
 40
0.7500000000000056
 40
0.7500000000000056
 40
0.8750000000000028
 40
0.8750000000000028
 40
1.0
 40
1.0
 40
1.0
 40
1.0
 10
0.242671875339987
 20
1.57262609123183
 30
0.0
 10
0.2333076426246866
 20
1.556351295704181
 30
0.0
 10
0.2248382329052288
 20
1.539810395642955
 30
0.0
 10
0.2139468911894376
 20
1.514573875621666
 30
0.0
 10
0.210619460850521
 20
1.506090759037376
 30
0.0
 10
0.2062608833271448
 20
1.493240049840939
 30
0.0
 10
0.2048952156593468
 20
1.488938975709456
 30
0.0
 10
0.2025257646901625
 20
1.480271187021599
 30
0.0
 10
0.2012985679927603
 20
1.475946420108431
 30
0.0
 10
0.200689954628528
 20
1.47151554159679
 30
0.0
  0
SPLINE
  5
95
330
1F
100
AcDbEntity
  8
0
  6
Continuous
 62
     7
370
    25
100
AcDbSpline
210
0.0
220
0.0
230
1.0
 70
     8
 71
     3
 72
    14
 73
    10
 74
     0
 42
0.000000001
 43
0.00000001
 40
0.0
 40
0.0
 40
0.0
 40
0.0
 40
0.1249999999999981
 40
0.1249999999999981
 40
0.2499999999999962
 40
0.2499999999999962
 40
0.4999999999999999
 40
0.4999999999999999
 40
1.0
 40
1.0
 40
1.0
 40
1.0
 10
0.332646446608738
 20
1.44727083620239
 30
0.0
 10
0.3336526064007009
 20
1.451628672487201
 30
0.0
 10
0.3340428638891267
 20
1.456107212392119
 30
0.0
 10
0.3349092626250701
 20
1.465051160729576
 30
0.0
 10
0.3351616707972931
 20
1.469556776889215
 30
0.0
 10
0.3356557377501841
 20
1.483117522544386
 30
0.0
 10
0.33556107875281
 20
1.492229388397079
 30
0.0
 10
0.334351768073927
 20
1.519689192381031
 30
0.0
 10
0.3323152190637209
 20
1.538160379239302
 30
0.0
 10
0.3293476974987821
 20
1.55670091967322
 30
0.0
  0
SPLINE
  5
9B
330
1F
100
AcDbEntity
  8
0
  6
Continuous
 62
     7
370
    25
100
AcDbSpline
210
0.0
220
0.0
230
1.0
 70
     8
 71
     3
 72
    14
 73
    10
 74
     0
 42
0.000000001
 43
0.00000001
 40
0.0
 40
0.0
 40
0.0
 40
0.0
 40
0.4999999999999936
 40
0.4999999999999936
 40
0.7499999999999934
 40
0.7499999999999934
 40
0.8749999999999967
 40
0.8749999999999967
 40
1.0
 40
1.0
 40
1.0
 40
1.0
 10
0.5106796137453732
 20
1.50671637628649
 30
0.0
 10
0.4986315561809301
 20
1.492314913418153
 30
0.0
 10
0.4874185186732977
 20
1.47749600436002
 30
0.0
 10
0.472310365198524
 20
1.45453414542532
 30
0.0
 10
0.4675604082673542
 20
1.446757708658056
 30
0.0
 10
0.4610365450965402
 20
1.434859089653868
 30
0.0
 10
0.4589447513043159
 20
1.430860504204732
 30
0.0
 10
0.4551061519094249
 20
1.422735849546284
 30
0.0
 10
0.4531466111940533
 20
1.418689886030447
 30
0.0
 10
0.451777830055356
 20
1.41443200712107
 30
0.0
  0
SPLINE
  5
9D
330
1F
100
AcDbEntity
  8
0
  6
Continuous
 62
     7
370
    25
100
AcDbSpline
210
0.0
220
0.0
230
1.0
 70
     8
 71
     3
 72
    14
 73
    10
 74
     0
 42
0.000000001
 43
0.00000001
 40
0.0
 40
0.0
 40
0.0
 40
0.0
 40
0.1250000000000009
 40
0.1250000000000009
 40
0.2500000000000018
 40
0.2500000000000018
 40
0.5000000000000036
 40
0.5000000000000036
 40
1.0
 40
1.0
 40
1.0
 40
1.0
 10
0.577519557507952
 20
1.36764162891549
 30
0.0
 10
0.5792671618012664
 20
1.371758542060681
 30
0.0
 10
0.5804291806946413
 20
1.37610127537965
 30
0.0
 10
0.5828355172169523
 20
1.384758896483318
 30
0.0
 10
0.5838664827772646
 20
1.38915223199029
 30
0.0
 10
0.5867078425138061
 20
1.402421165622093
 30
0.0
 10
0.58819688049976
 20
1.411411039120622
 30
0.0
 10
0.5917742868883129
 20
1.438663661575877
 30
0.0
 10
0.5929761655709626
 20
1.457207872625854
 30
0.0
 10
0.5932732583858753
 20
1.47598204530186
 30
0.0
  0
SPLINE
  5
A3
330
1F
100
AcDbEntity
  8
0
  6
Continuous
 62
     7
370
    25
100
AcDbSpline
210
0.0
220
0.0
230
1.0
 70
     8
 71
     3
 72
    14
 73
    10
 74
     0
 42
0.000000001
 43
0.00000001
 40
0.0
 40
0.0
 40
0.0
 40
0.0
 40
0.5000000000000016
 40
0.5000000000000016
 40
0.7500000000000038
 40
0.7500000000000038
 40
0.8750000000000019
 40
0.8750000000000019
 40
1.0
 40
1.0
 40
1.0
 40
1.0
 10
0.7631706105034574
 20
1.39526892263476
 30
0.0
 10
0.7488048022225037
 20
1.383178373587818
 30
0.0
 10
0.735188839397143
 20
1.370531720585531
 30
0.0
 10
0.7163229277616318
 20
1.350542207201797
 30
0.0
 10
0.7102947692759627
 20
1.343708733347705
 30
0.0
 10
0.7018038447389258
 20
1.333123738053203
 30
0.0
 10
0.6990494829181488
 20
1.329549136281865
 30
0.0
 10
0.693858368997746
 20
1.322214479173439
 30
0.0
 10
0.6912260239174686
 20
1.318570253608879
 30
0.0
 10
0.6891386647265642
 20
1.31461474779792
 30
0.0
  0
SPLINE
  5
A5
330
1F
100
AcDbEntity
  8
0
  6
Continuous
 62
     7
370
    25
100
AcDbSpline
210
0.0
220
0.0
230
1.0
 70
     8
 71
     3
 72
    14
 73
    10
 74
     0
 42
0.000000001
 43
0.00000001
 40
0.0
 40
0.0
 40
0.0
 40
0.0
 40
0.125
 40
0.125
 40
0.25
 40
0.25
 40
0.5
 40
0.5
 40
1.0
 40
1.0
 40
1.0
 40
1.0
 10
0.8048450288912822
 20
1.24670039874585
 30
0.0
 10
0.8072809776138155
 20
1.250451298428979
 30
0.0
 10
0.809179450556084
 20
1.254526273407438
 30
0.0
 10
0.8130526095471997
 20
1.262634509841021
 30
0.0
 10
0.8148308071287431
 20
1.266782075419072
 30
0.0
 10
0.819933126371142
 20
1.279356027193557
 30
0.0
 10
0.8229606176747091
 20
1.287950755580756
 30
0.0
 10
0.8312160434478292
 20
1.314168139364436
 30
0.0
 10
0.8356198313477945
 20
1.332221918136419
 30
0.0
 10
0.839172511527666
 20
1.35065927931877
 30
0.0
  0
SPLINE
  5
AB
330
1F
100
AcDbEntity
  8
0
  6
Continuous
 62
     7
370
    25
100
AcDbSpline
210
0.0
220
0.0
230
1.0
 70
     8
 71
     3
 72
    14
 73
    10
 74
     0
 42
0.000000001
 43
0.00000001
 40
0.0
 40
0.0
 40
0.0
 40
0.0
 40
0.5000000000000004
 40
0.5000000000000004
 40
0.7500000000000002
 40
0.7500000000000002
 40
0.8750000000000001
 40
0.8750000000000001
 40
1.0
 40
1.0
 40
1.0
 40
1.0
 10
0.9924730544443571
 20
1.24167000476072
 30
0.0
 10
0.9762259932619812
 20
1.232257734750202
 30
0.0
 10
0.960620819259422
 20
1.222167599955327
 30
0.0
 10
0.938570380641586
 20
1.2057578033716
 30
0.0
 10
0.9314471831466296
 20
1.200074924075797
 30
0.0
 10
0.9212471896887937
 20
1.191125172216763
 30
0.0
 10
0.9179139497296221
 20
1.18808316658924
 30
0.0
 10
0.9115280506533444
 20
1.181761366875481
 30
0.0
 10
0.9083028836813831
 20
1.178629607211921
 30
0.0
 10
0.9055603697910458
 20
1.1750966605419
 30
0.0
  0
SPLINE
  5
AD
330
1F
100
AcDbEntity
  8
0
  6
Continuous
 62
     7
370
    25
100
AcDbSpline
210
0.0
220
0.0
230
1.0
 70
     8
 71
     3
 72
    14
 73
    10
 74
     0
 42
0.000000001
 43
0.00000001
 40
0.0
 40
0.0
 40
0.0
 40
0.0
 40
0.1250000000000016
 40
0.1250000000000016
 40
0.2500000000000032
 40
0.2500000000000032
 40
0.5000000000000032
 40
0.5000000000000032
 40
1.0
 40
1.0
 40
1.0
 40
1.0
 10
1.00771569134299
 20
1.08812188377297
 30
0.0
 10
1.010765969425383
 20
1.091392800805079
 30
0.0
 10
1.013343212276942
 20
1.095076201390466
 30
0.0
 10
1.018565509760823
 20
1.102388688492892
 30
0.0
 10
1.021036909729904
 20
1.106164462460714
 30
0.0
 10
1.02824515708987
 20
1.117661379215925
 30
0.0
 10
1.032719112919778
 20
1.125599816018907
 30
0.0
 10
1.045401721142787
 20
1.149985359191386
 30
0.0
 10
1.052873611392988
 20
1.167000150754177
 30
0.0
 10
1.05957393254847
 20
1.18454049055194
 30
0.0
  0
SPLINE
  5
B3
330
1F
100
AcDbEntity
  8
0
  6
Continuous
 62
     7
370
    25
100
AcDbSpline
210
0.0
220
0.0
230
1.0
 70
     8
 71
     3
 72
    14
 73
    10
 74
     0
 42
0.000000001
 43
0.00000001
 40
0.0
 40
0.0
 40
0.0
 40
0.0
 40
0.5
 40
0.5
 40
0.75
 40
0.75
 40
0.875
 40
0.875
 40
1.0
 40
1.0
 40
1.0
 40
1.0
 10
1.19161970684156
 20
1.05058664805917
 30
0.0
 10
1.173985051490298
 20
1.04413864414602
 30
0.0
 10
1.156864821626078
 20
1.036911611198902
 30
0.0
 10
1.132299847445283
 20
1.024580134780661
 30
0.0
 10
1.124298045692367
 20
1.020220521454895
 30
0.0
 10
1.112698904953557
 20
1.013177946712716
 30
0.0
 10
1.108888065665427
 20
1.010760967030683
 30
0.0
 10
1.101501413745296
 20
1.005644109396928
 30
0.0
 10
1.097781419948094
 20
1.003119972566978
 30
0.0
 10
1.09446708125508
 20
1.00011693183471
 30
0.0
  0
SPLINE
  5
B5
330
1F
100
AcDbEntity
  8
0
  6
Continuous
 62
     7
370
    25
100
AcDbSpline
210
0.0
220
0.0
230
1.0
 70
     8
 71
     3
 72
    14
 73
    10
 74
     0
 42
0.000000001
 43
0.00000001
 40
0.0
 40
0.0
 40
0.0
 40
0.0
 40
0.125000000000002
 40
0.125000000000002
 40
0.250000000000004
 40
0.250000000000004
 40
0.5000000000000027
 40
0.5000000000000027
 40
1.0
 40
1.0
 40
1.0
 40
1.0
 10
1.17996742244198
 20
0.8967244119296913
 30
0.0
 10
1.183539348728377
 20
0.8994159611520547
 30
0.0
 10
1.186717053269175
 20
0.9025958690813484
 30
0.0
 10
1.193129812379379
 20
0.9088904206323087
 30
0.0
 10
1.196219322498524
 20
0.9121796780085268
 30
0.0
 10
1.205314479027568
 20
0.9222502317465573
 30
0.0
 10
1.211098960499857
 20
0.9292911715801006
 30
0.0
 10
1.227823396539638
 20
0.9511039317518084
 30
0.0
 10
1.238136359535988
 20
0.9665627502725573
 30
0.0
 10
1.24778073579907
 20
0.982673114337916
 30
0.0
  0
SPLINE
  5
BB
330
1F
100
AcDbEntity
  8
0
  6
Continuous
 62
     7
370
    25
100
AcDbSpline
210
0.0
220
0.0
230
1.0
 70
     8
 71
     3
 72
    14
 73
    10
 74
     0
 42
0.000000001
 43
0.00000001
 40
0.0
 40
0.0
 40
0.0
 40
0.0
 40
0.5000000000000036
 40
0.5000000000000036
 40
0.7500000000000053
 40
0.7500000000000053
 40
0.8750000000000027
 40
0.8750000000000027
 40
1.0
 40
1.0
 40
1.0
 40
1.0
 10
1.35455959743506
 20
0.8278248236306452
 30
0.0
 10
1.336073167993991
 20
0.8245370051507175
 30
0.0
 10
1.317958071789455
 20
0.8203926637905964
 30
0.0
 10
1.291624956355734
 20
0.8125141932087826
 30
0.0
 10
1.282987681042051
 20
0.8096103104978642
 30
0.0
 10
1.270341827044101
 20
0.8046888979424074
 30
0.0
 10
1.266169178850439
 20
0.8029703829104162
 30
0.0
 10
1.2580062137672
 20
0.7992139404866474
 30
0.0
 10
1.253904423273957
 20
0.797374121110733
 30
0.0
 10
1.250118964282251
 20
0.7949922321891163
 30
0.0
  0
SPLINE
  5
BD
330
1F
100
AcDbEntity
  8
0
  6
Continuous
 62
     7
370
    25
100
AcDbSpline
210
0.0
220
0.0
230
1.0
 70
     8
 71
     3
 72
    14
 73
    10
 74
     0
 42
0.000000001
 43
0.00000001
 40
0.0
 40
0.0
 40
0.0
 40
0.0
 40
0.1250000000000003
 40
0.1250000000000003
 40
0.2500000000000006
 40
0.2500000000000006
 40
0.5000000000000012
 40
0.5000000000000012
 40
1.0
 40
1.0
 40
1.0
 40
1.0
 10
1.3163664405024
 20
0.6783234985461802
 30
0.0
 10
1.320351483819899
 20
0.680353898597562
 30
0.0
 10
1.324033097105617
 20
0.682933693977545
 30
0.0
 10
1.331441469401617
 20
0.6880190532133599
 30
0.0
 10
1.335055216469207
 20
0.6907218515770422
 30
0.0
 10
1.345760930438585
 20
0.6990600536185112
 30
0.0
 10
1.352680179010816
 20
0.7049895610886766
 30
0.0
 10
1.372938279341227
 20
0.7235667685795302
 30
0.0
 10
1.385778960921374
 20
0.7369999056805128
 30
0.0
 10
1.39807435279993
 20
0.7511907887531242
 30
0.0
  0
SPLINE
  5
C3
330
1F
100
AcDbEntity
  8
0
  6
Continuous
 62
     7
370
    25
100
AcDbSpline
210
0.0
220
0.0
230
1.0
 70
     8
 71
     3
 72
    14
 73
    10
 74
     0
 42
0.000000001
 43
0.00000001
 40
0.0
 40
0.0
 40
0.0
 40
0.0
 40
0.4999999999999998
 40
0.4999999999999998
 40
0.7499999999999998
 40
0.7499999999999998
 40
0.8749999999999999
 40
0.8749999999999999
 40
1.0
 40
1.0
 40
1.0
 40
1.0
 10
1.47634188010071
 20
0.5801530367874782
 30
0.0
 10
1.457565377374382
 20
0.5801253024418388
 30
0.0
 10
1.439005832860525
 20
0.5791895763835543
 30
0.0
 10
1.411704694561057
 20
0.5760034949800716
 30
0.0
 10
1.402694384926342
 20
0.5746435758907559
 30
0.0
 10
1.389386055543899
 20
0.5719928601521437
 30
0.0
 10
1.384978382248578
 20
0.571025025979852
 30
0.0
 10
1.376287131565653
 20
0.5687431363682405
 30
0.0
 10
1.371928175204779
 20
0.5676435364270441
 30
0.0
 10
1.36778661517042
 20
0.5659551718057421
 30
0.0
  0
SPLINE
  5
C5
330
1F
100
AcDbEntity
  8
0
  6
Continuous
 62
     7
370
    25
100
AcDbSpline
210
0.0
220
0.0
230
1.0
 70
     8
 71
     3
 72
    14
 73
    10
 74
     0
 42
0.000000001
 43
0.00000001
 40
0.0
 40
0.0
 40
0.0
 40
0.0
 40
0.1250000000000031
 40
0.1250000000000031
 40
0.2500000000000062
 40
0.2500000000000062
 40
0.5000000000000066
 40
0.5000000000000066
 40
1.0
 40
1.0
 40
1.0
 40
1.0
 10
1.41276833038171
 20
0.4395551448594011
 30
0.0
 10
1.417045407205827
 20
0.4408627030617026
 30
0.0
 10
1.421119065279603
 20
0.4427640001151612
 30
0.0
 10
1.429297951117958
 20
0.446485650968769
 30
0.0
 10
1.433326133258024
 20
0.4485198671593115
 30
0.0
 10
1.445317116966085
 20
0.454872365454534
 30
0.0
 10
1.453160894771708
 20
0.4595102754772948
 30
0.0
 10
1.476337127265328
 20
0.4742874712382487
 30
0.0
 10
1.491315369817551
 20
0.4852867678462186
 30
0.0
 10
1.50588818805073
 20
0.4971269871247532
 30
0.0
  0
SPLINE
  5
CB
330
1F
100
AcDbEntity
  8
0
  6
Continuous
 62
     7
370
    25
100
AcDbSpline
210
0.0
220
0.0
230
1.0
 70
     8
 71
     3
 72
    14
 73
    10
 74
     0
 42
0.000000001
 43
0.00000001
 40
0.0
 40
0.0
 40
0.0
 40
0.0
 40
0.4999999999999962
 40
0.4999999999999962
 40
0.7499999999999981
 40
0.7499999999999981
 40
0.874999999999999
 40
0.874999999999999
 40
1.0
 40
1.0
 40
1.0
 40
1.0
 10
1.55326626180455
 20
0.3150966694449291
 30
0.0
 10
1.534770200326723
 20
0.3183298619277818
 30
0.0
 10
1.51633012987219
 20
0.3206311827339696
 30
0.0
 10
1.488890499979187
 20
0.3222342979800292
 30
0.0
 10
1.479780929722251
 20
0.3224596629656802
 30
0.0
 10
1.466214491809259
 20
0.3221601847003216
 30
0.0
 10
1.461705718334981
 20
0.3219724385392981
 30
0.0
 10
1.452750261306378
 20
0.3212344358010056
 30
0.0
 10
1.448266583761011
 20
0.3209084660823142
 30
0.0
 10
1.44389476189007
 20
0.3199649258659901
 30
0.0
  0
SPLINE
  5
CD
330
1F
100
AcDbEntity
  8
0
  6
Continuous
 62
     7
370
    25
100
AcDbSpline
210
0.0
220
0.0
230
1.0
 70
     8
 71
     3
 72
    14
 73
    10
 74
     0
 42
0.000000001
 43
0.00000001
 40
0.0
 40
0.0
 40
0.0
 40
0.0
 40
0.1249999999999991
 40
0.1249999999999991
 40
0.2499999999999983
 40
0.2499999999999983
 40
0.4999999999999966
 40
0.4999999999999966
 40
1.0
 40
1.0
 40
1.0
 40
1.0
 10
1.46624396943764
 20
0.18767420647351
 30
0.0
 10
1.470683122953347
 20
0.1882191933323892
 30
0.0
 10
1.475025049775983
 20
0.1893842221104784
 30
0.0
 10
1.483725937849265
 20
0.1916290841039374
 30
0.0
 10
1.488046160785793
 20
0.1929329094917577
 30
0.0
 10
1.500958074260365
 20
0.1971066865945438
 30
0.0
 10
1.50948805207986
 20
0.2003120786207647
 30
0.0
 10
1.534878218640121
 20
0.2108402650362297
 30
0.0
 10
1.551538915843861
 20
0.2190715130895291
 30
0.0
 10
1.56794637272379
 20
0.2282013095027961
 30
0.0
  0
SPLINE
  5
D3
330
1F
100
AcDbEntity
  8
0
  6
Continuous
 62
     7
370
    25
100
AcDbSpline
210
0.0
220
0.0
230
1.0
 70
     8
 71
     3
 72
    14
 73
    10
 74
     0
 42
0.000000001
 43
0.00000001
 40
0.0
 40
0.0
 40
0.0
 40
0.0
 40
0.4999999999999963
 40
0.4999999999999963
 40
0.7499999999999981
 40
0.7499999999999981
 40
0.8749999999999991
 40
0.8749999999999991
 40
1.0
 40
1.0
 40
1.0
 40
1.0
 10
1.5829954341341
 20
0.0407093251997093
 30
0.0
 10
1.565341807373505
 20
0.0471052055934204
 30
0.0
 10
1.547581503187776
 20
0.0525736487960247
 30
0.0
 10
1.520837120970392
 20
0.0589172508460898
 30
0.0
 10
1.511905079773846
 20
0.060721052305663
 30
0.0
 10
1.498492742681328
 20
0.062781911009102
 30
0.0
 10
1.494019865828565
 20
0.0633799574314473
 30
0.0
 10
1.485072309484394
 20
0.0642082654062286
 30
0.0
 10
1.480600145028266
 20
0.0646658303349872
 30
0.0
 10
1.47613089691568
 20
0.0644957835156702
 30
0.0
  0
SPLINE
  5
D5
330
1F
100
AcDbEntity
  8
0
  6
Continuous
 62
     7
370
    25
100
AcDbSpline
210
0.0
220
0.0
230
1.0
 70
     8
 71
     3
 72
    14
 73
    10
 74
     0
 42
0.000000001
 43
0.00000001
 40
0.0
 40
0.0
 40
0.0
 40
0.0
 40
0.125
 40
0.125
 40
0.25
 40
0.25
 40
0.5
 40
0.5
 40
1.0
 40
1.0
 40
1.0
 40
1.0
 10
1.47516852743746
 20
-0.069666041756544
 30
0.0
 10
1.479634876211437
 20
-0.0699001853910015
 30
0.0
 10
1.484113144533627
 20
-0.0695068236981863
 30
0.0
 10
1.493071662760562
 20
-0.0688069595605923
 30
0.0
 10
1.497552658705791
 20
-0.068273141050137
 30
0.0
 10
1.510993179989646
 20
-0.0664049032450195
 30
0.0
 10
1.51995017876338
 20
-0.0647294234300497
 30
0.0
 10
1.546782812027378
 20
-0.05877013997679
 30
0.0
 10
1.564619737028482
 20
-0.053557042784927
 30
0.0
 10
1.58236330028079
 20
-0.0474150734811656
 30
0.0
  0
SPLINE
  5
DB
330
1F
100
AcDbEntity
  8
0
  6
Continuous
 62
     7
370
    25
100
AcDbSpline
210
0.0
220
0.0
230
1.0
 70
     8
 71
     3
 72
    14
 73
    10
 74
     0
 42
0.000000001
 43
0.00000001
 40
0.0
 40
0.0
 40
0.0
 40
0.0
 40
0.499999999999993
 40
0.499999999999993
 40
0.749999999999993
 40
0.749999999999993
 40
0.8749999999999966
 40
0.8749999999999966
 40
1.0
 40
1.0
 40
1.0
 40
1.0
 10
1.56462609123184
 20
-0.234671875339987
 30
0.0
 10
1.548351295703602
 20
-0.2253076426247424
 30
0.0
 10
1.53181039564302
 20
-0.2168382329052313
 30
0.0
 10
1.506573875621636
 20
-0.205946891189437
 30
0.0
 10
1.49809075903736
 20
-0.2026194608505215
 30
0.0
 10
1.485240049840948
 20
-0.1982608833271454
 30
0.0
 10
1.480938975709479
 20
-0.1968952156593478
 30
0.0
 10
1.472271187021591
 20
-0.1945257646901634
 30
0.0
 10
1.467946420108426
 20
-0.1932985679927748
 30
0.0
 10
1.46351554159679
 20
-0.192689954628528
 30
0.0
  0
SPLINE
  5
DD
330
1F
100
AcDbEntity
  8
0
  6
Continuous
 62
     7
370
    25
100
AcDbSpline
210
0.0
220
0.0
230
1.0
 70
     8
 71
     3
 72
    14
 73
    10
 74
     0
 42
0.000000001
 43
0.00000001
 40
0.0
 40
0.0
 40
0.0
 40
0.0
 40
0.1250000000000029
 40
0.1250000000000029
 40
0.2500000000000057
 40
0.2500000000000057
 40
0.5000000000000038
 40
0.5000000000000038
 40
1.0
 40
1.0
 40
1.0
 40
1.0
 10
1.43927083620239
 20
-0.324646446608739
 30
0.0
 10
1.443628672487201
 20
-0.3256526064007019
 30
0.0
 10
1.448107212392113
 20
-0.3260428638891271
 30
0.0
 10
1.457051160729591
 20
-0.3269092626250706
 30
0.0
 10
1.461556776889211
 20
-0.327161670797294
 30
0.0
 10
1.475117522544407
 20
-0.3276557377501851
 30
0.0
 10
1.484229388397087
 20
-0.3275610787528071
 30
0.0
 10
1.511689192381015
 20
-0.326351768073936
 30
0.0
 10
1.530160379239303
 20
-0.3243152190637221
 30
0.0
 10
1.54870091967322
 20
-0.3213476974987831
 30
0.0
  0
SPLINE
  5
E3
330
1F
100
AcDbEntity
  8
0
  6
Continuous
 62
     7
370
    25
100
AcDbSpline
210
0.0
220
0.0
230
1.0
 70
     8
 71
     3
 72
    14
 73
    10
 74
     0
 42
0.000000001
 43
0.00000001
 40
0.0
 40
0.0
 40
0.0
 40
0.0
 40
0.5000000000000064
 40
0.5000000000000064
 40
0.7500000000000066
 40
0.7500000000000066
 40
0.8750000000000032
 40
0.8750000000000032
 40
1.0
 40
1.0
 40
1.0
 40
1.0
 10
1.49871637628649
 20
-0.5026796137453723
 30
0.0
 10
1.484314913418152
 20
-0.490631556180989
 30
0.0
 10
1.469496004360059
 20
-0.4794185186732966
 30
0.0
 10
1.446534145425313
 20
-0.4643103651985231
 30
0.0
 10
1.438757708658077
 20
-0.4595604082673499
 30
0.0
 10
1.426859089653865
 20
-0.4530365450965418
 30
0.0
 10
1.422860504204741
 20
-0.4509447513043138
 30
0.0
 10
1.414735849546293
 20
-0.4471061519094257
 30
0.0
 10
1.410689886030309
 20
-0.4451466111940531
 30
0.0
 10
1.40643200712108
 20
-0.4437778300553561
 30
0.0
  0
SPLINE
  5
E5
330
1F
100
AcDbEntity
  8
0
  6
Continuous
 62
     7
370
    25
100
AcDbSpline
210
0.0
220
0.0
230
1.0
 70
     8
 71
     3
 72
    14
 73
    10
 74
     0
 42
0.000000001
 43
0.00000001
 40
0.0
 40
0.0
 40
0.0
 40
0.0
 40
0.124999999999998
 40
0.124999999999998
 40
0.249999999999996
 40
0.249999999999996
 40
0.4999999999999998
 40
0.4999999999999998
 40
1.0
 40
1.0
 40
1.0
 40
1.0
 10
1.35964162891549
 20
-0.5695195575079509
 30
0.0
 10
1.363758542060827
 20
-0.5712671618012661
 30
0.0
 10
1.36810127537965
 20
-0.5724291806946413
 30
0.0
 10
1.376758896483318
 20
-0.5748355172169521
 30
0.0
 10
1.381152231990275
 20
-0.5758664827772686
 30
0.0
 10
1.394421165622127
 20
-0.578707842513798
 30
0.0
 10
1.403411039120622
 20
-0.5801968804997596
 30
0.0
 10
1.430663661575877
 20
-0.5837742868883127
 30
0.0
 10
1.449207872625274
 20
-0.5849761655709654
 30
0.0
 10
1.46798204530187
 20
-0.5852732583858742
 30
0.0
  0
SPLINE
  5
EB
330
1F
100
AcDbEntity
  8
0
  6
Continuous
 62
     7
370
    25
100
AcDbSpline
210
0.0
220
0.0
230
1.0
 70
     8
 71
     3
 72
    14
 73
    10
 74
     0
 42
0.000000001
 43
0.00000001
 40
0.0
 40
0.0
 40
0.0
 40
0.0
 40
0.5000000000000011
 40
0.5000000000000011
 40
0.7499999999999977
 40
0.7499999999999977
 40
0.8749999999999988
 40
0.8749999999999988
 40
1.0
 40
1.0
 40
1.0
 40
1.0
 10
1.38726892263477
 20
-0.7551706105034574
 30
0.0
 10
1.375178373587253
 20
-0.7408048022225034
 30
0.0
 10
1.362531720585515
 20
-0.7271888393971503
 30
0.0
 10
1.342542207201805
 20
-0.7083229277616275
 30
0.0
 10
1.335708733347705
 20
-0.7022947692759628
 30
0.0
 10
1.325123738053203
 20
-0.6938038447389253
 30
0.0
 10
1.32154913628187
 20
-0.6910494829181515
 30
0.0
 10
1.314214479173433
 20
-0.6858583689977436
 30
0.0
 10
1.31057025360888
 20
-0.6832260239174688
 30
0.0
 10
1.30661474779792
 20
-0.6811386647265641
 30
0.0
  0
SPLINE
  5
ED
330
1F
100
AcDbEntity
  8
0
  6
Continuous
 62
     7
370
    25
100
AcDbSpline
210
0.0
220
0.0
230
1.0
 70
     8
 71
     3
 72
    14
 73
    10
 74
     0
 42
0.000000001
 43
0.00000001
 40
0.0
 40
0.0
 40
0.0
 40
0.0
 40
0.125
 40
0.125
 40
0.25
 40
0.25
 40
0.5
 40
0.5
 40
1.0
 40
1.0
 40
1.0
 40
1.0
 10
1.23870039874585
 20
-0.7968450288912822
 30
0.0
 10
1.242451298429126
 20
-0.7992809776138156
 30
0.0
 10
1.246526273407435
 20
-0.8011794505560864
 30
0.0
 10
1.254634509841027
 20
-0.8050526095471973
 30
0.0
 10
1.258782075419072
 20
-0.8068308071287468
 30
0.0
 10
1.271356027193557
 20
-0.8119331263711341
 30
0.0
 10
1.279950755580769
 20
-0.8149606176747092
 30
0.0
 10
1.306168139364426
 20
-0.8232160434478293
 30
0.0
 10
1.324221918136419
 20
-0.8276198313477945
 30
0.0
 10
1.34265927931877
 20
-0.831172511527666
 30
0.0
  0
SPLINE
  5
F2
330
1F
100
AcDbEntity
  8
0
  6
Continuous
 62
     7
370
    25
100
AcDbSpline
210
0.0
220
0.0
230
1.0
 70
     8
 71
     3
 72
    14
 73
    10
 74
     0
 42
0.000000001
 43
0.00000001
 40
0.0
 40
0.0
 40
0.0
 40
0.0
 40
0.5000000000000053
 40
0.5000000000000053
 40
0.7500000000000053
 40
0.7500000000000053
 40
0.8750000000000027
 40
0.8750000000000027
 40
1.0
 40
1.0
 40
1.0
 40
1.0
 10
1.23367000476073
 20
-0.9844730544443571
 30
0.0
 10
1.224257734749622
 20
-0.968225993261981
 30
0.0
 10
1.214167599955282
 20
-0.9526208192594221
 30
0.0
 10
1.197757803371627
 20
-0.9305703806415861
 30
0.0
 10
1.192074924075813
 20
-0.9234471831466213
 30
0.0
 10
1.183125172216755
 20
-0.9132471896887974
 30
0.0
 10
1.180083166589236
 20
-0.9099139497296224
 30
0.0
 10
1.173761366875483
 20
-0.9035280506533445
 30
0.0
 10
1.170629607211921
 20
-0.9003028836813833
 30
0.0
 10
1.1670966605419
 20
-0.8975603697910459
 30
0.0
  0
SPLINE
  5
F4
330
1F
100
AcDbEntity
  8
0
  6
Continuous
 62
     7
370
    25
100
AcDbSpline
210
0.0
220
0.0
230
1.0
 70
     8
 71
     3
 72
    14
 73
    10
 74
     0
 42
0.000000001
 43
0.00000001
 40
0.0
 40
0.0
 40
0.0
 40
0.0
 40
0.125
 40
0.125
 40
0.2500000000000001
 40
0.2500000000000001
 40
0.4999999999999989
 40
0.4999999999999989
 40
1.0
 40
1.0
 40
1.0
 40
1.0
 10
1.08012188377297
 20
-0.9997156913429861
 30
0.0
 10
1.083392800805226
 20
-1.00276596942547
 30
0.0
 10
1.087076201390466
 20
-1.005343212276942
 30
0.0
 10
1.094388688492892
 20
-1.010565509760823
 30
0.0
 10
1.098164462460714
 20
-1.013036909729915
 30
0.0
 10
1.109661379215925
 20
-1.020245157089834
 30
0.0
 10
1.117599816018913
 20
-1.024719112919782
 30
0.0
 10
1.141985359191392
 20
-1.03740172114278
 30
0.0
 10
1.159000150753605
 20
-1.044873611392988
 30
0.0
 10
1.17654049055195
 20
-1.05157393254847
 30
0.0
  0
SPLINE
  5
FA
330
1F
100
AcDbEntity
  8
0
  6
Continuous
 62
     7
370
    25
100
AcDbSpline
210
0.0
220
0.0
230
1.0
 70
     8
 71
     3
 72
    14
 73
    10
 74
     0
 42
0.000000001
 43
0.00000001
 40
0.0
 40
0.0
 40
0.0
 40
0.0
 40
0.5
 40
0.5
 40
0.75
 40
0.75
 40
0.875
 40
0.875
 40
1.0
 40
1.0
 40
1.0
 40
1.0
 10
1.04258664805918
 20
-1.18361970684156
 30
0.0
 10
1.036138644145449
 20
-1.165985051490298
 30
0.0
 10
1.028911611198902
 20
-1.148864821626078
 30
0.0
 10
1.016580134780661
 20
-1.124299847445283
 30
0.0
 10
1.012220521454887
 20
-1.116298045692375
 30
0.0
 10
1.00517794671272
 20
-1.104698904953553
 30
0.0
 10
1.002760967030673
 20
-1.100888065665427
 30
0.0
 10
0.9976441093969407
 20
-1.093501413745296
 30
0.0
 10
0.9951199725670719
 20
-1.089781419948094
 30
0.0
 10
0.99211693183471
 20
-1.08646708125508
 30
0.0
  0
SPLINE
  5
FC
330
1F
100
AcDbEntity
  8
0
  6
Continuous
 62
     7
370
    25
100
AcDbSpline
210
0.0
220
0.0
230
1.0
 70
     8
 71
     3
 72
    14
 73
    10
 74
     0
 42
0.000000001
 43
0.00000001
 40
0.0
 40
0.0
 40
0.0
 40
0.0
 40
0.1249999999999999
 40
0.1249999999999999
 40
0.2499999999999998
 40
0.2499999999999998
 40
0.4999999999999998
 40
0.4999999999999998
 40
1.0
 40
1.0
 40
1.0
 40
1.0
 10
0.8887244119296923
 20
-1.17196742244198
 30
0.0
 10
0.891415961152044
 20
-1.175539348728378
 30
0.0
 10
0.8945958690813498
 20
-1.17871705326918
 30
0.0
 10
0.9008904206323102
 20
-1.185129812379374
 30
0.0
 10
0.904179678008528
 20
-1.188219322498524
 30
0.0
 10
0.9142502317465584
 20
-1.197314479027568
 30
0.0
 10
0.9212911715801062
 20
-1.203098960499857
 30
0.0
 10
0.9431039317518017
 20
-1.219823396539639
 30
0.0
 10
0.9585627502725583
 20
-1.230136359535988
 30
0.0
 10
0.9746731143379171
 20
-1.23978073579907
 30
0.0
  0
SPLINE
  5
102
330
1F
100
AcDbEntity
  8
0
  6
Continuous
 62
     7
370
    25
100
AcDbSpline
210
0.0
220
0.0
230
1.0
 70
     8
 71
     3
 72
    14
 73
    10
 74
     0
 42
0.000000001
 43
0.00000001
 40
0.0
 40
0.0
 40
0.0
 40
0.0
 40
0.5000000000000036
 40
0.5000000000000036
 40
0.7500000000000053
 40
0.7500000000000053
 40
0.8750000000000027
 40
0.8750000000000027
 40
1.0
 40
1.0
 40
1.0
 40
1.0
 10
0.8198248236306482
 20
-1.34655959743506
 30
0.0
 10
0.8165370051506567
 20
-1.328073167993992
 30
0.0
 10
0.8123926637905983
 20
-1.309958071789471
 30
0.0
 10
0.8045141932087847
 20
-1.283624956355726
 30
0.0
 10
0.801610310497866
 20
-1.274987681042051
 30
0.0
 10
0.7966888979424093
 20
-1.262341827044101
 30
0.0
 10
0.7949703829104182
 20
-1.258169178850429
 30
0.0
 10
0.7912139404866498
 20
-1.2500062137672
 30
0.0
 10
0.7893741211107369
 20
-1.24590442327381
 30
0.0
 10
0.7869922321891182
 20
-1.24211896428225
 30
0.0
  0
SPLINE
  5
104
330
1F
100
AcDbEntity
  8
0
  6
Continuous
 62
     7
370
    25
100
AcDbSpline
210
0.0
220
0.0
230
1.0
 70
     8
 71
     3
 72
    14
 73
    10
 74
     0
 42
0.000000001
 43
0.00000001
 40
0.0
 40
0.0
 40
0.0
 40
0.0
 40
0.1249999999999997
 40
0.1249999999999997
 40
0.2499999999999994
 40
0.2499999999999994
 40
0.4999999999999988
 40
0.4999999999999988
 40
1.0
 40
1.0
 40
1.0
 40
1.0
 10
0.6703234985461823
 20
-1.3083664405024
 30
0.0
 10
0.6723538985975642
 20
-1.312351483819899
 30
0.0
 10
0.6749336939775441
 20
-1.316033097105612
 30
0.0
 10
0.6800190532133642
 20
-1.323441469401623
 30
0.0
 10
0.6827218515770402
 20
-1.327055216469207
 30
0.0
 10
0.691060053618521
 20
-1.337760930438584
 30
0.0
 10
0.6969895610886744
 20
-1.344680179010808
 30
0.0
 10
0.7155667685795399
 20
-1.364938279341243
 30
0.0
 10
0.7289999056805785
 20
-1.377778960921375
 30
0.0
 10
0.743190788753126
 20
-1.39007435279993
 30
0.0
  0
SPLINE
  5
10A
330
1F
100
AcDbEntity
  8
0
  6
Continuous
 62
     7
370
    25
100
AcDbSpline
210
0.0
220
0.0
230
1.0
 70
     8
 71
     3
 72
    14
 73
    10
 74
     0
 42
0.000000001
 43
0.00000001
 40
0.0
 40
0.0
 40
0.0
 40
0.0
 40
0.4999999999999998
 40
0.4999999999999998
 40
0.7499999999999997
 40
0.7499999999999997
 40
0.8749999999999998
 40
0.8749999999999998
 40
1.0
 40
1.0
 40
1.0
 40
1.0
 10
0.5721530367874802
 20
-1.46834188010071
 30
0.0
 10
0.5721253024419045
 20
-1.449565377374381
 30
0.0
 10
0.5711895763835563
 20
-1.431005832860541
 30
0.0
 10
0.5680034949800735
 20
-1.403704694561049
 30
0.0
 10
0.5666435758907541
 20
-1.394694384926342
 30
0.0
 10
0.5639928601521479
 20
-1.381386055543899
 30
0.0
 10
0.5630250259798523
 20
-1.376978382248585
 30
0.0
 10
0.5607431363682437
 20
-1.368287131565639
 30
0.0
 10
0.5596435364270462
 20
-1.363928175204779
 30
0.0
 10
0.5579551718057439
 20
-1.35978661517042
 30
0.0
  0
SPLINE
  5
10C
330
1F
100
AcDbEntity
  8
0
  6
Continuous
 62
     7
370
    25
100
AcDbSpline
210
0.0
220
0.0
230
1.0
 70
     8
 71
     3
 72
    14
 73
    10
 74
     0
 42
0.000000001
 43
0.00000001
 40
0.0
 40
0.0
 40
0.0
 40
0.0
 40
0.1250000000000015
 40
0.1250000000000015
 40
0.250000000000003
 40
0.250000000000003
 40
0.5000000000000002
 40
0.5000000000000002
 40
1.0
 40
1.0
 40
1.0
 40
1.0
 10
0.4315551448594031
 20
-1.40476833038171
 30
0.0
 10
0.4328627030617038
 20
-1.409045407205828
 30
0.0
 10
0.4347640001151608
 20
-1.413119065279603
 30
0.0
 10
0.438485650968774
 20
-1.421297951117958
 30
0.0
 10
0.4405198671593141
 20
-1.425326133258015
 30
0.0
 10
0.4468723654545366
 20
-1.4373171169661
 30
0.0
 10
0.4515102754772976
 20
-1.445160894771717
 30
0.0
 10
0.4662874712382514
 20
-1.468337127265313
 30
0.0
 10
0.4772867678461618
 20
-1.483315369816977
 30
0.0
 10
0.4891269871247562
 20
-1.49788818805073
 30
0.0
  0
SPLINE
  5
112
330
1F
100
AcDbEntity
  8
0
  6
Continuous
 62
     7
370
    25
100
AcDbSpline
210
0.0
220
0.0
230
1.0
 70
     8
 71
     3
 72
    14
 73
    10
 74
     0
 42
0.000000001
 43
0.00000001
 40
0.0
 40
0.0
 40
0.0
 40
0.0
 40
0.4999999999999962
 40
0.4999999999999962
 40
0.7499999999999981
 40
0.7499999999999981
 40
0.874999999999999
 40
0.874999999999999
 40
1.0
 40
1.0
 40
1.0
 40
1.0
 10
0.3070966694449311
 20
-1.54526626180455
 30
0.0
 10
0.3103298619277279
 20
-1.526770200326707
 30
0.0
 10
0.3126311827339708
 20
-1.508330129872191
 30
0.0
 10
0.3142342979800303
 20
-1.480890499979187
 30
0.0
 10
0.3144596629656816
 20
-1.471780929722251
 30
0.0
 10
0.314160184700323
 20
-1.458214491809258
 30
0.0
 10
0.3139724385392995
 20
-1.453705718334988
 30
0.0
 10
0.313234435801007
 20
-1.444750261306365
 30
0.0
 10
0.3129084660823152
 20
-1.440266583761012
 30
0.0
 10
0.3119649258659911
 20
-1.43589476189007
 30
0.0
  0
SPLINE
  5
114
330
1F
100
AcDbEntity
  8
0
  6
Continuous
 62
     7
370
    25
100
AcDbSpline
210
0.0
220
0.0
230
1.0
 70
     8
 71
     3
 72
    14
 73
    10
 74
     0
 42
0.000000001
 43
0.00000001
 40
0.0
 40
0.0
 40
0.0
 40
0.0
 40
0.1249999999999993
 40
0.1249999999999993
 40
0.2499999999999985
 40
0.2499999999999985
 40
0.4999999999999967
 40
0.4999999999999967
 40
1.0
 40
1.0
 40
1.0
 40
1.0
 10
0.179674206473511
 20
-1.45824396943764
 30
0.0
 10
0.1802191933323906
 20
-1.462683122953347
 30
0.0
 10
0.1813842221104792
 20
-1.467025049775988
 30
0.0
 10
0.1836290841039396
 20
-1.475725937849258
 30
0.0
 10
0.1849329094917571
 20
-1.480046160785794
 30
0.0
 10
0.1891066865945492
 20
-1.492958074260365
 30
0.0
 10
0.1923120786207662
 20
-1.501488052079859
 30
0.0
 10
0.2028402650362313
 20
-1.526878218640122
 30
0.0
 10
0.2110715130895899
 20
-1.543538915843861
 30
0.0
 10
0.2202013095027971
 20
-1.55994637272379
 30
0.0
  0
SPLINE
  5
11A
330
1F
100
AcDbEntity
  8
0
  6
Continuous
 62
     7
370
    25
100
AcDbSpline
210
0.0
220
0.0
230
1.0
 70
     8
 71
     3
 72
    14
 73
    10
 74
     0
 42
0.000000001
 43
0.00000001
 40
0.0
 40
0.0
 40
0.0
 40
0.0
 40
0.4999999999999964
 40
0.4999999999999964
 40
0.7499999999999982
 40
0.7499999999999982
 40
0.8749999999999991
 40
0.8749999999999991
 40
1.0
 40
1.0
 40
1.0
 40
1.0
 10
0.0327093251997105
 20
-1.5749954341341
 30
0.0
 10
0.039105205593433
 20
-1.557341807373505
 30
0.0
 10
0.0445736487960265
 20
-1.539581503187777
 30
0.0
 10
0.0509172508460909
 20
-1.512837120970392
 30
0.0
 10
0.0527210523056647
 20
-1.503905079773845
 30
0.0
 10
0.0547819110091031
 20
-1.490492742681327
 30
0.0
 10
0.0553799574314485
 20
-1.486019865828565
 30
0.0
 10
0.0562082654062297
 20
-1.477072309484394
 30
0.0
 10
0.0566658303349914
 20
-1.472600145028266
 30
0.0
 10
0.0564957835156714
 20
-1.46813089691568
 30
0.0
  0
SPLINE
  5
11C
330
1F
100
AcDbEntity
  8
0
  6
Continuous
 62
     7
370
    25
100
AcDbSpline
210
0.0
220
0.0
230
1.0
 70
     8
 71
     3
 72
    14
 73
    10
 74
     0
 42
0.000000001
 43
0.00000001
 40
0.0
 40
0.0
 40
0.0
 40
0.0
 40
0.125
 40
0.125
 40
0.25
 40
0.25
 40
0.5
 40
0.5
 40
1.0
 40
1.0
 40
1.0
 40
1.0
 10
-0.0776660417565427
 20
-1.46716852743746
 30
0.0
 10
-0.0779001853910029
 20
-1.471634876211441
 30
0.0
 10
-0.077506823698185
 20
-1.476113144533622
 30
0.0
 10
-0.0768069595605911
 20
-1.485071662760569
 30
0.0
 10
-0.076273141050136
 20
-1.48955265870579
 30
0.0
 10
-0.0744049032450177
 20
-1.502993179989646
 30
0.0
 10
-0.0727294234300485
 20
-1.51195017876338
 30
0.0
 10
-0.0667701399767888
 20
-1.538782812027378
 30
0.0
 10
-0.061557042784937
 20
-1.556619737028499
 30
0.0
 10
-0.0554150734811641
 20
-1.57436330028079
 30
0.0
  0
SPLINE
  5
122
330
1F
100
AcDbEntity
  8
0
  6
Continuous
 62
     7
370
    25
100
AcDbSpline
210
0.0
220
0.0
230
1.0
 70
     8
 71
     3
 72
    14
 73
    10
 74
     0
 42
0.000000001
 43
0.00000001
 40
0.0
 40
0.0
 40
0.0
 40
0.0
 40
0.4999999999999929
 40
0.4999999999999929
 40
0.7499999999999929
 40
0.7499999999999929
 40
0.8749999999999964
 40
0.8749999999999964
 40
1.0
 40
1.0
 40
1.0
 40
1.0
 10
-0.242671875339986
 20
-1.55662609123184
 30
0.0
 10
-0.2333076426246837
 20
-1.540351295703602
 30
0.0
 10
-0.2248382329052283
 20
-1.523810395643021
 30
0.0
 10
-0.2139468911894369
 20
-1.498573875621636
 30
0.0
 10
-0.2106194608505225
 20
-1.49009075903736
 30
0.0
 10
-0.2062608833271433
 20
-1.477240049840948
 30
0.0
 10
-0.2048952156593456
 20
-1.472938975709485
 30
0.0
 10
-0.2025257646901626
 20
-1.464271187021585
 30
0.0
 10
-0.2012985679927738
 20
-1.459946420108427
 30
0.0
 10
-0.200689954628527
 20
-1.45551554159679
 30
0.0
  0
SPLINE
  5
124
330
1F
100
AcDbEntity
  8
0
  6
Continuous
 62
     7
370
    25
100
AcDbSpline
210
0.0
220
0.0
230
1.0
 70
     8
 71
     3
 72
    14
 73
    10
 74
     0
 42
0.000000001
 43
0.00000001
 40
0.0
 40
0.0
 40
0.0
 40
0.0
 40
0.1249999999999981
 40
0.1249999999999981
 40
0.2499999999999962
 40
0.2499999999999962
 40
0.5
 40
0.5
 40
1.0
 40
1.0
 40
1.0
 40
1.0
 10
-0.332646446608738
 20
-1.43127083620239
 30
0.0
 10
-0.3336526064006871
 20
-1.435628672487201
 30
0.0
 10
-0.3340428638891262
 20
-1.440107212392113
 30
0.0
 10
-0.3349092626250698
 20
-1.449051160729591
 30
0.0
 10
-0.3351616707972945
 20
-1.453556776889204
 30
0.0
 10
-0.3356557377501799
 20
-1.467117522544423
 30
0.0
 10
-0.3355610787528102
 20
-1.476229388397079
 30
0.0
 10
-0.3343517680739271
 20
-1.503689192381031
 30
0.0
 10
-0.3323152190637759
 20
-1.522160379239303
 30
0.0
 10
-0.3293476974987811
 20
-1.54070091967322
 30
0.0
  0
SPLINE
  5
12A
330
1F
100
AcDbEntity
  8
0
  6
Continuous
 62
     7
370
    25
100
AcDbSpline
210
0.0
220
0.0
230
1.0
 70
     8
 71
     3
 72
    14
 73
    10
 74
     0
 42
0.000000001
 43
0.00000001
 40
0.0
 40
0.0
 40
0.0
 40
0.0
 40
0.5000000000000002
 40
0.5000000000000002
 40
0.7500000000000034
 40
0.7500000000000034
 40
0.8750000000000018
 40
0.8750000000000018
 40
1.0
 40
1.0
 40
1.0
 40
1.0
 10
-0.5106796137453713
 20
-1.49071637628649
 30
0.0
 10
-0.498631556180988
 20
-1.476314913418168
 30
0.0
 10
-0.4874185186732957
 20
-1.461496004360054
 30
0.0
 10
-0.4723103651985222
 20
-1.438534145425307
 30
0.0
 10
-0.4675604082673527
 20
-1.430757708658076
 30
0.0
 10
-0.4610365450965387
 20
-1.418859089653866
 30
0.0
 10
-0.4589447513043113
 20
-1.414860504204741
 30
0.0
 10
-0.4551061519094258
 20
-1.406735849546293
 30
0.0
 10
-0.4531466111940523
 20
-1.40268988603031
 30
0.0
 10
-0.451777830055355
 20
-1.39843200712108
 30
0.0
  0
SPLINE
  5
12C
330
1F
100
AcDbEntity
  8
0
  6
Continuous
 62
     7
370
    25
100
AcDbSpline
210
0.0
220
0.0
230
1.0
 70
     8
 71
     3
 72
    14
 73
    10
 74
     0
 42
0.000000001
 43
0.00000001
 40
0.0
 40
0.0
 40
0.0
 40
0.0
 40
0.1249999999999983
 40
0.1249999999999983
 40
0.2499999999999966
 40
0.2499999999999966
 40
0.5000000000000001
 40
0.5000000000000001
 40
1.0
 40
1.0
 40
1.0
 40
1.0
 10
-0.5775195575079499
 20
-1.35164162891549
 30
0.0
 10
-0.5792671618012654
 20
-1.355758542060827
 30
0.0
 10
-0.5804291806946401
 20
-1.36010127537965
 30
0.0
 10
-0.5828355172169513
 20
-1.368758896483318
 30
0.0
 10
-0.583866482777265
 20
-1.373152231990283
 30
0.0
 10
-0.5867078425138005
 20
-1.38642116562211
 30
0.0
 10
-0.5881968804997585
 20
-1.395411039120622
 30
0.0
 10
-0.5917742868883117
 20
-1.422663661575877
 30
0.0
 10
-0.5929761655709606
 20
-1.441207872625274
 30
0.0
 10
-0.5932732583858733
 20
-1.45998204530187
 30
0.0
  0
SPLINE
  5
132
330
1F
100
AcDbEntity
  8
0
  6
Continuous
 62
     7
370
    25
100
AcDbSpline
210
0.0
220
0.0
230
1.0
 70
     8
 71
     3
 72
    14
 73
    10
 74
     0
 42
0.000000001
 43
0.00000001
 40
0.0
 40
0.0
 40
0.0
 40
0.0
 40
0.4999999999999956
 40
0.4999999999999956
 40
0.7499999999999948
 40
0.7499999999999948
 40
0.8749999999999973
 40
0.8749999999999973
 40
1.0
 40
1.0
 40
1.0
 40
1.0
 10
-0.7631706105034564
 20
-1.37926892263477
 30
0.0
 10
-0.7488048022225025
 20
-1.367178373587253
 30
0.0
 10
-0.735188839397149
 20
-1.354531720585499
 30
0.0
 10
-0.716322927761626
 20
-1.334542207201812
 30
0.0
 10
-0.7102947692759611
 20
-1.327708733347705
 30
0.0
 10
-0.7018038447389242
 20
-1.317123738053203
 30
0.0
 10
-0.6990494829181503
 20
-1.313549136281881
 30
0.0
 10
-0.6938583689977423
 20
-1.306214479173424
 30
0.0
 10
-0.6912260239174519
 20
-1.302570253608884
 30
0.0
 10
-0.6891386647265632
 20
-1.29861474779792
 30
0.0
  0
SPLINE
  5
134
330
1F
100
AcDbEntity
  8
0
  6
Continuous
 62
     7
370
    25
100
AcDbSpline
210
0.0
220
0.0
230
1.0
 70
     8
 71
     3
 72
    14
 73
    10
 74
     0
 42
0.000000001
 43
0.00000001
 40
0.0
 40
0.0
 40
0.0
 40
0.0
 40
0.125
 40
0.125
 40
0.25
 40
0.25
 40
0.5
 40
0.5
 40
1.0
 40
1.0
 40
1.0
 40
1.0
 10
-0.8048450288912802
 20
-1.23070039874585
 30
0.0
 10
-0.8072809776138296
 20
-1.234451298429126
 30
0.0
 10
-0.8091794505560826
 20
-1.238526273407435
 30
0.0
 10
-0.8130526095471987
 20
-1.246634509841027
 30
0.0
 10
-0.8148308071287454
 20
-1.250782075419072
 30
0.0
 10
-0.8199331263711326
 20
-1.263356027193557
 30
0.0
 10
-0.8229606176747117
 20
-1.271950755580761
 30
0.0
 10
-0.8312160434478199
 20
-1.298168139364442
 30
0.0
 10
-0.8356198313477299
 20
-1.31622191813642
 30
0.0
 10
-0.839172511527665
 20
-1.33465927931877
 30
0.0
  0
SPLINE
  5
139
330
1F
100
AcDbEntity
  8
0
  6
Continuous
 62
     7
370
    25
100
AcDbSpline
210
0.0
220
0.0
230
1.0
 70
     8
 71
     3
 72
    14
 73
    10
 74
     0
 42
0.000000001
 43
0.00000001
 40
0.0
 40
0.0
 40
0.0
 40
0.0
 40
0.5000000000000053
 40
0.5000000000000053
 40
0.7500000000000053
 40
0.7500000000000053
 40
0.8750000000000027
 40
0.8750000000000027
 40
1.0
 40
1.0
 40
1.0
 40
1.0
 10
-0.9924730544443561
 20
-1.22567000476073
 30
0.0
 10
-0.9762259932619722
 20
-1.21625773474963
 30
0.0
 10
-0.9606208192594207
 20
-1.206167599955282
 30
0.0
 10
-0.9385703806415848
 20
-1.189757803371627
 30
0.0
 10
-0.9314471831466203
 20
-1.184074924075813
 30
0.0
 10
-0.9212471896887967
 20
-1.175125172216755
 30
0.0
 10
-0.917913949729621
 20
-1.172083166589239
 30
0.0
 10
-0.9115280506533437
 20
-1.16576136687548
 30
0.0
 10
-0.9083028836813823
 20
-1.162629607211921
 30
0.0
 10
-0.9055603697910448
 20
-1.1590966605419
 30
0.0
  0
SPLINE
  5
13B
330
1F
100
AcDbEntity
  8
0
  6
Continuous
 62
     7
370
    25
100
AcDbSpline
210
0.0
220
0.0
230
1.0
 70
     8
 71
     3
 72
    14
 73
    10
 74
     0
 42
0.000000001
 43
0.00000001
 40
0.0
 40
0.0
 40
0.0
 40
0.0
 40
0.125
 40
0.125
 40
0.2500000000000001
 40
0.2500000000000001
 40
0.4999999999999989
 40
0.4999999999999989
 40
1.0
 40
1.0
 40
1.0
 40
1.0
 10
-1.00771569134298
 20
-1.07212188377297
 30
0.0
 10
-1.01076596942552
 20
-1.075392800805226
 30
0.0
 10
-1.013343212276942
 20
-1.079076201390466
 30
0.0
 10
-1.018565509760823
 20
-1.086388688492892
 30
0.0
 10
-1.021036909729915
 20
-1.090164462460714
 30
0.0
 10
-1.028245157089834
 20
-1.101661379215925
 30
0.0
 10
-1.032719112919774
 20
-1.109599816018913
 30
0.0
 10
-1.045401721142796
 20
-1.133985359191392
 30
0.0
 10
-1.052873611392988
 20
-1.151000150753614
 30
0.0
 10
-1.05957393254847
 20
-1.16854049055195
 30
0.0
  0
SPLINE
  5
141
330
1F
100
AcDbEntity
  8
0
  6
Continuous
 62
     7
370
    25
100
AcDbSpline
210
0.0
220
0.0
230
1.0
 70
     8
 71
     3
 72
    14
 73
    10
 74
     0
 42
0.000000001
 43
0.00000001
 40
0.0
 40
0.0
 40
0.0
 40
0.0
 40
0.5
 40
0.5
 40
0.75
 40
0.75
 40
0.875
 40
0.875
 40
1.0
 40
1.0
 40
1.0
 40
1.0
 10
-1.19161970684156
 20
-1.03458664805918
 30
0.0
 10
-1.173985051490298
 20
-1.028138644145449
 30
0.0
 10
-1.156864821626078
 20
-1.02091161119891
 30
0.0
 10
-1.132299847445283
 20
-1.008580134780657
 30
0.0
 10
-1.124298045692367
 20
-1.004220521454891
 30
0.0
 10
-1.112698904953557
 20
-0.9971779467127245
 30
0.0
 10
-1.108888065665427
 20
-0.9947609670306744
 30
0.0
 10
-1.101501413745296
 20
-0.9896441093969418
 30
0.0
 10
-1.097781419948094
 20
-0.987119972567057
 30
0.0
 10
-1.09446708125508
 20
-0.9841169318347109
 30
0.0
  0
SPLINE
  5
143
330
1F
100
AcDbEntity
  8
0
  6
Continuous
 62
     7
370
    25
100
AcDbSpline
210
0.0
220
0.0
230
1.0
 70
     8
 71
     3
 72
    14
 73
    10
 74
     0
 42
0.000000001
 43
0.00000001
 40
0.0
 40
0.0
 40
0.0
 40
0.0
 40
0.125000000000002
 40
0.125000000000002
 40
0.250000000000004
 40
0.250000000000004
 40
0.5000000000000027
 40
0.5000000000000027
 40
1.0
 40
1.0
 40
1.0
 40
1.0
 10
-1.17996742244198
 20
-0.8807244119296933
 30
0.0
 10
-1.183539348728377
 20
-0.883415961152043
 30
0.0
 10
-1.186717053269175
 20
-0.8865958690813498
 30
0.0
 10
-1.193129812379379
 20
-0.8928904206323103
 30
0.0
 10
-1.196219322498524
 20
-0.8961796780085245
 30
0.0
 10
-1.205314479027568
 20
-0.906250231746567
 30
0.0
 10
-1.211098960499857
 20
-0.9132911715801096
 30
0.0
 10
-1.227823396539638
 20
-0.9351039317517936
 30
0.0
 10
-1.238136359535988
 20
-0.9505627502725594
 30
0.0
 10
-1.24778073579907
 20
-0.9666731143379181
 30
0.0
  0
SPLINE
  5
149
330
1F
100
AcDbEntity
  8
0
  6
Continuous
 62
     7
370
    25
100
AcDbSpline
210
0.0
220
0.0
230
1.0
 70
     8
 71
     3
 72
    14
 73
    10
 74
     0
 42
0.000000001
 43
0.00000001
 40
0.0
 40
0.0
 40
0.0
 40
0.0
 40
0.5000000000000036
 40
0.5000000000000036
 40
0.7500000000000053
 40
0.7500000000000053
 40
0.8750000000000027
 40
0.8750000000000027
 40
1.0
 40
1.0
 40
1.0
 40
1.0
 10
-1.35455959743505
 20
-0.8118248236306482
 30
0.0
 10
-1.336073167994556
 20
-0.8085370051506566
 30
0.0
 10
-1.317958071789455
 20
-0.8043926637905983
 30
0.0
 10
-1.291624956355734
 20
-0.7965141932087844
 30
0.0
 10
-1.282987681042051
 20
-0.7936103104978739
 30
0.0
 10
-1.270341827044101
 20
-0.7886888979424047
 30
0.0
 10
-1.266169178850436
 20
-0.7869703829104182
 30
0.0
 10
-1.258006213767186
 20
-0.7832139404866497
 30
0.0
 10
-1.25390442327381
 20
-0.7813741211107351
 30
0.0
 10
-1.250118964282251
 20
-0.7789922321891183
 30
0.0
  0
SPLINE
  5
14B
330
1F
100
AcDbEntity
  8
0
  6
Continuous
 62
     7
370
    25
100
AcDbSpline
210
0.0
220
0.0
230
1.0
 70
     8
 71
     3
 72
    14
 73
    10
 74
     0
 42
0.000000001
 43
0.00000001
 40
0.0
 40
0.0
 40
0.0
 40
0.0
 40
0.1249999999999997
 40
0.1249999999999997
 40
0.2499999999999994
 40
0.2499999999999994
 40
0.4999999999999988
 40
0.4999999999999988
 40
1.0
 40
1.0
 40
1.0
 40
1.0
 10
-1.3163664405024
 20
-0.6623234985461823
 30
0.0
 10
-1.3203514838199
 20
-0.6643538985975783
 30
0.0
 10
-1.324033097105617
 20
-0.6669336939775444
 30
0.0
 10
-1.331441469401617
 20
-0.6720190532133642
 30
0.0
 10
-1.335055216469207
 20
-0.6747218515770442
 30
0.0
 10
-1.345760930438584
 20
-0.6830600536185129
 30
0.0
 10
-1.35268017901081
 20
-0.6889895610886744
 30
0.0
 10
-1.372938279341221
 20
-0.7075667685795399
 30
0.0
 10
-1.385778960921374
 20
-0.7209999056805709
 30
0.0
 10
-1.39807435279993
 20
-0.7351907887531262
 30
0.0
  0
SPLINE
  5
151
330
1F
100
AcDbEntity
  8
0
  6
Continuous
 62
     7
370
    25
100
AcDbSpline
210
0.0
220
0.0
230
1.0
 70
     8
 71
     3
 72
    14
 73
    10
 74
     0
 42
0.000000001
 43
0.00000001
 40
0.0
 40
0.0
 40
0.0
 40
0.0
 40
0.5000000000000001
 40
0.5000000000000001
 40
0.7500000000000003
 40
0.7500000000000003
 40
0.8750000000000002
 40
0.8750000000000002
 40
1.0
 40
1.0
 40
1.0
 40
1.0
 10
-1.47634188010071
 20
-0.5641530367874801
 30
0.0
 10
-1.457565377374382
 20
-0.5641253024418447
 30
0.0
 10
-1.439005832860524
 20
-0.5631895763835599
 30
0.0
 10
-1.411704694561056
 20
-0.5600034949800715
 30
0.0
 10
-1.402694384926343
 20
-0.558643575890754
 30
0.0
 10
-1.389386055543899
 20
-0.555992860152148
 30
0.0
 10
-1.384978382248585
 20
-0.5550250259798525
 30
0.0
 10
-1.376287131565639
 20
-0.5527431363682437
 30
0.0
 10
-1.371928175204778
 20
-0.551643536427046
 30
0.0
 10
-1.36778661517042
 20
-0.5499551718057439
 30
0.0
  0
SPLINE
  5
153
330
1F
100
AcDbEntity
  8
0
  6
Continuous
 62
     7
370
    25
100
AcDbSpline
210
0.0
220
0.0
230
1.0
 70
     8
 71
     3
 72
    14
 73
    10
 74
     0
 42
0.000000001
 43
0.00000001
 40
0.0
 40
0.0
 40
0.0
 40
0.0
 40
0.1250000000000036
 40
0.1250000000000036
 40
0.2500000000000072
 40
0.2500000000000072
 40
0.5000000000000069
 40
0.5000000000000069
 40
1.0
 40
1.0
 40
1.0
 40
1.0
 10
-1.41276833038171
 20
-0.4235551448594031
 30
0.0
 10
-1.417045407205827
 20
-0.4248627030617036
 30
0.0
 10
-1.421119065279598
 20
-0.426764000115162
 30
0.0
 10
-1.429297951117963
 20
-0.4304856509687723
 30
0.0
 10
-1.433326133258003
 20
-0.4325198671593159
 30
0.0
 10
-1.445317116966112
 20
-0.4388723654545328
 30
0.0
 10
-1.453160894771709
 20
-0.443510275477295
 30
0.0
 10
-1.476337127265329
 20
-0.4582874712382548
 30
0.0
 10
-1.491315369816962
 20
-0.4692867678462168
 30
0.0
 10
-1.50588818805073
 20
-0.4811269871247553
 30
0.0
  0
SPLINE
  5
159
330
1F
100
AcDbEntity
  8
0
  6
Continuous
 62
     7
370
    25
100
AcDbSpline
210
0.0
220
0.0
230
1.0
 70
     8
 71
     3
 72
    14
 73
    10
 74
     0
 42
0.000000001
 43
0.00000001
 40
0.0
 40
0.0
 40
0.0
 40
0.0
 40
0.4999999999999962
 40
0.4999999999999962
 40
0.7499999999999981
 40
0.7499999999999981
 40
0.874999999999999
 40
0.874999999999999
 40
1.0
 40
1.0
 40
1.0
 40
1.0
 10
-1.55326626180455
 20
-0.2990966694449311
 30
0.0
 10
-1.534770200326723
 20
-0.3023298619277279
 30
0.0
 10
-1.51633012987219
 20
-0.3046311827339711
 30
0.0
 10
-1.488890499979187
 20
-0.3062342979800305
 30
0.0
 10
-1.479780929722251
 20
-0.3064596629656836
 30
0.0
 10
-1.466214491809258
 20
-0.3061601847003222
 30
0.0
 10
-1.461705718334988
 20
-0.3059724385392988
 30
0.0
 10
-1.452750261306365
 20
-0.3052344358010076
 30
0.0
 10
-1.448266583761149
 20
-0.3049084660823168
 30
0.0
 10
-1.44389476189006
 20
-0.3039649258659922
 30
0.0
  0
SPLINE
  5
15B
330
1F
100
AcDbEntity
  8
0
  6
Continuous
 62
     7
370
    25
100
AcDbSpline
210
0.0
220
0.0
230
1.0
 70
     8
 71
     3
 72
    14
 73
    10
 74
     0
 42
0.000000001
 43
0.00000001
 40
0.0
 40
0.0
 40
0.0
 40
0.0
 40
0.1249999999999992
 40
0.1249999999999992
 40
0.2499999999999983
 40
0.2499999999999983
 40
0.4999999999999967
 40
0.4999999999999967
 40
1.0
 40
1.0
 40
1.0
 40
1.0
 10
-1.46624396943764
 20
-0.171674206473511
 30
0.0
 10
-1.470683122953347
 20
-0.1722191933324052
 30
0.0
 10
-1.475025049775983
 20
-0.1733842221104804
 30
0.0
 10
-1.483725937849265
 20
-0.1756290841039394
 30
0.0
 10
-1.488046160785793
 20
-0.1769329094917597
 30
0.0
 10
-1.500958074260365
 20
-0.1811066865945458
 30
0.0
 10
-1.50948805207986
 20
-0.1843120786207695
 30
0.0
 10
-1.534878218640121
 20
-0.1948402650362256
 30
0.0
 10
-1.551538915843288
 20
-0.2030715130895311
 30
0.0
 10
-1.56794637272379
 20
-0.2122013095027981
 30
0.0
  0
SPLINE
  5
161
330
1F
100
AcDbEntity
  8
0
  6
Continuous
 62
     7
370
    25
100
AcDbSpline
210
0.0
220
0.0
230
1.0
 70
     8
 71
     3
 72
    14
 73
    10
 74
     0
 42
0.000000001
 43
0.00000001
 40
0.0
 40
0.0
 40
0.0
 40
0.0
 40
0.4999999999999963
 40
0.4999999999999963
 40
0.7499999999999981
 40
0.7499999999999981
 40
0.8749999999999991
 40
0.8749999999999991
 40
1.0
 40
1.0
 40
1.0
 40
1.0
 10
-1.5829954341341
 20
-0.0247093251997108
 30
0.0
 10
-1.565341807373505
 20
-0.0311052055934216
 30
0.0
 10
-1.547581503187776
 20
-0.0365736487960262
 30
0.0
 10
-1.520837120970392
 20
-0.0429172508460913
 30
0.0
 10
-1.511905079773809
 20
-0.0447210523056649
 30
0.0
 10
-1.498492742681339
 20
-0.0467819110091033
 30
0.0
 10
-1.494019865828564
 20
-0.0473799574314489
 30
0.0
 10
-1.485072309484394
 20
-0.0482082654062298
 30
0.0
 10
-1.480600145028266
 20
-0.0486658303349888
 30
0.0
 10
-1.47613089691568
 20
-0.0484957835156717
 30
0.0
  0
SPLINE
  5
163
330
1F
100
AcDbEntity
  8
0
  6
Continuous
 62
     7
370
    25
100
AcDbSpline
210
0.0
220
0.0
230
1.0
 70
     8
 71
     3
 72
    14
 73
    10
 74
     0
 42
0.000000001
 43
0.00000001
 40
0.0
 40
0.0
 40
0.0
 40
0.0
 40
0.125
 40
0.125
 40
0.2500000000000001
 40
0.2500000000000001
 40
0.5
 40
0.5
 40
1.0
 40
1.0
 40
1.0
 40
1.0
 10
-1.47516852743746
 20
0.0856660417565426
 30
0.0
 10
-1.479634876211437
 20
0.0859001853909998
 30
0.0
 10
-1.484113144533626
 20
0.0855068236981848
 30
0.0
 10
-1.493071662760562
 20
0.0848069595605908
 30
0.0
 10
-1.497552658705791
 20
0.0842731410501353
 30
0.0
 10
-1.510993179989647
 20
0.0824049032450184
 30
0.0
 10
-1.519950178763374
 20
0.0807294234300487
 30
0.0
 10
-1.546782812027372
 20
0.0747701399767875
 30
0.0
 10
-1.564619737028483
 20
0.069557042784925
 30
0.0
 10
-1.58236330028079
 20
0.0634150734811641
 30
0.0
  0
SPLINE
  5
169
330
1F
100
AcDbEntity
  8
0
  6
Continuous
 62
     7
370
    25
100
AcDbSpline
210
0.0
220
0.0
230
1.0
 70
     8
 71
     3
 72
    14
 73
    10
 74
     0
 42
0.000000001
 43
0.00000001
 40
0.0
 40
0.0
 40
0.0
 40
0.0
 40
0.5000000000000038
 40
0.5000000000000038
 40
0.7500000000000054
 40
0.7500000000000054
 40
0.8750000000000027
 40
0.8750000000000027
 40
1.0
 40
1.0
 40
1.0
 40
1.0
 10
-1.56462609123184
 20
0.2506718753399861
 30
0.0
 10
-1.548351295703602
 20
0.2413076426246718
 30
0.0
 10
-1.531810395642954
 20
0.2328382329052298
 30
0.0
 10
-1.506573875621665
 20
0.2219468911894356
 30
0.0
 10
-1.498090759037375
 20
0.2186194608505235
 30
0.0
 10
-1.48524004984094
 20
0.2142608833271414
 30
0.0
 10
-1.480938975709462
 20
0.2128952156593465
 30
0.0
 10
-1.472271187021594
 20
0.2105257646901607
 30
0.0
 10
-1.467946420108427
 20
0.2092985679927594
 30
0.0
 10
-1.46351554159679
 20
0.208689954628527
 30
0.0
  0
SPLINE
  5
16B
330
1F
100
AcDbEntity
  8
0
  6
Continuous
 62
     7
370
    25
100
AcDbSpline
210
0.0
220
0.0
230
1.0
 70
     8
 71
     3
 72
    14
 73
    10
 74
     0
 42
0.000000001
 43
0.00000001
 40
0.0
 40
0.0
 40
0.0
 40
0.0
 40
0.1250000000000029
 40
0.1250000000000029
 40
0.2500000000000057
 40
0.2500000000000057
 40
0.5000000000000038
 40
0.5000000000000038
 40
1.0
 40
1.0
 40
1.0
 40
1.0
 10
-1.43927083620239
 20
0.340646446608737
 30
0.0
 10
-1.443628672487201
 20
0.3416526064007009
 30
0.0
 10
-1.448107212392113
 20
0.3420428638891257
 30
0.0
 10
-1.45705116072958
 20
0.3429092626250693
 30
0.0
 10
-1.461556776889211
 20
0.343161670797294
 30
0.0
 10
-1.475117522544407
 20
0.3436557377501793
 30
0.0
 10
-1.484229388397087
 20
0.3435610787528071
 30
0.0
 10
-1.511689192381015
 20
0.34235176807393
 30
0.0
 10
-1.530160379239303
 20
0.3403152190637798
 30
0.0
 10
-1.54870091967322
 20
0.3373476974987811
 30
0.0
  0
SPLINE
  5
171
330
1F
100
AcDbEntity
  8
0
  6
Continuous
 62
     7
370
    25
100
AcDbSpline
210
0.0
220
0.0
230
1.0
 70
     8
 71
     3
 72
    14
 73
    10
 74
     0
 42
0.000000001
 43
0.00000001
 40
0.0
 40
0.0
 40
0.0
 40
0.0
 40
0.5000000000000064
 40
0.5000000000000064
 40
0.7500000000000066
 40
0.7500000000000066
 40
0.8750000000000032
 40
0.8750000000000032
 40
1.0
 40
1.0
 40
1.0
 40
1.0
 10
-1.49871637628649
 20
0.5186796137453702
 30
0.0
 10
-1.484314913418152
 20
0.5066315561809869
 30
0.0
 10
-1.469496004360054
 20
0.4954185186732911
 30
0.0
 10
-1.446534145425308
 20
0.4803103651985236
 30
0.0
 10
-1.438757708658072
 20
0.4755604082673524
 30
0.0
 10
-1.426859089653861
 20
0.4690365450965382
 30
0.0
 10
-1.422860504204742
 20
0.4669447513043136
 30
0.0
 10
-1.414735849546294
 20
0.4631061519094229
 30
0.0
 10
-1.410689886030447
 20
0.4611466111940512
 30
0.0
 10
-1.40643200712107
 20
0.4597778300553541
 30
0.0
  0
SPLINE
  5
173
330
1F
100
AcDbEntity
  8
0
  6
Continuous
 62
     7
370
    25
100
AcDbSpline
210
0.0
220
0.0
230
1.0
 70
     8
 71
     3
 72
    14
 73
    10
 74
     0
 42
0.000000001
 43
0.00000001
 40
0.0
 40
0.0
 40
0.0
 40
0.0
 40
0.1249999999999982
 40
0.1249999999999982
 40
0.2499999999999964
 40
0.2499999999999964
 40
0.5000000000000001
 40
0.5000000000000001
 40
1.0
 40
1.0
 40
1.0
 40
1.0
 10
-1.35964162891549
 20
0.58551955750795
 30
0.0
 10
-1.363758542060827
 20
0.5872671618012641
 30
0.0
 10
-1.36810127537965
 20
0.5884291806946392
 30
0.0
 10
-1.376758896483317
 20
0.5908355172169499
 30
0.0
 10
-1.381152231990275
 20
0.5918664827772627
 30
0.0
 10
-1.394421165622127
 20
0.594707842513804
 30
0.0
 10
-1.403411039120622
 20
0.5961968804997596
 30
0.0
 10
-1.430663661575877
 20
0.599774286888307
 30
0.0
 10
-1.449207872625854
 20
0.6009761655709607
 30
0.0
 10
-1.46798204530186
 20
0.6012732583858732
 30
0.0
  0
SPLINE
  5
179
330
1F
100
AcDbEntity
  8
0
  6
Continuous
 62
     7
370
    25
100
AcDbSpline
210
0.0
220
0.0
230
1.0
 70
     8
 71
     3
 72
    14
 73
    10
 74
     0
 42
0.000000001
 43
0.00000001
 40
0.0
 40
0.0
 40
0.0
 40
0.0
 40
0.4999999999999931
 40
0.4999999999999931
 40
0.7499999999999937
 40
0.7499999999999937
 40
0.8749999999999968
 40
0.8749999999999968
 40
1.0
 40
1.0
 40
1.0
 40
1.0
 10
-1.38726892263476
 20
0.7711706105034553
 30
0.0
 10
-1.375178373587817
 20
0.756804802222493
 30
0.0
 10
-1.362531720585531
 20
0.7431888393971406
 30
0.0
 10
-1.342542207201797
 20
0.7243229277616293
 30
0.0
 10
-1.335708733347705
 20
0.7182947692759604
 30
0.0
 10
-1.325123738053203
 20
0.709803844738923
 30
0.0
 10
-1.32154913628187
 20
0.7070494829181474
 30
0.0
 10
-1.314214479173433
 20
0.7018583689977443
 30
0.0
 10
-1.31057025360888
 20
0.6992260239174667
 30
0.0
 10
-1.30661474779792
 20
0.6971386647265622
 30
0.0
  0
SPLINE
  5
17B
330
1F
100
AcDbEntity
  8
0
  6
Continuous
 62
     7
370
    25
100
AcDbSpline
210
0.0
220
0.0
230
1.0
 70
     8
 71
     3
 72
    14
 73
    10
 74
     0
 42
0.000000001
 43
0.00000001
 40
0.0
 40
0.0
 40
0.0
 40
0.0
 40
0.125
 40
0.125
 40
0.25
 40
0.25
 40
0.5
 40
0.5
 40
1.0
 40
1.0
 40
1.0
 40
1.0
 10
-1.23870039874585
 20
0.8128450288912802
 30
0.0
 10
-1.242451298428978
 20
0.8152809776138137
 30
0.0
 10
-1.246526273407439
 20
0.8171794505560845
 30
0.0
 10
-1.25463450984102
 20
0.8210526095471954
 30
0.0
 10
-1.258782075419072
 20
0.8228308071287411
 30
0.0
 10
-1.271356027193557
 20
0.8279331263711405
 30
0.0
 10
-1.279950755580769
 20
0.8309606176747111
 30
0.0
 10
-1.306168139364426
 20
0.8392160434478193
 30
0.0
 10
-1.324221918136419
 20
0.8436198313477925
 30
0.0
 10
-1.34265927931877
 20
0.8471725115276639
 30
0.0
  0
SPLINE
  5
181
330
1F
100
AcDbEntity
  8
0
  6
Continuous
 62
     7
370
    25
100
AcDbSpline
210
0.0
220
0.0
230
1.0
 70
     8
 71
     3
 72
    14
 73
    10
 74
     0
 42
0.000000001
 43
0.00000001
 40
0.0
 40
0.0
 40
0.0
 40
0.0
 40
0.500000000000004
 40
0.500000000000004
 40
0.7500000000000033
 40
0.7500000000000033
 40
0.8750000000000017
 40
0.8750000000000017
 40
1.0
 40
1.0
 40
1.0
 40
1.0
 10
-1.23367000476073
 20
1.00047305444436
 30
0.0
 10
-1.224257734749622
 20
0.9842259932614582
 30
0.0
 10
-1.214167599955282
 20
0.9686208192594125
 30
0.0
 10
-1.197757803371627
 20
0.9465703806415882
 30
0.0
 10
-1.192074924075796
 20
0.9394471831466198
 30
0.0
 10
-1.183125172216762
 20
0.9292471896887959
 30
0.0
 10
-1.180083166589236
 20
0.9259139497296234
 30
0.0
 10
-1.173761366875483
 20
0.9195280506533405
 30
0.0
 10
-1.170629607211921
 20
0.9163028836813795
 30
0.0
 10
-1.1670966605419
 20
0.9135603697910439
 30
0.0
  0
SPLINE
  5
183
330
1F
100
AcDbEntity
  8
0
  6
Continuous
 62
     7
370
    25
100
AcDbSpline
210
0.0
220
0.0
230
1.0
 70
     8
 71
     3
 72
    14
 73
    10
 74
     0
 42
0.000000001
 43
0.00000001
 40
0.0
 40
0.0
 40
0.0
 40
0.0
 40
0.1250000000000016
 40
0.1250000000000016
 40
0.2500000000000032
 40
0.2500000000000032
 40
0.5000000000000032
 40
0.5000000000000032
 40
1.0
 40
1.0
 40
1.0
 40
1.0
 10
-1.08012188377297
 20
1.01571569134298
 30
0.0
 10
-1.083392800805226
 20
1.01876596942552
 30
0.0
 10
-1.087076201390466
 20
1.02134321227694
 30
0.0
 10
-1.094388688492892
 20
1.026565509760826
 30
0.0
 10
-1.098164462460714
 20
1.029036909729907
 30
0.0
 10
-1.109661379215926
 20
1.03624515708985
 30
0.0
 10
-1.117599816018907
 20
1.040719112919777
 30
0.0
 10
-1.141985359191386
 20
1.053401721142787
 30
0.0
 10
-1.159000150754177
 20
1.060873611392987
 30
0.0
 10
-1.17654049055194
 20
1.06757393254847
 30
0.0
  0
SPLINE
  5
189
330
1F
100
AcDbEntity
  8
0
  6
Continuous
 62
     7
370
    25
100
AcDbSpline
210
0.0
220
0.0
230
1.0
 70
     8
 71
     3
 72
    14
 73
    10
 74
     0
 42
0.000000001
 43
0.00000001
 40
0.0
 40
0.0
 40
0.0
 40
0.0
 40
0.5000000000000016
 40
0.5000000000000016
 40
0.7500000000000023
 40
0.7500000000000023
 40
0.8750000000000011
 40
0.8750000000000011
 40
1.0
 40
1.0
 40
1.0
 40
1.0
 10
-1.04258664805918
 20
1.19961970684156
 30
0.0
 10
-1.036138644145449
 20
1.181985051490298
 30
0.0
 10
-1.028911611198902
 20
1.164864821626078
 30
0.0
 10
-1.016580134780661
 20
1.140299847445283
 30
0.0
 10
-1.012220521454887
 20
1.132298045692395
 30
0.0
 10
-1.00517794671272
 20
1.120698904953536
 30
0.0
 10
-1.002760967030679
 20
1.116888065665436
 30
0.0
 10
-0.9976441093969353
 20
1.109501413745279
 30
0.0
 10
-0.995119972567058
 20
1.105781419948095
 30
0.0
 10
-0.99211693183471
 20
1.10246708125508
 30
0.0
  0
SPLINE
  5
18B
330
1F
100
AcDbEntity
  8
0
  6
Continuous
 62
     7
370
    25
100
AcDbSpline
210
0.0
220
0.0
230
1.0
 70
     8
 71
     3
 72
    14
 73
    10
 74
     0
 42
0.000000001
 43
0.00000001
 40
0.0
 40
0.0
 40
0.0
 40
0.0
 40
0.125000000000002
 40
0.125000000000002
 40
0.250000000000004
 40
0.250000000000004
 40
0.5000000000000027
 40
0.5000000000000027
 40
1.0
 40
1.0
 40
1.0
 40
1.0
 10
-0.8887244119296923
 20
1.18796742244198
 30
0.0
 10
-0.8914159611520439
 20
1.191539348728377
 30
0.0
 10
-0.8945958690813491
 20
1.194717053269175
 30
0.0
 10
-0.9008904206323096
 20
1.201129812379379
 30
0.0
 10
-0.9041796780085233
 20
1.204219322498524
 30
0.0
 10
-0.9142502317465656
 20
1.213314479027568
 30
0.0
 10
-0.9212911715801051
 20
1.219098960499857
 30
0.0
 10
-0.9431039317518006
 20
1.235823396539638
 30
0.0
 10
-0.9585627502725582
 20
1.246136359535988
 30
0.0
 10
-0.9746731143379171
 20
1.25578073579907
 30
0.0
  0
CIRCLE
  5
19D
330
1F
100
AcDbEntity
  8
0
  6
Continuous
 62
     7
370
    25
100
AcDbCircle
 10
0.0
 20
0.008
 30
0.0
 40
0.290354330708661
  0
LINE
  5
1A0
330
1F
100
AcDbEntity
  8
0
  6
Continuous
 62
     7
370
    25
100
AcDbLine
 10
-0.6703234985
 20
1.3243664405
 30
0.0
 11
-0.644717817
 21
1.2741104576
 31
0.0
  0
LINE
  5
1A1
330
1F
100
AcDbEntity
  8
0
  6
Continuous
 62
     7
370
    25
100
AcDbLine
 10
-0.5366629507
 20
1.3235567763
 30
0.0
 11
-0.5579551718
 21
1.3757866152
 31
0.0
  0
LINE
  5
1A2
330
1F
100
AcDbEntity
  8
0
  6
Continuous
 62
     7
370
    25
100
AcDbLine
 10
-0.4315551449
 20
1.4207683304
 30
0.0
 11
-0.415065331
 21
1.3668294688
 31
0.0
  0
LINE
  5
1A3
330
1F
100
AcDbEntity
  8
0
  6
Continuous
 62
     7
370
    25
100
AcDbLine
 10
-0.3000657977
 20
1.3967610562
 30
0.0
 11
-0.3119649259
 21
1.4518947619
 31
0.0
  0
LINE
  5
1A4
330
1F
100
AcDbEntity
  8
0
  6
Continuous
 62
     7
370
    25
100
AcDbLine
 10
-0.1796742065
 20
1.4742439694
 30
0.0
 11
-0.1728012949
 21
1.4182611342
 31
0.0
  0
LINE
  5
1A5
330
1F
100
AcDbEntity
  8
0
  6
Continuous
 62
     7
370
    25
100
AcDbLine
 10
-0.0543512974
 20
1.4277685342
 30
0.0
 11
-0.0564957835
 21
1.4841308969
 31
0.0
  0
LINE
  5
1A6
330
1F
100
AcDbEntity
  8
0
  6
Continuous
 62
     7
370
    25
100
AcDbLine
 10
0.0776660418
 20
1.4831685274
 30
0.0
 11
0.074713221
 21
1.4268427287
 31
0.0
  0
LINE
  5
1A7
330
1F
100
AcDbEntity
  8
0
  6
Continuous
 62
     7
370
    25
100
AcDbLine
 10
0.1930146396
 20
1.4156370637
 30
0.0
 11
0.2006899546
 21
1.4715155416
 31
0.0
  0
LINE
  5
1A8
330
1F
100
AcDbEntity
  8
0
  6
Continuous
 62
     7
370
    25
100
AcDbLine
 10
0.3326464466
 20
1.4472708362
 30
0.0
 11
0.3199576136
 21
1.3923135049
 31
0.0
  0
LINE
  5
1A9
330
1F
100
AcDbEntity
  8
0
  6
Continuous
 62
     7
370
    25
100
AcDbLine
 10
0.4345159245
 20
1.3607352534
 30
0.0
 11
0.4517778301
 21
1.4144320071
 31
0.0
  0
LINE
  5
1AA
330
1F
100
AcDbEntity
  8
0
  6
Continuous
 62
     7
370
    25
100
AcDbLine
 10
0.5775195575
 20
1.3676416289
 30
0.0
 11
0.5554802559
 21
1.3157226157
 31
0.0
  0
LINE
  5
1AB
330
1F
100
AcDbEntity
  8
0
  6
Continuous
 62
     7
370
    25
100
AcDbLine
 10
0.6628146628
 20
1.2647312668
 30
0.0
 11
0.6891386647
 21
1.3146147478
 31
0.0
  0
LINE
  5
1AC
330
1F
100
AcDbEntity
  8
0
  6
Continuous
 62
     7
370
    25
100
AcDbLine
 10
0.8048450289
 20
1.2467003987
 30
0.0
 11
0.7741249118
 21
1.1993972365
 31
0.0
  0
LINE
  5
1AD
330
1F
100
AcDbEntity
  8
0
  6
Continuous
 62
     7
370
    25
100
AcDbLine
 10
0.8709741131
 20
1.1305421367
 30
0.0
 11
0.9055603698
 21
1.1750966605
 31
0.0
  0
LINE
  5
1AE
330
1F
100
AcDbEntity
  8
0
  6
Continuous
 62
     7
370
    25
100
AcDbLine
 10
1.0077156913
 20
1.0881218838
 30
0.0
 11
0.9692481739
 21
1.0468718552
 31
0.0
  0
LINE
  5
1AF
330
1F
100
AcDbEntity
  8
0
  6
Continuous
 62
     7
370
    25
100
AcDbLine
 10
1.0526694556
 20
0.9622451318
 30
0.0
 11
1.0944670813
 21
1.0001169318
 31
0.0
  0
LINE
  5
1B0
330
1F
100
AcDbEntity
  8
0
  6
Continuous
 62
     7
370
    25
100
AcDbLine
 10
1.1799674224
 20
0.8967244119
 30
0.0
 11
1.1349213208
 21
0.8627808783
 31
0.0
  0
LINE
  5
1B1
330
1F
100
AcDbEntity
  8
0
  6
Continuous
 62
     7
370
    25
100
AcDbLine
 10
1.2023799694
 20
0.7649538714
 30
0.0
 11
1.2501189643
 21
0.7949922322
 31
0.0
  0
LINE
  5
1B2
330
1F
100
AcDbEntity
  8
0
  6
Continuous
 62
     7
370
    25
100
AcDbLine
 10
1.3163664405
 20
0.6783234985
 30
0.0
 11
1.2661104576
 21
0.652717817
 31
0.0
  0
LINE
  5
1B3
330
1F
100
AcDbEntity
  8
0
  6
Continuous
 62
     7
370
    25
100
AcDbLine
 10
1.3155567763
 20
0.5446629507
 30
0.0
 11
1.3677866152
 21
0.5659551718
 31
0.0
  0
LINE
  5
1B4
330
1F
100
AcDbEntity
  8
0
  6
Continuous
 62
     7
370
    25
100
AcDbLine
 10
1.4127683304
 20
0.4395551449
 30
0.0
 11
1.3588294688
 21
0.423065331
 31
0.0
  0
LINE
  5
1B5
330
1F
100
AcDbEntity
  8
0
  6
Continuous
 62
     7
370
    25
100
AcDbLine
 10
1.3887610562
 20
0.3080657977
 30
0.0
 11
1.4438947619
 21
0.3199649259
 31
0.0
  0
LINE
  5
1B6
330
1F
100
AcDbEntity
  8
0
  6
Continuous
 62
     7
370
    25
100
AcDbLine
 10
1.4662439694
 20
0.1876742065
 30
0.0
 11
1.4102611342
 21
0.1808012949
 31
0.0
  0
LINE
  5
1B7
330
1F
100
AcDbEntity
  8
0
  6
Continuous
 62
     7
370
    25
100
AcDbLine
 10
1.4197685342
 20
0.0623512974
 30
0.0
 11
1.4761308969
 21
0.0644957835
 31
0.0
  0
LINE
  5
1B8
330
1F
100
AcDbEntity
  8
0
  6
Continuous
 62
     7
370
    25
100
AcDbLine
 10
1.4751685274
 20
-0.0696660418
 30
0.0
 11
1.4188427287
 21
-0.066713221
 31
0.0
  0
LINE
  5
1B9
330
1F
100
AcDbEntity
  8
0
  6
Continuous
 62
     7
370
    25
100
AcDbLine
 10
1.4076370637
 20
-0.1850146396
 30
0.0
 11
1.4635155416
 21
-0.1926899546
 31
0.0
  0
LINE
  5
1BA
330
1F
100
AcDbEntity
  8
0
  6
Continuous
 62
     7
370
    25
100
AcDbLine
 10
1.4392708362
 20
-0.3246464466
 30
0.0
 11
1.3843135049
 21
-0.3119576136
 31
0.0
  0
LINE
  5
1BB
330
1F
100
AcDbEntity
  8
0
  6
Continuous
 62
     7
370
    25
100
AcDbLine
 10
1.3527352534
 20
-0.4265159245
 30
0.0
 11
1.4064320071
 21
-0.4437778301
 31
0.0
  0
LINE
  5
1BC
330
1F
100
AcDbEntity
  8
0
  6
Continuous
 62
     7
370
    25
100
AcDbLine
 10
1.3596416289
 20
-0.5695195575
 30
0.0
 11
1.3077226157
 21
-0.5474802559
 31
0.0
  0
LINE
  5
1BD
330
1F
100
AcDbEntity
  8
0
  6
Continuous
 62
     7
370
    25
100
AcDbLine
 10
1.2567312668
 20
-0.6548146628
 30
0.0
 11
1.3066147478
 21
-0.6811386647
 31
0.0
  0
LINE
  5
1BE
330
1F
100
AcDbEntity
  8
0
  6
Continuous
 62
     7
370
    25
100
AcDbLine
 10
1.2387003987
 20
-0.7968450289
 30
0.0
 11
1.1913972365
 21
-0.7661249118
 31
0.0
  0
LINE
  5
1BF
330
1F
100
AcDbEntity
  8
0
  6
Continuous
 62
     7
370
    25
100
AcDbLine
 10
1.1225421367
 20
-0.8629741131
 30
0.0
 11
1.1670966605
 21
-0.8975603698
 31
0.0
  0
LINE
  5
1C0
330
1F
100
AcDbEntity
  8
0
  6
Continuous
 62
     7
370
    25
100
AcDbLine
 10
1.0801218838
 20
-0.9997156913
 30
0.0
 11
1.0388718552
 21
-0.9612481739
 31
0.0
  0
LINE
  5
1C1
330
1F
100
AcDbEntity
  8
0
  6
Continuous
 62
     7
370
    25
100
AcDbLine
 10
0.9542451318
 20
-1.0446694556
 30
0.0
 11
0.9921169318
 21
-1.0864670813
 31
0.0
  0
LINE
  5
1C2
330
1F
100
AcDbEntity
  8
0
  6
Continuous
 62
     7
370
    25
100
AcDbLine
 10
0.8887244119
 20
-1.1719674224
 30
0.0
 11
0.8547808783
 21
-1.1269213208
 31
0.0
  0
LINE
  5
1C3
330
1F
100
AcDbEntity
  8
0
  6
Continuous
 62
     7
370
    25
100
AcDbLine
 10
0.7569538714
 20
-1.1943799694
 30
0.0
 11
0.7869922322
 21
-1.2421189643
 31
0.0
  0
LINE
  5
1C4
330
1F
100
AcDbEntity
  8
0
  6
Continuous
 62
     7
370
    25
100
AcDbLine
 10
0.6703234985
 20
-1.3083664405
 30
0.0
 11
0.644717817
 21
-1.2581104576
 31
0.0
  0
LINE
  5
1C5
330
1F
100
AcDbEntity
  8
0
  6
Continuous
 62
     7
370
    25
100
AcDbLine
 10
0.5366629507
 20
-1.3075567763
 30
0.0
 11
0.5579551718
 21
-1.3597866152
 31
0.0
  0
LINE
  5
1C6
330
1F
100
AcDbEntity
  8
0
  6
Continuous
 62
     7
370
    25
100
AcDbLine
 10
0.4315551449
 20
-1.4047683304
 30
0.0
 11
0.415065331
 21
-1.3508294688
 31
0.0
  0
LINE
  5
1C7
330
1F
100
AcDbEntity
  8
0
  6
Continuous
 62
     7
370
    25
100
AcDbLine
 10
0.3000657977
 20
-1.3807610562
 30
0.0
 11
0.3119649259
 21
-1.4358947619
 31
0.0
  0
LINE
  5
1C8
330
1F
100
AcDbEntity
  8
0
  6
Continuous
 62
     7
370
    25
100
AcDbLine
 10
0.1796742065
 20
-1.4582439694
 30
0.0
 11
0.1728012949
 21
-1.4022611342
 31
0.0
  0
LINE
  5
1C9
330
1F
100
AcDbEntity
  8
0
  6
Continuous
 62
     7
370
    25
100
AcDbLine
 10
0.0543512974
 20
-1.4117685342
 30
0.0
 11
0.0564957835
 21
-1.4681308969
 31
0.0
  0
LINE
  5
1CA
330
1F
100
AcDbEntity
  8
0
  6
Continuous
 62
     7
370
    25
100
AcDbLine
 10
-0.0776660418
 20
-1.4671685274
 30
0.0
 11
-0.074713221
 21
-1.4108427287
 31
0.0
  0
LINE
  5
1CB
330
1F
100
AcDbEntity
  8
0
  6
Continuous
 62
     7
370
    25
100
AcDbLine
 10
-0.1930146396
 20
-1.3996370637
 30
0.0
 11
-0.2006899546
 21
-1.4555155416
 31
0.0
  0
LINE
  5
1CC
330
1F
100
AcDbEntity
  8
0
  6
Continuous
 62
     7
370
    25
100
AcDbLine
 10
-0.3326464466
 20
-1.4312708362
 30
0.0
 11
-0.3199576136
 21
-1.3763135049
 31
0.0
  0
LINE
  5
1CD
330
1F
100
AcDbEntity
  8
0
  6
Continuous
 62
     7
370
    25
100
AcDbLine
 10
-0.4345159245
 20
-1.3447352534
 30
0.0
 11
-0.4517778301
 21
-1.3984320071
 31
0.0
  0
LINE
  5
1CE
330
1F
100
AcDbEntity
  8
0
  6
Continuous
 62
     7
370
    25
100
AcDbLine
 10
-0.5775195575
 20
-1.3516416289
 30
0.0
 11
-0.5554802559
 21
-1.2997226157
 31
0.0
  0
LINE
  5
1CF
330
1F
100
AcDbEntity
  8
0
  6
Continuous
 62
     7
370
    25
100
AcDbLine
 10
-0.6628146628
 20
-1.2487312668
 30
0.0
 11
-0.6891386647
 21
-1.2986147478
 31
0.0
  0
LINE
  5
1D0
330
1F
100
AcDbEntity
  8
0
  6
Continuous
 62
     7
370
    25
100
AcDbLine
 10
-0.8048450289
 20
-1.2307003987
 30
0.0
 11
-0.7741249118
 21
-1.1833972365
 31
0.0
  0
LINE
  5
1D1
330
1F
100
AcDbEntity
  8
0
  6
Continuous
 62
     7
370
    25
100
AcDbLine
 10
-0.8709741131
 20
-1.1145421367
 30
0.0
 11
-0.9055603698
 21
-1.1590966605
 31
0.0
  0
LINE
  5
1D2
330
1F
100
AcDbEntity
  8
0
  6
Continuous
 62
     7
370
    25
100
AcDbLine
 10
-1.0077156913
 20
-1.0721218838
 30
0.0
 11
-0.9692481739
 21
-1.0308718552
 31
0.0
  0
LINE
  5
1D3
330
1F
100
AcDbEntity
  8
0
  6
Continuous
 62
     7
370
    25
100
AcDbLine
 10
-1.0526694556
 20
-0.9462451318
 30
0.0
 11
-1.0944670813
 21
-0.9841169318
 31
0.0
  0
LINE
  5
1D4
330
1F
100
AcDbEntity
  8
0
  6
Continuous
 62
     7
370
    25
100
AcDbLine
 10
-1.1799674224
 20
-0.8807244119
 30
0.0
 11
-1.1349213208
 21
-0.8467808783
 31
0.0
  0
LINE
  5
1D5
330
1F
100
AcDbEntity
  8
0
  6
Continuous
 62
     7
370
    25
100
AcDbLine
 10
-1.2023799694
 20
-0.7489538714
 30
0.0
 11
-1.2501189643
 21
-0.7789922322
 31
0.0
  0
LINE
  5
1D6
330
1F
100
AcDbEntity
  8
0
  6
Continuous
 62
     7
370
    25
100
AcDbLine
 10
-1.3163664405
 20
-0.6623234985
 30
0.0
 11
-1.2661104576
 21
-0.636717817
 31
0.0
  0
LINE
  5
1D7
330
1F
100
AcDbEntity
  8
0
  6
Continuous
 62
     7
370
    25
100
AcDbLine
 10
-1.3155567763
 20
-0.5286629507
 30
0.0
 11
-1.3677866152
 21
-0.5499551718
 31
0.0
  0
LINE
  5
1D8
330
1F
100
AcDbEntity
  8
0
  6
Continuous
 62
     7
370
    25
100
AcDbLine
 10
-1.4127683304
 20
-0.4235551449
 30
0.0
 11
-1.3588294688
 21
-0.407065331
 31
0.0
  0
LINE
  5
1D9
330
1F
100
AcDbEntity
  8
0
  6
Continuous
 62
     7
370
    25
100
AcDbLine
 10
-1.3887610562
 20
-0.2920657977
 30
0.0
 11
-1.4438947619
 21
-0.3039649259
 31
0.0
  0
LINE
  5
1DA
330
1F
100
AcDbEntity
  8
0
  6
Continuous
 62
     7
370
    25
100
AcDbLine
 10
-1.4662439694
 20
-0.1716742065
 30
0.0
 11
-1.4102611342
 21
-0.1648012949
 31
0.0
  0
LINE
  5
1DB
330
1F
100
AcDbEntity
  8
0
  6
Continuous
 62
     7
370
    25
100
AcDbLine
 10
-1.4197685342
 20
-0.0463512974
 30
0.0
 11
-1.4761308969
 21
-0.0484957835
 31
0.0
  0
LINE
  5
1DC
330
1F
100
AcDbEntity
  8
0
  6
Continuous
 62
     7
370
    25
100
AcDbLine
 10
-1.4751685274
 20
0.0856660418
 30
0.0
 11
-1.4188427287
 21
0.082713221
 31
0.0
  0
LINE
  5
1DD
330
1F
100
AcDbEntity
  8
0
  6
Continuous
 62
     7
370
    25
100
AcDbLine
 10
-1.4076370637
 20
0.2010146396
 30
0.0
 11
-1.4635155416
 21
0.2086899546
 31
0.0
  0
LINE
  5
1DE
330
1F
100
AcDbEntity
  8
0
  6
Continuous
 62
     7
370
    25
100
AcDbLine
 10
-1.4392708362
 20
0.3406464466
 30
0.0
 11
-1.3843135049
 21
0.3279576136
 31
0.0
  0
LINE
  5
1DF
330
1F
100
AcDbEntity
  8
0
  6
Continuous
 62
     7
370
    25
100
AcDbLine
 10
-1.3527352534
 20
0.4425159245
 30
0.0
 11
-1.4064320071
 21
0.4597778301
 31
0.0
  0
LINE
  5
1E0
330
1F
100
AcDbEntity
  8
0
  6
Continuous
 62
     7
370
    25
100
AcDbLine
 10
-1.3596416289
 20
0.5855195575
 30
0.0
 11
-1.3077226157
 21
0.5634802559
 31
0.0
  0
LINE
  5
1E1
330
1F
100
AcDbEntity
  8
0
  6
Continuous
 62
     7
370
    25
100
AcDbLine
 10
-1.2567312668
 20
0.6708146628
 30
0.0
 11
-1.3066147478
 21
0.6971386647
 31
0.0
  0
LINE
  5
1E2
330
1F
100
AcDbEntity
  8
0
  6
Continuous
 62
     7
370
    25
100
AcDbLine
 10
-1.2387003987
 20
0.8128450289
 30
0.0
 11
-1.1913972365
 21
0.7821249118
 31
0.0
  0
LINE
  5
1E3
330
1F
100
AcDbEntity
  8
0
  6
Continuous
 62
     7
370
    25
100
AcDbLine
 10
-1.1225421367
 20
0.8789741131
 30
0.0
 11
-1.1670966605
 21
0.9135603698
 31
0.0
  0
LINE
  5
1E4
330
1F
100
AcDbEntity
  8
0
  6
Continuous
 62
     7
370
    25
100
AcDbLine
 10
-1.0801218838
 20
1.0157156913
 30
0.0
 11
-1.0388718552
 21
0.9772481739
 31
0.0
  0
LINE
  5
1E5
330
1F
100
AcDbEntity
  8
0
  6
Continuous
 62
     7
370
    25
100
AcDbLine
 10
-0.9542451318
 20
1.0606694556
 30
0.0
 11
-0.9921169318
 21
1.1024670813
 31
0.0
  0
LINE
  5
1E6
330
1F
100
AcDbEntity
  8
0
  6
Continuous
 62
     7
370
    25
100
AcDbLine
 10
-0.8887244119
 20
1.1879674224
 30
0.0
 11
-0.8547808783
 21
1.1429213208
 31
0.0
  0
LINE
  5
1E7
330
1F
100
AcDbEntity
  8
0
  6
Continuous
 62
     7
370
    25
100
AcDbLine
 10
-0.7569538714
 20
1.2103799694
 30
0.0
 11
-0.7869922322
 21
1.2581189643
 31
0.0
  0
LINE
  5
1E8
330
1F
100
AcDbEntity
  8
0
  6
Continuous
 62
     7
370
    25
100
AcDbLine
 10
0.5
 20
0.8740254038
 30
0.0
 11
0.4375
 21
0.7657722283
 31
0.0
  0
LINE
  5
1E9
330
1F
100
AcDbEntity
  8
0
  6
Continuous
 62
     7
370
    25
100
AcDbLine
 10
-0.4375
 20
0.7657722283
 30
0.0
 11
-0.5
 21
0.8740254038
 31
0.0
  0
LINE
  5
1EA
330
1F
100
AcDbEntity
  8
0
  6
Continuous
 62
     7
370
    25
100
AcDbLine
 10
-1.0
 20
0.008
 30
0.0
 11
-0.875
 21
0.008
 31
0.0
  0
LINE
  5
1EB
330
1F
100
AcDbEntity
  8
0
  6
Continuous
 62
     7
370
    25
100
AcDbLine
 10
-0.4375
 20
-0.7497722283
 30
0.0
 11
-0.5
 21
-0.8580254038
 31
0.0
  0
LINE
  5
1EC
330
1F
100
AcDbEntity
  8
0
  6
Continuous
 62
     7
370
    25
100
AcDbLine
 10
0.4375
 20
-0.7497722283
 30
0.0
 11
0.5
 21
-0.8580254038
 31
0.0
  0
LINE
  5
1ED
330
1F
100
AcDbEntity
  8
0
  6
Continuous
 62
     7
370
    25
100
AcDbLine
 10
1.0
 20
0.008
 30
0.0
 11
0.875
 21
0.008
 31
0.0
  0
ARC
  5
1EE
330
1F
100
AcDbEntity
  8
0
  6
Continuous
 62
     7
370
    25
100
AcDbCircle
 10
0.0
 20
0.008
 30
0.0
 40
1.583333333331858
100
AcDbArc
 50
117.9942957527
 51
121.1837302824
  0
ARC
  5
1EF
330
1F
100
AcDbEntity
  8
0
  6
Continuous
 62
     7
370
    25
100
AcDbCircle
 10
-0.6242244985
 20
1.2845519086
 30
0.0
 40
0.0229999999999969
100
AcDbArc
 50
206.9990761571
 51
296.058293273
  0
ARC
  5
1F0
330
1F
100
AcDbEntity
  8
0
  6
Continuous
 62
     7
370
    25
100
AcDbCircle
 10
0.0
 20
0.008
 30
0.0
 40
1.398000000003019
100
AcDbArc
 50
113.1197327621
 51
116.058293273
  0
ARC
  5
1F1
330
1F
100
AcDbEntity
  8
0
  6
Continuous
 62
     7
370
    25
100
AcDbCircle
 10
-0.5579611655
 20
1.3148742624
 30
0.0
 40
0.022999999999997
100
AcDbArc
 50
293.1197327621
 51
22.178949878
  0
ARC
  5
1F2
330
1F
100
AcDbEntity
  8
0
  6
Continuous
 62
     7
370
    25
100
AcDbCircle
 10
0.0
 20
0.008
 30
0.0
 40
1.583333333329476
100
AcDbArc
 50
107.9942957527
 51
111.1837302824
  0
ARC
  5
1F3
330
1F
100
AcDbEntity
  8
0
  6
Continuous
 62
     7
370
    25
100
AcDbCircle
 10
-0.3930702131
 20
1.3735536634
 30
0.0
 40
0.0229999999999973
100
AcDbArc
 50
196.9990761571
 51
286.058293273
  0
ARC
  5
1F4
330
1F
100
AcDbEntity
  8
0
  6
Continuous
 62
     7
370
    25
100
AcDbCircle
 10
0.0
 20
0.008
 30
0.0
 40
1.397999999992557
100
AcDbArc
 50
103.1197327621
 51
106.058293273
  0
ARC
  5
1F5
330
1F
100
AcDbEntity
  8
0
  6
Continuous
 62
     7
370
    25
100
AcDbCircle
 10
-0.3225481475
 20
1.3919088455
 30
0.0
 40
0.022999999999997
100
AcDbArc
 50
283.1197327621
 51
12.178949878
  0
ARC
  5
1F6
330
1F
100
AcDbEntity
  8
0
  6
Continuous
 62
     7
370
    25
100
AcDbCircle
 10
0.0
 20
0.008
 30
0.0
 40
1.583333333349104
100
AcDbArc
 50
97.9942957527
 51
101.1837302823
  0
ARC
  5
1F7
330
1F
100
AcDbEntity
  8
0
  6
Continuous
 62
     7
370
    25
100
AcDbCircle
 10
-0.1499726882
 20
1.421063761
 30
0.0
 40
0.0229999999999972
100
AcDbArc
 50
186.9990761571
 51
276.058293273
  0
ARC
  5
1F8
330
1F
100
AcDbEntity
  8
0
  6
Continuous
 62
     7
370
    25
100
AcDbCircle
 10
0.0
 20
0.008
 30
0.0
 40
1.398000000001665
100
AcDbArc
 50
93.1197327621
 51
96.058293273
  0
ARC
  5
1F9
330
1F
100
AcDbEntity
  8
0
  6
Continuous
 62
     7
370
    25
100
AcDbCircle
 10
-0.0773346673
 20
1.4268940585
 30
0.0
 40
0.0229999999999964
100
AcDbArc
 50
273.1197327621
 51
2.178949878
  0
ARC
  5
1FA
330
1F
100
AcDbEntity
  8
0
  6
Continuous
 62
     7
370
    25
100
AcDbCircle
 10
0.0
 20
0.008
 30
0.0
 40
1.583333333336598
100
AcDbArc
 50
87.9942957527
 51
91.1837302824
  0
ARC
  5
1FB
330
1F
100
AcDbEntity
  8
0
  6
Continuous
 62
     7
370
    25
100
AcDbCircle
 10
0.0976816809
 20
1.4256386314
 30
0.0
 40
0.0229999999999971
100
AcDbArc
 50
176.9990761571
 51
266.058293273
  0
ARC
  5
1FC
330
1F
100
AcDbEntity
  8
0
  6
Continuous
 62
     7
370
    25
100
AcDbCircle
 10
0.0
 20
0.008
 30
0.0
 40
1.398000000008002
100
AcDbArc
 50
83.1197327621
 51
86.058293273
  0
ARC
  5
1FD
330
1F
100
AcDbEntity
  8
0
  6
Continuous
 62
     7
370
    25
100
AcDbCircle
 10
0.1702285876
 20
1.4187668936
 30
0.0
 40
0.0229999999999972
100
AcDbArc
 50
263.1197327621
 51
352.178949878
  0
ARC
  5
1FE
330
1F
100
AcDbEntity
  8
0
  6
Continuous
 62
     7
370
    25
100
AcDbCircle
 10
0.0
 20
0.008
 30
0.0
 40
1.583333333322148
100
AcDbArc
 50
77.9942957527
 51
81.1837302824
  0
ARC
  5
1FF
330
1F
100
AcDbEntity
  8
0
  6
Continuous
 62
     7
370
    25
100
AcDbCircle
 10
0.3423680416
 20
1.3871392693
 30
0.0
 40
0.0229999999999966
100
AcDbArc
 50
166.9990761571
 51
256.058293273
  0
ARC
  5
200
330
1F
100
AcDbEntity
  8
0
  6
Continuous
 62
     7
370
    25
100
AcDbCircle
 10
0.0
 20
0.008
 30
0.0
 40
1.398000000003838
100
AcDbArc
 50
73.1197327621
 51
76.058293273
  0
ARC
  5
201
330
1F
100
AcDbEntity
  8
0
  6
Continuous
 62
     7
370
    25
100
AcDbCircle
 10
0.412619533
 20
1.3677742904
 30
0.0
 40
0.0229999999999973
100
AcDbArc
 50
253.1197327621
 51
342.178949878
  0
ARC
  5
202
330
1F
100
AcDbEntity
  8
0
  6
Continuous
 62
     7
370
    25
100
AcDbCircle
 10
0.0
 20
0.008
 30
0.0
 40
1.583333333338739
100
AcDbArc
 50
67.9942957527
 51
71.1837302824
  0
ARC
  5
203
330
1F
100
AcDbEntity
  8
0
  6
Continuous
 62
     7
370
    25
100
AcDbCircle
 10
0.5766517226
 20
1.3067354584
 30
0.0
 40
0.0229999999999975
100
AcDbArc
 50
156.9990761571
 51
246.058293273
  0
ARC
  5
204
330
1F
100
AcDbEntity
  8
0
  6
Continuous
 62
     7
370
    25
100
AcDbCircle
 10
0.0
 20
0.008
 30
0.0
 40
1.39800000000112
100
AcDbArc
 50
63.1197327621
 51
66.058293273
  0
ARC
  5
205
330
1F
100
AcDbEntity
  8
0
  6
Continuous
 62
     7
370
    25
100
AcDbCircle
 10
0.6424732428
 20
1.2754656336
 30
0.0
 40
0.0229999999999971
100
AcDbArc
 50
243.1197327621
 51
332.178949878
  0
ARC
  5
206
330
1F
100
AcDbEntity
  8
0
  6
Continuous
 62
     7
370
    25
100
AcDbCircle
 10
0.0
 20
0.008
 30
0.0
 40
1.583333333324906
100
AcDbArc
 50
57.9942957527
 51
61.1837302824
  0
ARC
  5
207
330
1F
100
AcDbEntity
  8
0
  6
Continuous
 62
     7
370
    25
100
AcDbCircle
 10
0.7934141329
 20
1.1868702277
 30
0.0
 40
0.0229999999999972
100
AcDbArc
 50
146.9990761571
 51
236.058293273
  0
ARC
  5
208
330
1F
100
AcDbEntity
  8
0
  6
Continuous
 62
     7
370
    25
100
AcDbCircle
 10
0.0
 20
0.008
 30
0.0
 40
1.397999999993013
100
AcDbArc
 50
53.1197327621
 51
56.058293273
  0
ARC
  5
209
330
1F
100
AcDbEntity
  8
0
  6
Continuous
 62
     7
370
    25
100
AcDbCircle
 10
0.8528057281
 20
1.1446456748
 30
0.0
 40
0.0229999999999973
100
AcDbArc
 50
233.1197327621
 51
322.178949878
  0
ARC
  5
20A
330
1F
100
AcDbEntity
  8
0
  6
Continuous
 62
     7
370
    25
100
AcDbCircle
 10
0.0
 20
0.008
 30
0.0
 40
1.583333333323888
100
AcDbArc
 50
47.9942957527
 51
51.1837302824
  0
ARC
  5
20B
330
1F
100
AcDbEntity
  8
0
  6
Continuous
 62
     7
370
    25
100
AcDbCircle
 10
0.9860690561
 20
1.0311856217
 30
0.0
 40
0.0229999999999967
100
AcDbArc
 50
136.9990761571
 51
226.058293273
  0
ARC
  5
20C
330
1F
100
AcDbEntity
  8
0
  6
Continuous
 62
     7
370
    25
100
AcDbCircle
 10
0.0
 20
0.008
 30
0.0
 40
1.398000000002238
100
AcDbArc
 50
43.1197327621
 51
46.058293273
  0
ARC
  5
20D
330
1F
100
AcDbEntity
  8
0
  6
Continuous
 62
     7
370
    25
100
AcDbCircle
 10
1.0372261429
 20
0.9792893124
 30
0.0
 40
0.0229999999999968
100
AcDbArc
 50
223.1197327621
 51
312.178949878
  0
ARC
  5
20E
330
1F
100
AcDbEntity
  8
0
  6
Continuous
 62
     7
370
    25
100
AcDbCircle
 10
0.0
 20
0.008
 30
0.0
 40
1.58333333332071
100
AcDbArc
 50
37.9942957527
 51
41.1837302824
  0
ARC
  5
20F
330
1F
100
AcDbEntity
  8
0
  6
Continuous
 62
     7
370
    25
100
AcDbCircle
 10
1.1487627701
 20
0.8444120384
 30
0.0
 40
0.0229999999999973
100
AcDbArc
 50
126.9990761571
 51
216.058293273
  0
ARC
  5
210
330
1F
100
AcDbEntity
  8
0
  6
Continuous
 62
     7
370
    25
100
AcDbCircle
 10
0.0
 20
0.008
 30
0.0
 40
1.397999999993194
100
AcDbArc
 50
33.1197327621
 51
36.058293273
  0
ARC
  5
211
330
1F
100
AcDbEntity
  8
0
  6
Continuous
 62
     7
370
    25
100
AcDbCircle
 10
1.1901309663
 20
0.7844208157
 30
0.0
 40
0.0229999999999972
100
AcDbArc
 50
213.1197327621
 51
302.178949878
  0
ARC
  5
212
330
1F
100
AcDbEntity
  8
0
  6
Continuous
 62
     7
370
    25
100
AcDbCircle
 10
0.0
 20
0.008
 30
0.0
 40
1.583333333345501
100
AcDbArc
 50
27.9942957527
 51
31.1837302823
  0
ARC
  5
213
330
1F
100
AcDbEntity
  8
0
  6
Continuous
 62
     7
370
    25
100
AcDbCircle
 10
1.2765519086
 20
0.6322244985
 30
0.0
 40
0.0229999999999972
100
AcDbArc
 50
116.9990761571
 51
206.058293273
  0
ARC
  5
214
330
1F
100
AcDbEntity
  8
0
  6
Continuous
 62
     7
370
    25
100
AcDbCircle
 10
0.0
 20
0.008
 30
0.0
 40
1.398000000003587
100
AcDbArc
 50
23.1197327621
 51
26.058293273
  0
ARC
  5
215
330
1F
100
AcDbEntity
  8
0
  6
Continuous
 62
     7
370
    25
100
AcDbCircle
 10
1.3068742624
 20
0.5659611655
 30
0.0
 40
0.0229999999999964
100
AcDbArc
 50
203.1197327621
 51
292.178949878
  0
ARC
  5
216
330
1F
100
AcDbEntity
  8
0
  6
Continuous
 62
     7
370
    25
100
AcDbCircle
 10
0.0
 20
0.008
 30
0.0
 40
1.583333333331896
100
AcDbArc
 50
17.9942957527
 51
21.1837302824
  0
ARC
  5
217
330
1F
100
AcDbEntity
  8
0
  6
Continuous
 62
     7
370
    25
100
AcDbCircle
 10
1.3655536634
 20
0.4010702131
 30
0.0
 40
0.0229999999999969
100
AcDbArc
 50
106.9990761571
 51
196.058293273
  0
ARC
  5
218
330
1F
100
AcDbEntity
  8
0
  6
Continuous
 62
     7
370
    25
100
AcDbCircle
 10
0.0
 20
0.008
 30
0.0
 40
1.397999999992974
100
AcDbArc
 50
13.1197327621
 51
16.058293273
  0
ARC
  5
219
330
1F
100
AcDbEntity
  8
0
  6
Continuous
 62
     7
370
    25
100
AcDbCircle
 10
1.3839088455
 20
0.3305481475
 30
0.0
 40
0.0229999999999963
100
AcDbArc
 50
193.1197327621
 51
282.178949878
  0
ARC
  5
21A
330
1F
100
AcDbEntity
  8
0
  6
Continuous
 62
     7
370
    25
100
AcDbCircle
 10
0.0
 20
0.008
 30
0.0
 40
1.583333333330118
100
AcDbArc
 50
7.9942957527
 51
11.1837302824
  0
ARC
  5
21B
330
1F
100
AcDbEntity
  8
0
  6
Continuous
 62
     7
370
    25
100
AcDbCircle
 10
1.413063761
 20
0.1579726882
 30
0.0
 40
0.0229999999999973
100
AcDbArc
 50
96.9990761571
 51
186.058293273
  0
ARC
  5
21C
330
1F
100
AcDbEntity
  8
0
  6
Continuous
 62
     7
370
    25
100
AcDbCircle
 10
0.0
 20
0.008
 30
0.0
 40
1.398000000001763
100
AcDbArc
 50
3.1197327621
 51
6.058293273
  0
ARC
  5
21D
330
1F
100
AcDbEntity
  8
0
  6
Continuous
 62
     7
370
    25
100
AcDbCircle
 10
1.4188940585
 20
0.0853346673
 30
0.0
 40
0.0229999999999966
100
AcDbArc
 50
183.1197327621
 51
272.178949878
  0
ARC
  5
21E
330
1F
100
AcDbEntity
  8
0
  6
Continuous
 62
     7
370
    25
100
AcDbCircle
 10
0.0
 20
0.008
 30
0.0
 40
1.583333333335686
100
AcDbArc
 50
357.9942957527
 51
1.1837302824
  0
ARC
  5
21F
330
1F
100
AcDbEntity
  8
0
  6
Continuous
 62
     7
370
    25
100
AcDbCircle
 10
1.4176386314
 20
-0.0896816809
 30
0.0
 40
0.0229999999999969
100
AcDbArc
 50
86.9990761571
 51
176.058293273
  0
ARC
  5
220
330
1F
100
AcDbEntity
  8
0
  6
Continuous
 62
     7
370
    25
100
AcDbCircle
 10
0.0
 20
0.008
 30
0.0
 40
1.397999999992124
100
AcDbArc
 50
353.1197327621
 51
356.058293273
  0
ARC
  5
221
330
1F
100
AcDbEntity
  8
0
  6
Continuous
 62
     7
370
    25
100
AcDbCircle
 10
1.4107668936
 20
-0.1622285876
 30
0.0
 40
0.0229999999999971
100
AcDbArc
 50
173.1197327621
 51
262.178949878
  0
ARC
  5
222
330
1F
100
AcDbEntity
  8
0
  6
Continuous
 62
     7
370
    25
100
AcDbCircle
 10
0.0
 20
0.008
 30
0.0
 40
1.583333333333941
100
AcDbArc
 50
347.9942957527
 51
351.1837302824
  0
ARC
  5
223
330
1F
100
AcDbEntity
  8
0
  6
Continuous
 62
     7
370
    25
100
AcDbCircle
 10
1.3791392693
 20
-0.3343680416
 30
0.0
 40
0.0229999999999976
100
AcDbArc
 50
76.9990761571
 51
166.058293273
  0
ARC
  5
224
330
1F
100
AcDbEntity
  8
0
  6
Continuous
 62
     7
370
    25
100
AcDbCircle
 10
0.0
 20
0.008
 30
0.0
 40
1.39800000000319
100
AcDbArc
 50
343.1197327621
 51
346.058293273
  0
ARC
  5
225
330
1F
100
AcDbEntity
  8
0
  6
Continuous
 62
     7
370
    25
100
AcDbCircle
 10
1.3597742904
 20
-0.404619533
 30
0.0
 40
0.0229999999999969
100
AcDbArc
 50
163.1197327621
 51
252.178949878
  0
ARC
  5
226
330
1F
100
AcDbEntity
  8
0
  6
Continuous
 62
     7
370
    25
100
AcDbCircle
 10
0.0
 20
0.008
 30
0.0
 40
1.583333333330616
100
AcDbArc
 50
337.9942957527
 51
341.1837302824
  0
ARC
  5
227
330
1F
100
AcDbEntity
  8
0
  6
Continuous
 62
     7
370
    25
100
AcDbCircle
 10
1.2987354584
 20
-0.5686517226
 30
0.0
 40
0.0229999999999966
100
AcDbArc
 50
66.9990761571
 51
156.058293273
  0
ARC
  5
228
330
1F
100
AcDbEntity
  8
0
  6
Continuous
 62
     7
370
    25
100
AcDbCircle
 10
0.0
 20
0.008
 30
0.0
 40
1.398000000000082
100
AcDbArc
 50
333.1197327621
 51
336.058293273
  0
ARC
  5
229
330
1F
100
AcDbEntity
  8
0
  6
Continuous
 62
     7
370
    25
100
AcDbCircle
 10
1.2674656336
 20
-0.6344732428
 30
0.0
 40
0.0229999999999969
100
AcDbArc
 50
153.1197327621
 51
242.178949878
  0
ARC
  5
22A
330
1F
100
AcDbEntity
  8
0
  6
Continuous
 62
     7
370
    25
100
AcDbCircle
 10
0.0
 20
0.008
 30
0.0
 40
1.58333333334266
100
AcDbArc
 50
327.9942957527
 51
331.1837302823
  0
ARC
  5
22B
330
1F
100
AcDbEntity
  8
0
  6
Continuous
 62
     7
370
    25
100
AcDbCircle
 10
1.1788702277
 20
-0.7854141329
 30
0.0
 40
0.0229999999999963
100
AcDbArc
 50
56.9990761571
 51
146.058293273
  0
ARC
  5
22C
330
1F
100
AcDbEntity
  8
0
  6
Continuous
 62
     7
370
    25
100
AcDbCircle
 10
0.0
 20
0.008
 30
0.0
 40
1.397999999998933
100
AcDbArc
 50
323.1197327621
 51
326.058293273
  0
ARC
  5
22D
330
1F
100
AcDbEntity
  8
0
  6
Continuous
 62
     7
370
    25
100
AcDbCircle
 10
0.0
 20
0.008
 30
0.0
 40
1.583333333332529
100
AcDbArc
 50
317.9942957527
 51
321.1837302824
  0
ARC
  5
22E
330
1F
100
AcDbEntity
  8
0
  6
Continuous
 62
     7
370
    25
100
AcDbCircle
 10
1.0231856217
 20
-0.9780690561
 30
0.0
 40
0.0229999999999971
100
AcDbArc
 50
46.9990761571
 51
136.058293273
  0
ARC
  5
22F
330
1F
100
AcDbEntity
  8
0
  6
Continuous
 62
     7
370
    25
100
AcDbCircle
 10
0.0
 20
0.008
 30
0.0
 40
1.398000000000169
100
AcDbArc
 50
313.1197327621
 51
316.058293273
  0
ARC
  5
230
330
1F
100
AcDbEntity
  8
0
  6
Continuous
 62
     7
370
    25
100
AcDbCircle
 10
0.9712893124
 20
-1.0292261429
 30
0.0
 40
0.0229999999999966
100
AcDbArc
 50
133.1197327621
 51
222.178949878
  0
ARC
  5
231
330
1F
100
AcDbEntity
  8
0
  6
Continuous
 62
     7
370
    25
100
AcDbCircle
 10
0.0
 20
0.008
 30
0.0
 40
1.583333333331351
100
AcDbArc
 50
307.9942957527
 51
311.1837302824
  0
ARC
  5
232
330
1F
100
AcDbEntity
  8
0
  6
Continuous
 62
     7
370
    25
100
AcDbCircle
 10
0.8364120384
 20
-1.1407627701
 30
0.0
 40
0.0229999999999974
100
AcDbArc
 50
36.9990761571
 51
126.058293273
  0
ARC
  5
233
330
1F
100
AcDbEntity
  8
0
  6
Continuous
 62
     7
370
    25
100
AcDbCircle
 10
0.0
 20
0.008
 30
0.0
 40
1.397999999994144
100
AcDbArc
 50
303.1197327621
 51
306.058293273
  0
ARC
  5
234
330
1F
100
AcDbEntity
  8
0
  6
Continuous
 62
     7
370
    25
100
AcDbCircle
 10
0.7764208157
 20
-1.1821309663
 30
0.0
 40
0.022999999999997
100
AcDbArc
 50
123.1197327621
 51
212.178949878
  0
ARC
  5
235
330
1F
100
AcDbEntity
  8
0
  6
Continuous
 62
     7
370
    25
100
AcDbCircle
 10
0.0
 20
0.008
 30
0.0
 40
1.583333333348137
100
AcDbArc
 50
297.9942957527
 51
301.1837302823
  0
ARC
  5
236
330
1F
100
AcDbEntity
  8
0
  6
Continuous
 62
     7
370
    25
100
AcDbCircle
 10
0.6242244985
 20
-1.2685519086
 30
0.0
 40
0.0229999999999961
100
AcDbArc
 50
26.9990761571
 51
116.058293273
  0
ARC
  5
237
330
1F
100
AcDbEntity
  8
0
  6
Continuous
 62
     7
370
    25
100
AcDbCircle
 10
0.0
 20
0.008
 30
0.0
 40
1.398000000003818
100
AcDbArc
 50
293.1197327621
 51
296.058293273
  0
ARC
  5
238
330
1F
100
AcDbEntity
  8
0
  6
Continuous
 62
     7
370
    25
100
AcDbCircle
 10
0.5579611655
 20
-1.2988742624
 30
0.0
 40
0.0229999999999972
100
AcDbArc
 50
113.1197327621
 51
202.178949878
  0
ARC
  5
239
330
1F
100
AcDbEntity
  8
0
  6
Continuous
 62
     7
370
    25
100
AcDbCircle
 10
0.0
 20
0.008
 30
0.0
 40
1.583333333336263
100
AcDbArc
 50
287.9942957527
 51
291.1837302824
  0
ARC
  5
23A
330
1F
100
AcDbEntity
  8
0
  6
Continuous
 62
     7
370
    25
100
AcDbCircle
 10
0.3930702131
 20
-1.3575536634
 30
0.0
 40
0.0229999999999964
100
AcDbArc
 50
16.9990761571
 51
106.058293273
  0
ARC
  5
23B
330
1F
100
AcDbEntity
  8
0
  6
Continuous
 62
     7
370
    25
100
AcDbCircle
 10
0.0
 20
0.008
 30
0.0
 40
1.397999999992644
100
AcDbArc
 50
283.1197327621
 51
286.058293273
  0
ARC
  5
23C
330
1F
100
AcDbEntity
  8
0
  6
Continuous
 62
     7
370
    25
100
AcDbCircle
 10
0.3225481475
 20
-1.3759088455
 30
0.0
 40
0.0229999999999962
100
AcDbArc
 50
103.1197327621
 51
192.178949878
  0
ARC
  5
23D
330
1F
100
AcDbEntity
  8
0
  6
Continuous
 62
     7
370
    25
100
AcDbCircle
 10
0.0
 20
0.008
 30
0.0
 40
1.583333333328631
100
AcDbArc
 50
277.9942957527
 51
281.1837302824
  0
ARC
  5
23E
330
1F
100
AcDbEntity
  8
0
  6
Continuous
 62
     7
370
    25
100
AcDbCircle
 10
0.1499726882
 20
-1.405063761
 30
0.0
 40
0.0229999999999973
100
AcDbArc
 50
6.9990761571
 51
96.058293273
  0
ARC
  5
23F
330
1F
100
AcDbEntity
  8
0
  6
Continuous
 62
     7
370
    25
100
AcDbCircle
 10
0.0
 20
0.008
 30
0.0
 40
1.39800000000854
100
AcDbArc
 50
273.1197327621
 51
276.058293273
  0
ARC
  5
240
330
1F
100
AcDbEntity
  8
0
  6
Continuous
 62
     7
370
    25
100
AcDbCircle
 10
0.0773346673
 20
-1.4108940585
 30
0.0
 40
0.0229999999999976
100
AcDbArc
 50
93.1197327621
 51
182.178949878
  0
ARC
  5
241
330
1F
100
AcDbEntity
  8
0
  6
Continuous
 62
     7
370
    25
100
AcDbCircle
 10
0.0
 20
0.008
 30
0.0
 40
1.583333333335881
100
AcDbArc
 50
267.9942957527
 51
271.1837302824
  0
ARC
  5
242
330
1F
100
AcDbEntity
  8
0
  6
Continuous
 62
     7
370
    25
100
AcDbCircle
 10
-0.0976816809
 20
-1.4096386314
 30
0.0
 40
0.0229999999999975
100
AcDbArc
 50
356.9990761571
 51
86.058293273
  0
ARC
  5
243
330
1F
100
AcDbEntity
  8
0
  6
Continuous
 62
     7
370
    25
100
AcDbCircle
 10
0.0
 20
0.008
 30
0.0
 40
1.397999999992702
100
AcDbArc
 50
263.1197327621
 51
266.058293273
  0
ARC
  5
244
330
1F
100
AcDbEntity
  8
0
  6
Continuous
 62
     7
370
    25
100
AcDbCircle
 10
-0.1702285876
 20
-1.4027668936
 30
0.0
 40
0.0229999999999975
100
AcDbArc
 50
83.1197327621
 51
172.178949878
  0
ARC
  5
245
330
1F
100
AcDbEntity
  8
0
  6
Continuous
 62
     7
370
    25
100
AcDbCircle
 10
0.0
 20
0.008
 30
0.0
 40
1.583333333337533
100
AcDbArc
 50
257.9942957527
 51
261.1837302824
  0
ARC
  5
246
330
1F
100
AcDbEntity
  8
0
  6
Continuous
 62
     7
370
    25
100
AcDbCircle
 10
-0.3423680416
 20
-1.3711392693
 30
0.0
 40
0.022999999999997
100
AcDbArc
 50
346.9990761571
 51
76.058293273
  0
ARC
  5
247
330
1F
100
AcDbEntity
  8
0
  6
Continuous
 62
     7
370
    25
100
AcDbCircle
 10
0.0
 20
0.008
 30
0.0
 40
1.398000000002981
100
AcDbArc
 50
253.1197327621
 51
256.058293273
  0
ARC
  5
248
330
1F
100
AcDbEntity
  8
0
  6
Continuous
 62
     7
370
    25
100
AcDbCircle
 10
-0.412619533
 20
-1.3517742904
 30
0.0
 40
0.022999999999997
100
AcDbArc
 50
73.1197327621
 51
162.178949878
  0
ARC
  5
249
330
1F
100
AcDbEntity
  8
0
  6
Continuous
 62
     7
370
    25
100
AcDbCircle
 10
0.0
 20
0.008
 30
0.0
 40
1.583333333323897
100
AcDbArc
 50
247.9942957527
 51
251.1837302824
  0
ARC
  5
24A
330
1F
100
AcDbEntity
  8
0
  6
Continuous
 62
     7
370
    25
100
AcDbCircle
 10
-0.5766517226
 20
-1.2907354584
 30
0.0
 40
0.0229999999999973
100
AcDbArc
 50
336.9990761571
 51
66.058293273
  0
ARC
  5
24B
330
1F
100
AcDbEntity
  8
0
  6
Continuous
 62
     7
370
    25
100
AcDbCircle
 10
0.0
 20
0.008
 30
0.0
 40
1.398000000000798
100
AcDbArc
 50
243.1197327621
 51
246.058293273
  0
ARC
  5
24C
330
1F
100
AcDbEntity
  8
0
  6
Continuous
 62
     7
370
    25
100
AcDbCircle
 10
-0.6424732428
 20
-1.2594656336
 30
0.0
 40
0.0229999999999974
100
AcDbArc
 50
63.1197327621
 51
152.178949878
  0
ARC
  5
24D
330
1F
100
AcDbEntity
  8
0
  6
Continuous
 62
     7
370
    25
100
AcDbCircle
 10
0.0
 20
0.008
 30
0.0
 40
1.583333333338349
100
AcDbArc
 50
237.9942957527
 51
241.1837302824
  0
ARC
  5
24E
330
1F
100
AcDbEntity
  8
0
  6
Continuous
 62
     7
370
    25
100
AcDbCircle
 10
-0.7934141329
 20
-1.1708702277
 30
0.0
 40
0.0229999999999968
100
AcDbArc
 50
326.9990761571
 51
56.058293273
  0
ARC
  5
24F
330
1F
100
AcDbEntity
  8
0
  6
Continuous
 62
     7
370
    25
100
AcDbCircle
 10
0.0
 20
0.008
 30
0.0
 40
1.397999999998071
100
AcDbArc
 50
233.1197327621
 51
236.058293273
  0
ARC
  5
250
330
1F
100
AcDbEntity
  8
0
  6
Continuous
 62
     7
370
    25
100
AcDbCircle
 10
0.0
 20
0.008
 30
0.0
 40
1.583333333335668
100
AcDbArc
 50
227.9942957527
 51
231.1837302824
  0
ARC
  5
251
330
1F
100
AcDbEntity
  8
0
  6
Continuous
 62
     7
370
    25
100
AcDbCircle
 10
-0.9860690561
 20
-1.0151856217
 30
0.0
 40
0.0229999999999967
100
AcDbArc
 50
316.9990761571
 51
46.058293273
  0
ARC
  5
252
330
1F
100
AcDbEntity
  8
0
  6
Continuous
 62
     7
370
    25
100
AcDbCircle
 10
0.0
 20
0.008
 30
0.0
 40
1.39799999999831
100
AcDbArc
 50
223.1197327621
 51
226.058293273
  0
ARC
  5
253
330
1F
100
AcDbEntity
  8
0
  6
Continuous
 62
     7
370
    25
100
AcDbCircle
 10
-1.0372261429
 20
-0.9632893124
 30
0.0
 40
0.0229999999999961
100
AcDbArc
 50
43.1197327621
 51
132.178949878
  0
ARC
  5
254
330
1F
100
AcDbEntity
  8
0
  6
Continuous
 62
     7
370
    25
100
AcDbCircle
 10
0.0
 20
0.008
 30
0.0
 40
1.583333333341541
100
AcDbArc
 50
217.9942957527
 51
221.1837302824
  0
ARC
  5
255
330
1F
100
AcDbEntity
  8
0
  6
Continuous
 62
     7
370
    25
100
AcDbCircle
 10
-1.1487627701
 20
-0.8284120384
 30
0.0
 40
0.0229999999999967
100
AcDbArc
 50
306.9990761571
 51
36.058293273
  0
ARC
  5
256
330
1F
100
AcDbEntity
  8
0
  6
Continuous
 62
     7
370
    25
100
AcDbCircle
 10
0.0
 20
0.008
 30
0.0
 40
1.398000000006124
100
AcDbArc
 50
213.1197327621
 51
216.058293273
  0
ARC
  5
257
330
1F
100
AcDbEntity
  8
0
  6
Continuous
 62
     7
370
    25
100
AcDbCircle
 10
-1.1901309663
 20
-0.7684208157
 30
0.0
 40
0.0229999999999971
100
AcDbArc
 50
33.1197327621
 51
122.178949878
  0
ARC
  5
258
330
1F
100
AcDbEntity
  8
0
  6
Continuous
 62
     7
370
    25
100
AcDbCircle
 10
0.0
 20
0.008
 30
0.0
 40
1.583333333328097
100
AcDbArc
 50
207.9942957527
 51
211.1837302824
  0
ARC
  5
259
330
1F
100
AcDbEntity
  8
0
  6
Continuous
 62
     7
370
    25
100
AcDbCircle
 10
-1.2765519086
 20
-0.6162244985
 30
0.0
 40
0.0229999999999963
100
AcDbArc
 50
296.9990761571
 51
26.058293273
  0
ARC
  5
25A
330
1F
100
AcDbEntity
  8
0
  6
Continuous
 62
     7
370
    25
100
AcDbCircle
 10
0.0
 20
0.008
 30
0.0
 40
1.398000000000514
100
AcDbArc
 50
203.1197327621
 51
206.058293273
  0
ARC
  5
25B
330
1F
100
AcDbEntity
  8
0
  6
Continuous
 62
     7
370
    25
100
AcDbCircle
 10
-1.3068742624
 20
-0.5499611655
 30
0.0
 40
0.0229999999999972
100
AcDbArc
 50
23.1197327621
 51
112.178949878
  0
ARC
  5
25C
330
1F
100
AcDbEntity
  8
0
  6
Continuous
 62
     7
370
    25
100
AcDbCircle
 10
0.0
 20
0.008
 30
0.0
 40
1.583333333330422
100
AcDbArc
 50
197.9942957527
 51
201.1837302824
  0
ARC
  5
25D
330
1F
100
AcDbEntity
  8
0
  6
Continuous
 62
     7
370
    25
100
AcDbCircle
 10
-1.3655536634
 20
-0.3850702131
 30
0.0
 40
0.0229999999999973
100
AcDbArc
 50
286.9990761571
 51
16.058293273
  0
ARC
  5
25E
330
1F
100
AcDbEntity
  8
0
  6
Continuous
 62
     7
370
    25
100
AcDbCircle
 10
0.0
 20
0.008
 30
0.0
 40
1.397999999992289
100
AcDbArc
 50
193.1197327621
 51
196.058293273
  0
ARC
  5
25F
330
1F
100
AcDbEntity
  8
0
  6
Continuous
 62
     7
370
    25
100
AcDbCircle
 10
-1.3839088455
 20
-0.3145481475
 30
0.0
 40
0.0229999999999967
100
AcDbArc
 50
13.1197327621
 51
102.178949878
  0
ARC
  5
260
330
1F
100
AcDbEntity
  8
0
  6
Continuous
 62
     7
370
    25
100
AcDbCircle
 10
0.0
 20
0.008
 30
0.0
 40
1.583333333347664
100
AcDbArc
 50
187.9942957527
 51
191.1837302823
  0
ARC
  5
261
330
1F
100
AcDbEntity
  8
0
  6
Continuous
 62
     7
370
    25
100
AcDbCircle
 10
-1.413063761
 20
-0.1419726882
 30
0.0
 40
0.0229999999999973
100
AcDbArc
 50
276.9990761571
 51
6.058293273
  0
ARC
  5
262
330
1F
100
AcDbEntity
  8
0
  6
Continuous
 62
     7
370
    25
100
AcDbCircle
 10
0.0
 20
0.008
 30
0.0
 40
1.398000000001501
100
AcDbArc
 50
183.1197327621
 51
186.058293273
  0
ARC
  5
263
330
1F
100
AcDbEntity
  8
0
  6
Continuous
 62
     7
370
    25
100
AcDbCircle
 10
-1.4188940585
 20
-0.0693346673
 30
0.0
 40
0.0229999999999966
100
AcDbArc
 50
3.1197327621
 51
92.178949878
  0
ARC
  5
264
330
1F
100
AcDbEntity
  8
0
  6
Continuous
 62
     7
370
    25
100
AcDbCircle
 10
0.0
 20
0.008
 30
0.0
 40
1.583333333335697
100
AcDbArc
 50
177.9942957527
 51
181.1837302824
  0
ARC
  5
265
330
1F
100
AcDbEntity
  8
0
  6
Continuous
 62
     7
370
    25
100
AcDbCircle
 10
-1.4176386314
 20
0.1056816809
 30
0.0
 40
0.0229999999999969
100
AcDbArc
 50
266.9990761571
 51
356.058293273
  0
ARC
  5
266
330
1F
100
AcDbEntity
  8
0
  6
Continuous
 62
     7
370
    25
100
AcDbCircle
 10
0.0
 20
0.008
 30
0.0
 40
1.398000000007485
100
AcDbArc
 50
173.1197327621
 51
176.058293273
  0
ARC
  5
267
330
1F
100
AcDbEntity
  8
0
  6
Continuous
 62
     7
370
    25
100
AcDbCircle
 10
-1.4107668936
 20
0.1782285876
 30
0.0
 40
0.0229999999999977
100
AcDbArc
 50
353.1197327621
 51
82.178949878
  0
ARC
  5
268
330
1F
100
AcDbEntity
  8
0
  6
Continuous
 62
     7
370
    25
100
AcDbCircle
 10
0.0
 20
0.008
 30
0.0
 40
1.583333333335597
100
AcDbArc
 50
167.9942957527
 51
171.1837302824
  0
ARC
  5
269
330
1F
100
AcDbEntity
  8
0
  6
Continuous
 62
     7
370
    25
100
AcDbCircle
 10
-1.3791392693
 20
0.3503680416
 30
0.0
 40
0.0229999999999968
100
AcDbArc
 50
256.9990761571
 51
346.058293273
  0
ARC
  5
26A
330
1F
100
AcDbEntity
  8
0
  6
Continuous
 62
     7
370
    25
100
AcDbCircle
 10
0.0
 20
0.008
 30
0.0
 40
1.398000000003266
100
AcDbArc
 50
163.1197327621
 51
166.058293273
  0
ARC
  5
26B
330
1F
100
AcDbEntity
  8
0
  6
Continuous
 62
     7
370
    25
100
AcDbCircle
 10
-1.3597742904
 20
0.420619533
 30
0.0
 40
0.0229999999999963
100
AcDbArc
 50
343.1197327621
 51
72.178949878
  0
ARC
  5
26C
330
1F
100
AcDbEntity
  8
0
  6
Continuous
 62
     7
370
    25
100
AcDbCircle
 10
0.0
 20
0.008
 30
0.0
 40
1.583333333336585
100
AcDbArc
 50
157.9942957527
 51
161.1837302824
  0
ARC
  5
26D
330
1F
100
AcDbEntity
  8
0
  6
Continuous
 62
     7
370
    25
100
AcDbCircle
 10
-1.2987354584
 20
0.5846517226
 30
0.0
 40
0.0229999999999972
100
AcDbArc
 50
246.9990761571
 51
336.058293273
  0
ARC
  5
26E
330
1F
100
AcDbEntity
  8
0
  6
Continuous
 62
     7
370
    25
100
AcDbCircle
 10
0.0
 20
0.008
 30
0.0
 40
1.398000000001112
100
AcDbArc
 50
153.1197327621
 51
156.058293273
  0
ARC
  5
26F
330
1F
100
AcDbEntity
  8
0
  6
Continuous
 62
     7
370
    25
100
AcDbCircle
 10
-1.2674656336
 20
0.6504732428
 30
0.0
 40
0.0229999999999976
100
AcDbArc
 50
333.1197327621
 51
62.178949878
  0
ARC
  5
270
330
1F
100
AcDbEntity
  8
0
  6
Continuous
 62
     7
370
    25
100
AcDbCircle
 10
0.0
 20
0.008
 30
0.0
 40
1.58333333332401
100
AcDbArc
 50
147.9942957527
 51
151.1837302824
  0
ARC
  5
271
330
1F
100
AcDbEntity
  8
0
  6
Continuous
 62
     7
370
    25
100
AcDbCircle
 10
-1.1788702277
 20
0.8014141329
 30
0.0
 40
0.0229999999999979
100
AcDbArc
 50
236.9990761571
 51
326.058293273
  0
ARC
  5
272
330
1F
100
AcDbEntity
  8
0
  6
Continuous
 62
     7
370
    25
100
AcDbCircle
 10
0.0
 20
0.008
 30
0.0
 40
1.397999999997423
100
AcDbArc
 50
143.1197327621
 51
146.058293273
  0
ARC
  5
273
330
1F
100
AcDbEntity
  8
0
  6
Continuous
 62
     7
370
    25
100
AcDbCircle
 10
-1.1366456748
 20
0.8608057281
 30
0.0
 40
0.0229999999999968
100
AcDbArc
 50
323.1197327621
 51
52.178949878
  0
ARC
  5
274
330
1F
100
AcDbEntity
  8
0
  6
Continuous
 62
     7
370
    25
100
AcDbCircle
 10
0.0
 20
0.008
 30
0.0
 40
1.583333333338119
100
AcDbArc
 50
137.9942957527
 51
141.1837302823
  0
ARC
  5
275
330
1F
100
AcDbEntity
  8
0
  6
Continuous
 62
     7
370
    25
100
AcDbCircle
 10
-1.0231856217
 20
0.9940690561
 30
0.0
 40
0.0229999999999971
100
AcDbArc
 50
226.9990761571
 51
316.058293273
  0
ARC
  5
276
330
1F
100
AcDbEntity
  8
0
  6
Continuous
 62
     7
370
    25
100
AcDbCircle
 10
0.0
 20
0.008
 30
0.0
 40
1.398000000001329
100
AcDbArc
 50
133.1197327621
 51
136.058293273
  0
ARC
  5
277
330
1F
100
AcDbEntity
  8
0
  6
Continuous
 62
     7
370
    25
100
AcDbCircle
 10
-0.9712893124
 20
1.0452261429
 30
0.0
 40
0.0229999999999971
100
AcDbArc
 50
313.1197327621
 51
42.178949878
  0
ARC
  5
278
330
1F
100
AcDbEntity
  8
0
  6
Continuous
 62
     7
370
    25
100
AcDbCircle
 10
0.0
 20
0.008
 30
0.0
 40
1.583333333343197
100
AcDbArc
 50
127.9942957527
 51
131.1837302823
  0
ARC
  5
279
330
1F
100
AcDbEntity
  8
0
  6
Continuous
 62
     7
370
    25
100
AcDbCircle
 10
-0.8364120384
 20
1.1567627701
 30
0.0
 40
0.0229999999999975
100
AcDbArc
 50
216.9990761571
 51
306.058293273
  0
ARC
  5
27A
330
1F
100
AcDbEntity
  8
0
  6
Continuous
 62
     7
370
    25
100
AcDbCircle
 10
0.0
 20
0.008
 30
0.0
 40
1.398000000005639
100
AcDbArc
 50
123.1197327621
 51
126.058293273
  0
ARC
  5
27B
330
1F
100
AcDbEntity
  8
0
  6
Continuous
 62
     7
370
    25
100
AcDbCircle
 10
-0.7764208157
 20
1.1981309663
 30
0.0
 40
0.0229999999999976
100
AcDbArc
 50
303.1197327621
 51
32.178949878
  0
ARC
  5
27C
330
1F
100
AcDbEntity
  8
0
  6
Continuous
 62
     7
370
    25
100
AcDbCircle
 10
0.0
 20
0.008
 30
0.0
 40
1.000000000000003
100
AcDbArc
 50
60.0
 51
120.0
  0
ARC
  5
27D
330
1F
100
AcDbEntity
  8
0
  6
Continuous
 62
     7
370
    25
100
AcDbCircle
 10
0.0
 20
0.008
 30
0.0
 40
0.8750000000000007
100
AcDbArc
 50
60.0
 51
120.0
  0
ARC
  5
27E
330
1F
100
AcDbEntity
  8
0
  6
Continuous
 62
     7
370
    25
100
AcDbCircle
 10
0.0
 20
0.008
 30
0.0
 40
1.000000000000005
100
AcDbArc
 50
180.0
 51
240.0
  0
ARC
  5
27F
330
1F
100
AcDbEntity
  8
0
  6
Continuous
 62
     7
370
    25
100
AcDbCircle
 10
0.0
 20
0.008
 30
0.0
 40
0.8749999999999976
100
AcDbArc
 50
180.0
 51
240.0
  0
ARC
  5
280
330
1F
100
AcDbEntity
  8
0
  6
Continuous
 62
     7
370
    25
100
AcDbCircle
 10
0.0
 20
0.008
 30
0.0
 40
0.9999999999999976
100
AcDbArc
 50
300.0
 51
0.0
  0
ARC
  5
281
330
1F
100
AcDbEntity
  8
0
  6
Continuous
 62
     7
370
    25
100
AcDbCircle
 10
0.0
 20
0.008
 30
0.0
 40
0.874999999999994
100
AcDbArc
 50
300.0
 51
0.0
  0
ARC
  5
282
330
1F
100
AcDbEntity
  8
0
  6
Continuous
 62
     7
370
    25
100
AcDbCircle
 10
1.1366456748
 20
-0.8448057281
 30
0.0
 40
0.0229999999999982
100
AcDbArc
 50
143.1197327621
 51
232.178949878
  0
ARC
  5
283
330
1F
100
AcDbEntity
  8
0
  6
Continuous
 62
     7
370
    25
100
AcDbCircle
 10
-0.8528057281
 20
-1.1286456748
 30
0.0
 40
0.0229999999999977
100
AcDbArc
 50
53.1197327621
 51
142.178949878
  0
MTEXT
  5
285
330
1F
100
AcDbEntity
  8
0
  6
Continuous
 62
     7
100
AcDbMText
 10
-1.5833333333
 20
-1.6154737425
 30
0.0
 40
0.1903
 41
0.0
 71
     1
 72
     1
  1
SOLIDWORKS Educational Product.
  7
SLDTEXTSTYLE0
 73
     1
 44
1.0
  0
MTEXT
  5
286
330
1F
100
AcDbEntity
  8
0
  6
Continuous
 62
     7
100
AcDbMText
 10
-1.5833333333
 20
-1.9009237425
 30
0.0
 40
0.1903
 41
0.0
 71
     1
 72
     1
  1
For Instructional Use Only.
  7
SLDTEXTSTYLE0
 73
     1
 44
1.0
  0
ENDSEC
  0
SECTION
  2
OBJECTS
  0
DICTIONARY
  5
C
330
0
100
AcDbDictionary
281
     1
  3
ACAD_GROUP
350
D
  3
ACAD_LAYOUT
350
1A
  3
ACAD_MLINESTYLE
350
17
  3
ACAD_PLOTSETTINGS
350
19
  3
ACAD_PLOTSTYLENAME
350
E
  3
ACAD_SCALELIST
350
47
  0
DICTIONARY
  5
D
102
{ACAD_REACTORS
330
C
102
}
330
C
100
AcDbDictionary
281
     1
  0
DICTIONARY
  5
1A
102
{ACAD_REACTORS
330
C
102
}
330
C
100
AcDbDictionary
281
     1
  3
Layout1
350
1E
  3
Layout2
350
26
  3
Model
350
22
  0
DICTIONARY
  5
17
102
{ACAD_REACTORS
330
C
102
}
330
C
100
AcDbDictionary
281
     1
  3
Standard
350
18
  0
DICTIONARY
  5
19
102
{ACAD_REACTORS
330
C
102
}
330
C
100
AcDbDictionary
281
     1
  0
ACDBDICTIONARYWDFLT
  5
E
102
{ACAD_REACTORS
330
C
102
}
330
C
100
AcDbDictionary
281
     1
  3
Normal
350
F
100
AcDbDictionaryWithDefault
340
F
  0
DICTIONARY
  5
47
102
{ACAD_REACTORS
330
C
102
}
330
C
100
AcDbDictionary
281
     1
  3
A0
350
48
  3
A1
350
49
  3
A2
350
4A
  3
A3
350
4B
  3
A4
350
4C
  3
A5
350
4D
  3
A6
350
4E
  3
A7
350
4F
  3
A8
350
50
  3
A9
350
51
  3
B0
350
52
  3
B1
350
53
  3
B2
350
54
  3
B3
350
55
  3
B4
350
56
  3
B5
350
57
  3
B6
350
58
  3
B7
350
59
  3
B8
350
5A
  3
B9
350
5B
  3
C0
350
5C
  3
C1
350
5D
  3
C2
350
5E
  3
C3
350
5F
  3
C4
350
60
  3
C5
350
61
  3
C6
350
62
  3
C7
350
63
  3
C8
350
64
  3
C9
350
65
  3
D0
350
66
  3
D1
350
67
  3
D2
350
68
  0
LAYOUT
  5
1E
102
{ACAD_REACTORS
330
1A
102
}
330
1A
100
AcDbPlotSettings
  1

  2
none_device
  4

  6

 40
0.0
 41
0.0
 42
0.0
 43
0.0
 44
0.0
 45
0.0
 46
0.0
 47
0.0
 48
0.0
 49
0.0
140
0.0
141
0.0
142
1.0
143
1.0
 70
   688
 72
     0
 73
     0
 74
     5
  7

 75
    16
147
1.0
148
0.0
149
0.0
100
AcDbLayout
  1
Layout1
 70
     1
 71
     1
 10
0.0
 20
0.0
 11
12.0
 21
9.0
 12
0.0
 22
0.0
 32
0.0
 14
1.0000000000E+20
 24
1.0000000000E+20
 34
1.0000000000E+20
 15
-1.0000000000E+20
 25
-1.0000000000E+20
 35
-1.0000000000E+20
146
0.0
 13
0.0
 23
0.0
 33
0.0
 16
1.0
 26
0.0
 36
0.0
 17
0.0
 27
1.0
 37
0.0
 76
     0
330
1B
  0
LAYOUT
  5
26
102
{ACAD_REACTORS
330
1A
102
}
330
1A
100
AcDbPlotSettings
  1

  2
none_device
  4

  6

 40
0.0
 41
0.0
 42
0.0
 43
0.0
 44
0.0
 45
0.0
 46
0.0
 47
0.0
 48
0.0
 49
0.0
140
0.0
141
0.0
142
1.0
143
1.0
 70
   688
 72
     0
 73
     0
 74
     5
  7

 75
    16
147
1.0
148
0.0
149
0.0
100
AcDbLayout
  1
Layout2
 70
     1
 71
     2
 10
0.0
 20
0.0
 11
0.0
 21
0.0
 12
0.0
 22
0.0
 32
0.0
 14
0.0
 24
0.0
 34
0.0
 15
0.0
 25
0.0
 35
0.0
146
0.0
 13
0.0
 23
0.0
 33
0.0
 16
1.0
 26
0.0
 36
0.0
 17
0.0
 27
1.0
 37
0.0
 76
     0
330
23
  0
LAYOUT
  5
22
102
{ACAD_REACTORS
330
1A
102
}
330
1A
100
AcDbPlotSettings
  1

  2
none_device
  4
ANSI_A_(11.00_x_8.50_Inches)
  6

 40
6.35
 41
19.05
 42
6.35000508
 43
19.05000254
 44
279.4
 45
215.9
 46
133.34999746
 47
88.3600214668
 48
0.0
 49
0.0
140
0.0
141
0.0
142
2.6573684211
143
1.0
 70
  1696
 72
     0
 73
     0
 74
     0
  7

 75
     0
147
0.5913241897
148
-39.4088153714
149
0.0
100
AcDbLayout
  1
Model
 70
     1
 71
     0
 10
0.0
 20
0.0
 11
12.0
 21
9.0
 12
0.0
 22
0.0
 32
0.0
 14
-1.5833333333
 24
-1.5753333333
 34
0.0
 15
1.5833333333
 25
1.5913333333
 35
0.0
146
0.0
 13
0.0
 23
0.0
 33
0.0
 16
1.0
 26
0.0
 36
0.0
 17
0.0
 27
1.0
 37
0.0
 76
     0
330
1F
331
29
  0
MLINESTYLE
  5
18
102
{ACAD_REACTORS
330
17
102
}
330
17
100
AcDbMlineStyle
  2
Standard
 70
     0
  3

 62
   256
 51
90.0
 52
90.0
 71
     2
 49
0.5
 62
   256
  6
BYLAYER
 49
-0.5
 62
   256
  6
BYLAYER
  0
ACDBPLACEHOLDER
  5
F
102
{ACAD_REACTORS
330
E
102
}
330
E
  0
SCALE
  5
48
102
{ACAD_REACTORS
330
47
102
}
330
47
100
AcDbScale
 70
     0
300
1:1
140
1.0
141
1.0
290
     1
  0
SCALE
  5
49
102
{ACAD_REACTORS
330
47
102
}
330
47
100
AcDbScale
 70
     0
300
1:2
140
1.0
141
2.0
290
     0
  0
SCALE
  5
4A
102
{ACAD_REACTORS
330
47
102
}
330
47
100
AcDbScale
 70
     0
300
1:4
140
1.0
141
4.0
290
     0
  0
SCALE
  5
4B
102
{ACAD_REACTORS
330
47
102
}
330
47
100
AcDbScale
 70
     0
300
1:5
140
1.0
141
5.0
290
     0
  0
SCALE
  5
4C
102
{ACAD_REACTORS
330
47
102
}
330
47
100
AcDbScale
 70
     0
300
1:8
140
1.0
141
8.0
290
     0
  0
SCALE
  5
4D
102
{ACAD_REACTORS
330
47
102
}
330
47
100
AcDbScale
 70
     0
300
1:10
140
1.0
141
10.0
290
     0
  0
SCALE
  5
4E
102
{ACAD_REACTORS
330
47
102
}
330
47
100
AcDbScale
 70
     0
300
1:16
140
1.0
141
16.0
290
     0
  0
SCALE
  5
4F
102
{ACAD_REACTORS
330
47
102
}
330
47
100
AcDbScale
 70
     0
300
1:20
140
1.0
141
20.0
290
     0
  0
SCALE
  5
50
102
{ACAD_REACTORS
330
47
102
}
330
47
100
AcDbScale
 70
     0
300
1:30
140
1.0
141
30.0
290
     0
  0
SCALE
  5
51
102
{ACAD_REACTORS
330
47
102
}
330
47
100
AcDbScale
 70
     0
300
1:40
140
1.0
141
40.0
290
     0
  0
SCALE
  5
52
102
{ACAD_REACTORS
330
47
102
}
330
47
100
AcDbScale
 70
     0
300
1:50
140
1.0
141
50.0
290
     0
  0
SCALE
  5
53
102
{ACAD_REACTORS
330
47
102
}
330
47
100
AcDbScale
 70
     0
300
1:100
140
1.0
141
100.0
290
     0
  0
SCALE
  5
54
102
{ACAD_REACTORS
330
47
102
}
330
47
100
AcDbScale
 70
     0
300
2:1
140
2.0
141
1.0
290
     0
  0
SCALE
  5
55
102
{ACAD_REACTORS
330
47
102
}
330
47
100
AcDbScale
 70
     0
300
4:1
140
4.0
141
1.0
290
     0
  0
SCALE
  5
56
102
{ACAD_REACTORS
330
47
102
}
330
47
100
AcDbScale
 70
     0
300
8:1
140
8.0
141
1.0
290
     0
  0
SCALE
  5
57
102
{ACAD_REACTORS
330
47
102
}
330
47
100
AcDbScale
 70
     0
300
10:1
140
10.0
141
1.0
290
     0
  0
SCALE
  5
58
102
{ACAD_REACTORS
330
47
102
}
330
47
100
AcDbScale
 70
     0
300
100:1
140
100.0
141
1.0
290
     0
  0
SCALE
  5
59
102
{ACAD_REACTORS
330
47
102
}
330
47
100
AcDbScale
 70
     0
300
1/128" = 1'-0"
140
0.0078125
141
12.0
290
     0
  0
SCALE
  5
5A
102
{ACAD_REACTORS
330
47
102
}
330
47
100
AcDbScale
 70
     0
300
1/64" = 1'-0"
140
0.015625
141
12.0
290
     0
  0
SCALE
  5
5B
102
{ACAD_REACTORS
330
47
102
}
330
47
100
AcDbScale
 70
     0
300
1/32" = 1'-0"
140
0.03125
141
12.0
290
     0
  0
SCALE
  5
5C
102
{ACAD_REACTORS
330
47
102
}
330
47
100
AcDbScale
 70
     0
300
1/16" = 1'-0"
140
0.0625
141
12.0
290
     0
  0
SCALE
  5
5D
102
{ACAD_REACTORS
330
47
102
}
330
47
100
AcDbScale
 70
     0
300
3/32" = 1'-0"
140
0.09375
141
12.0
290
     0
  0
SCALE
  5
5E
102
{ACAD_REACTORS
330
47
102
}
330
47
100
AcDbScale
 70
     0
300
1/8" = 1'-0"
140
0.125
141
12.0
290
     0
  0
SCALE
  5
5F
102
{ACAD_REACTORS
330
47
102
}
330
47
100
AcDbScale
 70
     0
300
3/16" = 1'-0"
140
0.1875
141
12.0
290
     0
  0
SCALE
  5
60
102
{ACAD_REACTORS
330
47
102
}
330
47
100
AcDbScale
 70
     0
300
1/4" = 1'-0"
140
0.25
141
12.0
290
     0
  0
SCALE
  5
61
102
{ACAD_REACTORS
330
47
102
}
330
47
100
AcDbScale
 70
     0
300
3/8" = 1'-0"
140
0.375
141
12.0
290
     0
  0
SCALE
  5
62
102
{ACAD_REACTORS
330
47
102
}
330
47
100
AcDbScale
 70
     0
300
1/2" = 1'-0"
140
0.5
141
12.0
290
     0
  0
SCALE
  5
63
102
{ACAD_REACTORS
330
47
102
}
330
47
100
AcDbScale
 70
     0
300
3/4" = 1'-0"
140
0.75
141
12.0
290
     0
  0
SCALE
  5
64
102
{ACAD_REACTORS
330
47
102
}
330
47
100
AcDbScale
 70
     0
300
1" = 1'-0"
140
1.0
141
12.0
290
     0
  0
SCALE
  5
65
102
{ACAD_REACTORS
330
47
102
}
330
47
100
AcDbScale
 70
     0
300
1-1/2" = 1'-0"
140
1.5
141
12.0
290
     0
  0
SCALE
  5
66
102
{ACAD_REACTORS
330
47
102
}
330
47
100
AcDbScale
 70
     0
300
3" = 1'-0"
140
3.0
141
12.0
290
     0
  0
SCALE
  5
67
102
{ACAD_REACTORS
330
47
102
}
330
47
100
AcDbScale
 70
     0
300
6" = 1'-0"
140
6.0
141
12.0
290
     0
  0
SCALE
  5
68
102
{ACAD_REACTORS
330
47
102
}
330
47
100
AcDbScale
 70
     0
300
1'-0" = 1'-0"
140
12.0
141
12.0
290
     0
  0
ENDSEC
  0
EOF
