  0
SECTION
  2
HEADER
  9
$ACADVER
  1
AC1015
  9
$ACADMAINTVER
 70
     6
  9
$DWGCODEPAGE
  3
ANSI_1252
  9
$INSBASE
 10
0.0
 20
0.0
 30
0.0
  9
$EXTMIN
 10
36.0513637296
 20
-33.6634666667
 30
0.0
  9
$EXTMAX
 10
103.6486362704
 20
34.0698666667
 30
0.0
  9
$LIMMIN
 10
0.0
 20
0.0
  9
$LIMMAX
 10
420.0
 20
297.0
  9
$ORTHOMODE
 70
     0
  9
$REGENMODE
 70
     1
  9
$FILLMODE
 70
     1
  9
$QTEXTMODE
 70
     0
  9
$MIRRTEXT
 70
     1
  9
$LTSCALE
 40
1.0
  9
$ATTMODE
 70
     1
  9
$TEXTSIZE
 40
3.5
  9
$TRACEWID
 40
1.0
  9
$TEXTSTYLE
  7
Standard
  9
$CLAYER
  8
0
  9
$CELTYPE
  6
ByLayer
  9
$CECOLOR
 62
   256
  9
$CELTSCALE
 40
1.0
  9
$DISPSILH
 70
     0
  9
$DIMSCALE
 40
1.0
  9
$DIMASZ
 40
3.302
  9
$DIMEXO
 40
1.0
  9
$DIMDLI
 40
3.75
  9
$DIMRND
 40
0.0
  9
$DIMDLE
 40
0.0
  9
$DIMEXE
 40
1.0
  9
$DIMTP
 40
0.0
  9
$DIMTM
 40
0.0
  9
$DIMTXT
 40
3.5
  9
$DIMCEN
 40
2.5
  9
$DIMTSZ
 40
0.0
  9
$DIMTOL
 70
     0
  9
$DIMLIM
 70
     0
  9
$DIMTIH
 70
     1
  9
$DIMTOH
 70
     1
  9
$DIMSE1
 70
     0
  9
$DIMSE2
 70
     0
  9
$DIMTAD
 70
     1
  9
$DIMZIN
 70
     0
  9
$DIMBLK
  1

  9
$DIMASO
 70
     1
  9
$DIMSHO
 70
     1
  9
$DIMPOST
  1

  9
$DIMAPOST
  1

  9
$DIMALT
 70
     0
  9
$DIMALTD
 70
     3
  9
$DIMALTF
 40
0.0393700787
  9
$DIMLFAC
 40
1.0
  9
$DIMTOFL
 70
     1
  9
$DIMTVP
 40
0.0
  9
$DIMTIX
 70
     0
  9
$DIMSOXD
 70
     0
  9
$DIMSAH
 70
     0
  9
$DIMBLK1
  1

  9
$DIMBLK2
  1

  9
$DIMSTYLE
  2
ISO-25
  9
$DIMCLRD
 70
     0
  9
$DIMCLRE
 70
     0
  9
$DIMCLRT
 70
     0
  9
$DIMTFAC
 40
1.0
  9
$DIMGAP
 40
1.524
  9
$DIMJUST
 70
     0
  9
$DIMSD1
 70
     0
  9
$DIMSD2
 70
     0
  9
$DIMTOLJ
 70
     0
  9
$DIMTZIN
 70
     0
  9
$DIMALTZ
 70
     0
  9
$DIMALTTZ
 70
     0
  9
$DIMUPT
 70
     0
  9
$DIMDEC
 70
     5
  9
$DIMTDEC
 70
     5
  9
$DIMALTU
 70
     2
  9
$DIMALTTD
 70
     3
  9
$DIMTXSTY
  7
Standard
  9
$DIMAUNIT
 70
     0
  9
$DIMADEC
 70
     2
  9
$DIMALTRND
 40
0.0
  9
$DIMAZIN
 70
     0
  9
$DIMDSEP
 70
    44
  9
$DIMATFIT
 70
     3
  9
$DIMFRAC
 70
     0
  9
$DIMLDRBLK
  1

  9
$DIMLUNIT
 70
     2
  9
$DIMLWD
 70
    -2
  9
$DIMLWE
 70
    -2
  9
$DIMTMOVE
 70
     0
  9
$LUNITS
 70
     2
  9
$LUPREC
 70
     5
  9
$SKETCHINC
 40
1.0
  9
$FILLETRAD
 40
10.0
  9
$AUNITS
 70
     0
  9
$AUPREC
 70
     2
  9
$MENU
  1
.
  9
$ELEVATION
 40
0.0
  9
$PELEVATION
 40
0.0
  9
$THICKNESS
 40
0.0
  9
$LIMCHECK
 70
     0
  9
$CHAMFERA
 40
0.0
  9
$CHAMFERB
 40
0.0
  9
$CHAMFERC
 40
0.0
  9
$CHAMFERD
 40
0.0
  9
$SKPOLY
 70
     0
  9
$TDCREATE
 40
2458237.633442963
  9
$TDUCREATE
 40
2458237.92510963
  9
$TDUPDATE
 40
2458237.633505081
  9
$TDUUPDATE
 40
2458237.925171748
  9
$TDINDWG
 40
0.0000000116
  9
$TDUSRTIMER
 40
0.0000000116
  9
$USRTIMER
 70
     1
  9
$ANGBASE
 50
0.0
  9
$ANGDIR
 70
     0
  9
$PDMODE
 70
     0
  9
$PDSIZE
 40
-1.0
  9
$PLINEWID
 40
0.0
  9
$SPLFRAME
 70
     0
  9
$SPLINETYPE
 70
     6
  9
$SPLINESEGS
 70
     8
  9
$HANDSEED
  5
21B
  9
$SURFTAB1
 70
     6
  9
$SURFTAB2
 70
     6
  9
$SURFTYPE
 70
     6
  9
$SURFU
 70
     6
  9
$SURFV
 70
     6
  9
$UCSBASE
  2

  9
$UCSNAME
  2

  9
$UCSORG
 10
0.0
 20
0.0
 30
0.0
  9
$UCSXDIR
 10
1.0
 20
0.0
 30
0.0
  9
$UCSYDIR
 10
0.0
 20
1.0
 30
0.0
  9
$UCSORTHOREF
  2

  9
$UCSORTHOVIEW
 70
     0
  9
$UCSORGTOP
 10
0.0
 20
0.0
 30
0.0
  9
$UCSORGBOTTOM
 10
0.0
 20
0.0
 30
0.0
  9
$UCSORGLEFT
 10
0.0
 20
0.0
 30
0.0
  9
$UCSORGRIGHT
 10
0.0
 20
0.0
 30
0.0
  9
$UCSORGFRONT
 10
0.0
 20
0.0
 30
0.0
  9
$UCSORGBACK
 10
0.0
 20
0.0
 30
0.0
  9
$PUCSBASE
  2

  9
$PUCSNAME
  2

  9
$PUCSORG
 10
0.0
 20
0.0
 30
0.0
  9
$PUCSXDIR
 10
1.0
 20
0.0
 30
0.0
  9
$PUCSYDIR
 10
0.0
 20
1.0
 30
0.0
  9
$PUCSORTHOREF
  2

  9
$PUCSORTHOVIEW
 70
     0
  9
$PUCSORGTOP
 10
0.0
 20
0.0
 30
0.0
  9
$PUCSORGBOTTOM
 10
0.0
 20
0.0
 30
0.0
  9
$PUCSORGLEFT
 10
0.0
 20
0.0
 30
0.0
  9
$PUCSORGRIGHT
 10
0.0
 20
0.0
 30
0.0
  9
$PUCSORGFRONT
 10
0.0
 20
0.0
 30
0.0
  9
$PUCSORGBACK
 10
0.0
 20
0.0
 30
0.0
  9
$USERI1
 70
     0
  9
$USERI2
 70
     0
  9
$USERI3
 70
     0
  9
$USERI4
 70
     0
  9
$USERI5
 70
     0
  9
$USERR1
 40
0.0
  9
$USERR2
 40
0.0
  9
$USERR3
 40
0.0
  9
$USERR4
 40
0.0
  9
$USERR5
 40
0.0
  9
$WORLDVIEW
 70
     1
  9
$SHADEDGE
 70
     3
  9
$SHADEDIF
 70
    70
  9
$TILEMODE
 70
     1
  9
$MAXACTVP
 70
    64
  9
$PINSBASE
 10
0.0
 20
0.0
 30
0.0
  9
$PLIMCHECK
 70
     0
  9
$PEXTMIN
 10
1.0000000000E+20
 20
1.0000000000E+20
 30
1.0000000000E+20
  9
$PEXTMAX
 10
-1.0000000000E+20
 20
-1.0000000000E+20
 30
-1.0000000000E+20
  9
$PLIMMIN
 10
0.0
 20
0.0
  9
$PLIMMAX
 10
420.0
 20
297.0
  9
$UNITMODE
 70
     0
  9
$VISRETAIN
 70
     1
  9
$PLINEGEN
 70
     0
  9
$PSLTSCALE
 70
     1
  9
$TREEDEPTH
 70
  3020
  9
$CMLSTYLE
  2
Standard
  9
$CMLJUST
 70
     0
  9
$CMLSCALE
 40
20.0
  9
$PROXYGRAPHICS
 70
     1
  9
$MEASUREMENT
 70
     1
  9
$CELWEIGHT
370
    -1
  9
$ENDCAPS
280
     0
  9
$JOINSTYLE
280
     0
  9
$LWDISPLAY
290
     1
  9
$INSUNITS
 70
     4
  9
$HYPERLINKBASE
  1

  9
$STYLESHEET
  1

  9
$XEDIT
290
     1
  9
$CEPSNTYPE
380
     0
  9
$PSTYLEMODE
290
     1
  9
$FINGERPRINTGUID
  2
{BE87809B-2CBE-4DFC-BEC6-7E185AA08F4A}
  9
$VERSIONGUID
  2
{FAEB1C32-E019-11D5-929B-00C0DF256EC4}
  9
$EXTNAMES
290
     1
  9
$PSVPSCALE
 40
0.0
  9
$OLESTARTUP
290
     0
  0
ENDSEC
  0
SECTION
  2
CLASSES
  0
CLASS
  1
ACDBDICTIONARYWDFLT
  2
AcDbDictionaryWithDefault
  3
ObjectDBX Classes
 90
        0
280
     0
281
     0
  0
CLASS
  1
VISUALSTYLE
  2
AcDbVisualStyle
  3
ObjectDBX Classes
 90
     4095
280
     0
281
     0
  0
CLASS
  1
MATERIAL
  2
AcDbMaterial
  3
ObjectDBX Classes
 90
     1153
280
     0
281
     0
  0
CLASS
  1
SCALE
  2
AcDbScale
  3
ObjectDBX Classes
 90
     1153
280
     0
281
     0
  0
CLASS
  1
TABLESTYLE
  2
AcDbTableStyle
  3
ObjectDBX Classes
 90
     4095
280
     0
281
     0
  0
CLASS
  1
MLEADERSTYLE
  2
AcDbMLeaderStyle
  3
ACDB_MLEADERSTYLE_CLASS
 90
     4095
280
     0
281
     0
  0
CLASS
  1
SUN
  2
AcDbSun
  3
SCENEOE
 90
     1153
280
     0
281
     0
  0
CLASS
  1
ACDBPLACEHOLDER
  2
AcDbPlaceHolder
  3
ObjectDBX Classes
 90
        0
280
     0
281
     0
  0
CLASS
  1
LAYOUT
  2
AcDbLayout
  3
ObjectDBX Classes
 90
        0
280
     0
281
     0
  0
ENDSEC
  0
SECTION
  2
TABLES
  0
TABLE
  2
VPORT
  5
8
330
0
100
AcDbSymbolTable
 70
     1
  0
VPORT
  5
29
330
8
100
AcDbSymbolTableRecord
100
AcDbViewportTableRecord
  2
*Active
 70
     0
 10
0.0
 20
0.0
 11
1.0
 21
1.0
 12
69.85
 22
0.2032
 13
0.0
 23
0.0
 14
10.0
 24
10.0
 15
10.0
 25
10.0
 16
0.0
 26
0.0
 36
1.0
 17
0.0
 27
0.0
 37
0.0
 40
69.088
 41
0.9979912285
 42
50.0
 43
0.0
 44
0.0
 50
0.0
 51
0.0
 71
     0
 72
   100
 73
     1
 74
     3
 75
     0
 76
     0
 77
     0
 78
     0
281
     0
 65
     1
110
0.0
120
0.0
130
0.0
111
1.0
121
0.0
131
0.0
112
0.0
122
1.0
132
0.0
 79
     0
146
0.0
  0
ENDTAB
  0
TABLE
  2
LTYPE
  5
5
330
0
100
AcDbSymbolTable
 70
     6
  0
LTYPE
  5
14
330
5
100
AcDbSymbolTableRecord
100
AcDbLinetypeTableRecord
  2
ByBlock
 70
     0
  3

 72
    65
 73
     0
 40
0.0
  0
LTYPE
  5
15
330
5
100
AcDbSymbolTableRecord
100
AcDbLinetypeTableRecord
  2
ByLayer
 70
     0
  3

 72
    65
 73
     0
 40
0.0
  0
LTYPE
  5
16
330
5
100
AcDbSymbolTableRecord
100
AcDbLinetypeTableRecord
  2
Continuous
 70
     0
  3
Solid line
 72
    65
 73
     0
 40
0.0
  0
LTYPE
  5
6E
330
5
100
AcDbSymbolTableRecord
100
AcDbLinetypeTableRecord
  2
HIDDEN
 70
     0
  3
Hidden __ __ __ __ __ __ __ __ __ __ __ __ __ __
 72
    65
 73
     2
 40
1.905
 49
1.27
 74
     0
 49
-0.635
 74
     0
  0
LTYPE
  5
6F
330
5
100
AcDbSymbolTableRecord
100
AcDbLinetypeTableRecord
  2
PHANTOM
 70
     0
  3
Phantom ______  __  __  ______  __  __  ______
 72
    65
 73
     6
 40
12.7
 49
6.35
 74
     0
 49
-1.27
 74
     0
 49
1.27
 74
     0
 49
-1.27
 74
     0
 49
1.27
 74
     0
 49
-1.27
 74
     0
  0
LTYPE
  5
70
330
5
100
AcDbSymbolTableRecord
100
AcDbLinetypeTableRecord
  2
CENTER
 70
     0
  3
Center ____ _ ____ _ ____ _ ____ _ ____ _ ____
 72
    65
 73
     4
 40
10.16
 49
6.35
 74
     0
 49
-1.27
 74
     0
 49
1.27
 74
     0
 49
-1.27
 74
     0
  0
LTYPE
  5
71
330
5
100
AcDbSymbolTableRecord
100
AcDbLinetypeTableRecord
  2
CENTERX2
 70
     0
  3
Center (2x) ________  __  ________  __  _____
 72
    65
 73
     4
 40
20.32
 49
12.7
 74
     0
 49
-2.54
 74
     0
 49
2.54
 74
     0
 49
-2.54
 74
     0
  0
LTYPE
  5
72
330
5
100
AcDbSymbolTableRecord
100
AcDbLinetypeTableRecord
  2
DOT2
 70
     0
  3
Dot (.5x) ........................................
 72
    65
 73
     2
 40
0.635
 49
0.0
 74
     0
 49
-0.635
 74
     0
  0
ENDTAB
  0
TABLE
  2
LAYER
  5
2
330
0
100
AcDbSymbolTable
 70
     1
  0
LAYER
  5
10
330
2
100
AcDbSymbolTableRecord
100
AcDbLayerTableRecord
  2
0
 70
     0
 62
     7
  6
Continuous
370
    -3
390
F
  0
ENDTAB
  0
TABLE
  2
STYLE
  5
3
330
0
100
AcDbSymbolTable
 70
     2
  0
STYLE
  5
11
330
3
100
AcDbSymbolTableRecord
100
AcDbTextStyleTableRecord
  2
Standard
 70
     0
 40
0.0
 41
1.0
 50
0.0
 71
     0
 42
3.5
  3
txt
  4

  0
STYLE
  5
218
330
3
100
AcDbSymbolTableRecord
100
AcDbTextStyleTableRecord
  2
SLDTEXTSTYLE0
 70
     0
 40
0.0
 41
0.7
 50
0.0
 71
     0
 42
3.5
  3
TXT
  4

  0
ENDTAB
  0
TABLE
  2
VIEW
  5
6
330
0
100
AcDbSymbolTable
 70
     0
  0
ENDTAB
  0
TABLE
  2
UCS
  5
7
330
0
100
AcDbSymbolTable
 70
     0
  0
ENDTAB
  0
TABLE
  2
APPID
  5
9
330
0
100
AcDbSymbolTable
 70
     1
  0
APPID
  5
12
330
9
100
AcDbSymbolTableRecord
100
AcDbRegAppTableRecord
  2
ACAD
 70
     0
  0
ENDTAB
  0
TABLE
  2
DIMSTYLE
  5
A
330
0
100
AcDbSymbolTable
 70
     1
100
AcDbDimStyleTable
  0
DIMSTYLE
105
27
330
A
100
AcDbSymbolTableRecord
100
AcDbDimStyleTableRecord
  2
ISO-25
 70
     0
 41
2.5
 42
0.625
 43
3.75
 44
1.25
 73
     0
 74
     0
 77
     1
 78
     8
140
2.5
141
2.5
143
0.0393700787
147
0.625
171
     3
172
     1
178
     0
271
     2
272
     2
274
     3
278
    44
283
     0
284
     8
340
11
  0
ENDTAB
  0
TABLE
  2
BLOCK_RECORD
  5
1
330
0
100
AcDbSymbolTable
 70
     1
  0
BLOCK_RECORD
  5
1F
330
1
100
AcDbSymbolTableRecord
100
AcDbBlockTableRecord
  2
*Model_Space
340
22
  0
BLOCK_RECORD
  5
1B
330
1
100
AcDbSymbolTableRecord
100
AcDbBlockTableRecord
  2
*Paper_Space
340
1E
  0
BLOCK_RECORD
  5
23
330
1
100
AcDbSymbolTableRecord
100
AcDbBlockTableRecord
  2
*Paper_Space0
340
26
  0
ENDTAB
  0
ENDSEC
  0
SECTION
  2
BLOCKS
  0
BLOCK
  5
20
330
1F
100
AcDbEntity
  8
0
100
AcDbBlockBegin
  2
*Model_Space
 70
     0
 10
0.0
 20
0.0
 30
0.0
  3
*Model_Space
  1

  0
ENDBLK
  5
21
330
1F
100
AcDbEntity
  8
0
100
AcDbBlockEnd
  0
BLOCK
  5
1C
330
1B
100
AcDbEntity
 67
     1
  8
0
100
AcDbBlockBegin
  2
*Paper_Space
 70
     0
 10
0.0
 20
0.0
 30
0.0
  3
*Paper_Space
  1

  0
ENDBLK
  5
1D
330
1B
100
AcDbEntity
 67
     1
  8
0
100
AcDbBlockEnd
  0
BLOCK
  5
24
330
23
100
AcDbEntity
  8
0
100
AcDbBlockBegin
  2
*Paper_Space0
 70
     0
 10
0.0
 20
0.0
 30
0.0
  3
*Paper_Space0
  1

  0
ENDBLK
  5
25
330
23
100
AcDbEntity
  8
0
100
AcDbBlockEnd
  0
ENDSEC
  0
SECTION
  2
ENTITIES
  0
SPLINE
  5
73
330
1F
100
AcDbEntity
  8
0
  6
Continuous
 62
     7
370
    25
100
AcDbSpline
210
0.0
220
0.0
230
1.0
 70
     8
 71
     3
 72
    14
 73
    10
 74
     0
 42
0.000000001
 43
0.00000001
 40
0.0
 40
0.0
 40
0.0
 40
0.0
 40
0.5000000000000075
 40
0.5000000000000075
 40
0.7500000000000042
 40
0.7500000000000042
 40
0.8750000000000021
 40
0.8750000000000021
 40
1.0
 40
1.0
 40
1.0
 40
1.0
 10
102.463974283974
 20
-8.922576269196112
 30
0.0
 10
102.0993979164578
 20
-8.63539561497757
 30
0.0
 10
101.7245817566238
 20
-8.371111463292046
 30
0.0
 10
101.1451525276889
 20
-8.021257632833
 30
0.0
 10
100.9491387357672
 20
-7.912421085119131
 30
0.0
 10
100.6497935149989
 20
-7.765441705698036
 30
0.0
 10
100.5492751019311
 20
-7.71868818178791
 30
0.0
 10
100.3453857589164
 20
-7.634492284161501
 30
0.0
 10
100.2438123164645
 20
-7.591323061691654
 30
0.0
 10
100.137548740602
 20
-7.564042867747879
 30
0.0
  0
SPLINE
  5
75
330
1F
100
AcDbEntity
  8
0
  6
Continuous
 62
     7
370
    25
100
AcDbSpline
210
0.0
220
0.0
230
1.0
 70
     8
 71
     3
 72
    14
 73
    10
 74
     0
 42
0.000000001
 43
0.00000001
 40
0.0
 40
0.0
 40
0.0
 40
0.0
 40
0.1249999999999963
 40
0.1249999999999963
 40
0.2499999999999925
 40
0.2499999999999925
 40
0.5000000000000001
 40
0.5000000000000001
 40
1.0
 40
1.0
 40
1.0
 40
1.0
 10
99.12046708071252
 20
-10.7925004032423
 30
0.0
 10
99.2231787982737
 20
-10.8310550347423
 30
0.0
 10
99.33115465813724
 20
-10.85390147142026
 30
0.0
 10
99.54648669041241
 20
-10.9017755693117
 30
0.0
 10
99.65565250109861
 20
-10.92108020971197
 30
0.0
 10
99.98519010927653
 20
-10.97222181670802
 30
0.0
 10
100.2081923718325
 20
-10.99539058098166
 30
0.0
 10
100.8835226907901
 20
-11.04083168926658
 30
0.0
 10
101.3421405064525
 20
-11.03910958213307
 30
0.0
 10
101.805491512459
 20
-11.0127561923314
 30
0.0
  0
SPLINE
  5
7B
330
1F
100
AcDbEntity
  8
0
  6
Continuous
 62
     7
370
    25
100
AcDbSpline
210
0.0
220
0.0
230
1.0
 70
     8
 71
     3
 72
    14
 73
    10
 74
     0
 42
0.000000001
 43
0.00000001
 40
0.0
 40
0.0
 40
0.0
 40
0.0
 40
0.5000000000000062
 40
0.5000000000000062
 40
0.7500000000000087
 40
0.7500000000000087
 40
0.8750000000000043
 40
0.8750000000000043
 40
1.0
 40
1.0
 40
1.0
 40
1.0
 10
99.85392512210979
 20
-15.5039827002155
 30
0.0
 10
99.55702383835806
 20
-15.14727794332223
 30
0.0
 10
99.24534607570222
 20
-14.81084037289146
 30
0.0
 10
98.75131746705682
 20
-14.34816157732417
 30
0.0
 10
98.58221543743397
 20
-14.20094981040297
 30
0.0
 10
98.319970359241
 20
-13.99494491207741
 30
0.0
 10
98.23136911887664
 20
-13.9283141116196
 30
0.0
 10
98.04944055862651
 20
-13.80356711831838
 30
0.0
 10
97.95906212562008
 20
-13.74022294076983
 30
0.0
 10
97.86079253510259
 20
-13.6914454447882
 30
0.0
  0
SPLINE
  5
7D
330
1F
100
AcDbEntity
  8
0
  6
Continuous
 62
     7
370
    25
100
AcDbSpline
210
0.0
220
0.0
230
1.0
 70
     8
 71
     3
 72
    14
 73
    10
 74
     0
 42
0.000000001
 43
0.00000001
 40
0.0
 40
0.0
 40
0.0
 40
0.0
 40
0.1250000000000048
 40
0.1250000000000048
 40
0.2500000000000097
 40
0.2500000000000097
 40
0.5000000000000061
 40
0.5000000000000061
 40
1.0
 40
1.0
 40
1.0
 40
1.0
 10
96.1947024847932
 20
-16.6378902695957
 30
0.0
 10
96.28715374626887
 20
-16.6969573567583
 30
0.0
 10
96.38802003325266
 20
-16.74175398757322
 30
0.0
 10
96.58869295934483
 20
-16.83335196848043
 30
0.0
 10
96.69145957472303
 20
-16.87493160445029
 30
0.0
 10
97.0031630575335
 20
-16.9934703659354
 30
0.0
 10
97.21647512865603
 20
-17.06249761458612
 30
0.0
 10
97.86760012219078
 20
-17.24735479410415
 30
0.0
 10
98.31655408448276
 20
-17.3410223246506
 30
0.0
 10
98.77525893709549
 20
-17.4115809107322
 30
0.0
  0
SPLINE
  5
83
330
1F
100
AcDbEntity
  8
0
  6
Continuous
 62
     7
370
    25
100
AcDbSpline
210
0.0
220
0.0
230
1.0
 70
     8
 71
     3
 72
    14
 73
    10
 74
     0
 42
0.000000001
 43
0.00000001
 40
0.0
 40
0.0
 40
0.0
 40
0.0
 40
0.499999999999999
 40
0.499999999999999
 40
0.7500000000000044
 40
0.7500000000000044
 40
0.8750000000000022
 40
0.8750000000000022
 40
1.0
 40
1.0
 40
1.0
 40
1.0
 10
95.9325604576032
 20
-21.3989098758107
 30
0.0
 10
95.71631026837754
 20
-20.98827072577089
 30
0.0
 10
95.48139271675274
 20
-20.59438367283617
 30
0.0
 10
95.09435614920625
 20
-20.03910119570657
 30
0.0
 10
94.959556452019
 20
-19.8599480701929
 30
0.0
 10
94.74587288470902
 20
-19.60392105554071
 30
0.0
 10
94.67306111640842
 20
-19.52032506424522
 30
0.0
 10
94.52104448999533
 20
-19.36047901747913
 30
0.0
 10
94.44581103765026
 20
-19.27972832936853
 30
0.0
 10
94.35983028512379
 20
-19.2115853419852
 30
0.0
  0
SPLINE
  5
85
330
1F
100
AcDbEntity
  8
0
  6
Continuous
 62
     7
370
    25
100
AcDbSpline
210
0.0
220
0.0
230
1.0
 70
     8
 71
     3
 72
    14
 73
    10
 74
     0
 42
0.000000001
 43
0.00000001
 40
0.0
 40
0.0
 40
0.0
 40
0.0
 40
0.1250000000000038
 40
0.1250000000000038
 40
0.2500000000000075
 40
0.2500000000000075
 40
0.4999999999999999
 40
0.4999999999999999
 40
1.0
 40
1.0
 40
1.0
 40
1.0
 10
92.11754797438022
 20
-21.7472436786506
 30
0.0
 10
92.19569821601318
 20
-21.82424170633351
 30
0.0
 10
92.2850465893665
 20
-21.88903070355867
 30
0.0
 10
92.46229003946948
 20
-22.02034929618005
 30
0.0
 10
92.55416606531975
 20
-22.08238669810651
 30
0.0
 10
92.8344124848419
 20
-22.26314190139184
 30
0.0
 10
93.02871160343916
 20
-22.37501081242382
 30
0.0
 10
93.62717398489077
 20
-22.69120491738738
 30
0.0
 10
94.0468426512873
 20
-22.87616836505248
 30
0.0
 10
94.4808537473894
 20
-23.0405551782374
 30
0.0
  0
SPLINE
  5
8B
330
1F
100
AcDbEntity
  8
0
  6
Continuous
 62
     7
370
    25
100
AcDbSpline
210
0.0
220
0.0
230
1.0
 70
     8
 71
     3
 72
    14
 73
    10
 74
     0
 42
0.000000001
 43
0.00000001
 40
0.0
 40
0.0
 40
0.0
 40
0.0
 40
0.4999999999999971
 40
0.4999999999999971
 40
0.7499999999999969
 40
0.7499999999999969
 40
0.8749999999999984
 40
0.8749999999999984
 40
1.0
 40
1.0
 40
1.0
 40
1.0
 10
90.8712627430882
 20
-26.349721191409
 30
0.0
 10
90.74511481933935
 20
-25.90309454954322
 30
0.0
 10
90.5972245030148
 20
-25.46897276840002
 30
0.0
 10
90.33409533177394
 20
-24.84535511849826
 30
0.0
 10
90.23948936063144
 20
-24.64209048564934
 30
0.0
 10
90.08370630146241
 20
-24.34723096376508
 30
0.0
 10
90.02986622888974
 20
-24.25032332758945
 30
0.0
 10
89.91440539234607
 20
-24.06236426662876
 30
0.0
 10
89.85760498353882
 20
-23.96773626051215
 30
0.0
 10
89.7876708404707
 20
-23.8832059572611
 30
0.0
  0
SPLINE
  5
8D
330
1F
100
AcDbEntity
  8
0
  6
Continuous
 62
     7
370
    25
100
AcDbSpline
210
0.0
220
0.0
230
1.0
 70
     8
 71
     3
 72
    14
 73
    10
 74
     0
 42
0.000000001
 43
0.00000001
 40
0.0
 40
0.0
 40
0.0
 40
0.0
 40
0.1250000000000018
 40
0.1250000000000018
 40
0.2500000000000036
 40
0.2500000000000036
 40
0.5000000000000072
 40
0.5000000000000072
 40
1.0
 40
1.0
 40
1.0
 40
1.0
 10
87.06719476593662
 20
-25.89725736903361
 30
0.0
 10
87.12762844716224
 20
-25.98882115394803
 30
0.0
 10
87.20155395422704
 20
-26.07077092751405
 30
0.0
 10
87.34762153906345
 20
-26.23607087921569
 30
0.0
 10
87.42459155218465
 20
-26.31585471494583
 30
0.0
 10
87.66113279511725
 20
-26.55092649028813
 30
0.0
 10
87.82792715735418
 20
-26.70074785548272
 30
0.0
 10
88.34757124891033
 20
-27.13445968623716
 30
0.0
 10
88.71961308490658
 20
-27.4026352608074
 30
0.0
 10
89.10996205697279
 20
-27.6536658085416
 30
0.0
  0
SPLINE
  5
93
330
1F
100
AcDbEntity
  8
0
  6
Continuous
 62
     7
370
    25
100
AcDbSpline
210
0.0
220
0.0
230
1.0
 70
     8
 71
     3
 72
    14
 73
    10
 74
     0
 42
0.000000001
 43
0.00000001
 40
0.0
 40
0.0
 40
0.0
 40
0.0
 40
0.4999999999999978
 40
0.4999999999999978
 40
0.7499999999999986
 40
0.7499999999999986
 40
0.8749999999999992
 40
0.8749999999999992
 40
1.0
 40
1.0
 40
1.0
 40
1.0
 10
84.89123497549012
 20
-30.1400424358903
 30
0.0
 10
84.86070258681343
 20
-29.67694802961125
 30
0.0
 10
84.80630302226642
 20
-29.22156472523179
 30
0.0
 10
84.67858125474817
 20
-28.55686698630874
 30
0.0
 10
84.6283037445594
 20
-28.33837448595213
 30
0.0
 10
84.5372296607469
 20
-28.01756923283463
 30
0.0
 10
84.50471435342695
 20
-27.91158528049427
 30
0.0
 10
84.43085549935206
 20
-27.70372791823058
 30
0.0
 10
84.39497058450618
 20
-27.59935829205239
 30
0.0
 10
84.3441395085297
 20
-27.5021350528055
 30
0.0
  0
SPLINE
  5
95
330
1F
100
AcDbEntity
  8
0
  6
Continuous
 62
     7
370
    25
100
AcDbSpline
210
0.0
220
0.0
230
1.0
 70
     8
 71
     3
 72
    14
 73
    10
 74
     0
 42
0.000000001
 43
0.00000001
 40
0.0
 40
0.0
 40
0.0
 40
0.0
 40
0.1249999999999968
 40
0.1249999999999968
 40
0.2499999999999936
 40
0.2499999999999936
 40
0.4999999999999957
 40
0.4999999999999957
 40
1.0
 40
1.0
 40
1.0
 40
1.0
 10
81.264367528955
 20
-28.9065558284997
 30
0.0
 10
81.30444340791023
 20
-29.00868359387504
 30
0.0
 10
81.35971514929437
 20
-29.10421254543641
 30
0.0
 10
81.46822301449647
 20
-29.29626945513195
 30
0.0
 10
81.52692305597338
 20
-29.390312788199
 30
0.0
 10
81.70942113494655
 20
-29.66942737101658
 30
0.0
 10
81.84142102682682
 20
-29.85065327779162
 30
0.0
 10
82.25953588815834
 20
-30.38292754615353
 30
0.0
 10
82.56769088026402
 20
-30.722594688172
 30
0.0
 10
82.89731760511481
 20
-31.0492977309396
 30
0.0
  0
SPLINE
  5
9B
330
1F
100
AcDbEntity
  8
0
  6
Continuous
 62
     7
370
    25
100
AcDbSpline
210
0.0
220
0.0
230
1.0
 70
     8
 71
     3
 72
    14
 73
    10
 74
     0
 42
0.000000001
 43
0.00000001
 40
0.0
 40
0.0
 40
0.0
 40
0.0
 40
0.5
 40
0.5
 40
0.75
 40
0.75
 40
0.875
 40
0.875
 40
1.0
 40
1.0
 40
1.0
 40
1.0
 10
78.25383306360989
 20
-32.60421838289171
 30
0.0
 10
78.32025062189791
 20
-32.14489565991802
 30
0.0
 10
78.36171933114018
 20
-31.68815326788401
 30
0.0
 10
78.37498702146263
 20
-31.01142592070475
 30
0.0
 10
78.37123534068117
 20
-30.78725472354874
 30
0.0
 10
78.3488506067094
 20
-30.45452446815432
 30
0.0
 10
78.3390811395981
 20
-30.34409620693397
 30
0.0
 10
78.31005225432872
 20
-30.12542490750815
 30
0.0
 10
78.29665117641754
 20
-30.01587511475162
 30
0.0
 10
78.26714472946813
 20
-29.9102080615948
 30
0.0
  0
SPLINE
  5
9D
330
1F
100
AcDbEntity
  8
0
  6
Continuous
 62
     7
370
    25
100
AcDbSpline
210
0.0
220
0.0
230
1.0
 70
     8
 71
     3
 72
    14
 73
    10
 74
     0
 42
0.000000001
 43
0.00000001
 40
0.0
 40
0.0
 40
0.0
 40
0.0
 40
0.1250000000000009
 40
0.1250000000000009
 40
0.2500000000000017
 40
0.2500000000000017
 40
0.5000000000000034
 40
0.5000000000000034
 40
1.0
 40
1.0
 40
1.0
 40
1.0
 10
74.9626776587457
 20
-30.6436182741543
 30
0.0
 10
74.98064422721427
 20
-30.75184654657788
 30
0.0
 10
75.0148465625968
 20
-30.856779602555
 30
0.0
 10
75.08105239377639
 20
-31.06719966169932
 30
0.0
 10
75.11891699012227
 20
-31.17139234717841
 30
0.0
 10
75.23939586336243
 20
-31.48235109086136
 30
0.0
 10
75.33083225620582
 20
-31.68706109747287
 30
0.0
 10
75.62914426153226
 20
-32.29463486377902
 30
0.0
 10
75.85994455791058
 20
-32.69094848923832
 30
0.0
 10
76.11444276593711
 20
-33.079045536373
 30
0.0
  0
SPLINE
  5
A3
330
1F
100
AcDbEntity
  8
0
  6
Continuous
 62
     7
370
    25
100
AcDbSpline
210
0.0
220
0.0
230
1.0
 70
     8
 71
     3
 72
    14
 73
    10
 74
     0
 42
0.000000001
 43
0.00000001
 40
0.0
 40
0.0
 40
0.0
 40
0.0
 40
0.499999999999995
 40
0.499999999999995
 40
0.7499999999999925
 40
0.7499999999999925
 40
0.8749999999999962
 40
0.8749999999999962
 40
1.0
 40
1.0
 40
1.0
 40
1.0
 10
71.2491433207849
 20
-33.63455271910102
 30
0.0
 10
71.40960806003287
 20
-33.19907628650252
 30
0.0
 10
71.5451326614817
 20
-32.76093664103803
 30
0.0
 10
71.69880994791312
 20
-32.1017559179726
 30
0.0
 10
71.74174806299138
 20
-31.88170338102592
 30
0.0
 10
71.78903099914875
 20
-31.55159003213172
 30
0.0
 10
71.80243434483778
 20
-31.4415437069402
 30
0.0
 10
71.8195041299569
 20
-31.22161545543882
 30
0.0
 10
71.82917258039177
 20
-31.11167334772648
 30
0.0
 10
71.82228033578708
 20
-31.0021806379285
 30
0.0
  0
SPLINE
  5
A5
330
1F
100
AcDbEntity
  8
0
  6
Continuous
 62
     7
370
    25
100
AcDbSpline
210
0.0
220
0.0
230
1.0
 70
     8
 71
     3
 72
    14
 73
    10
 74
     0
 42
0.000000001
 43
0.00000001
 40
0.0
 40
0.0
 40
0.0
 40
0.0
 40
0.1249999999999985
 40
0.1249999999999985
 40
0.249999999999997
 40
0.249999999999997
 40
0.4999999999999992
 40
0.4999999999999992
 40
1.0
 40
1.0
 40
1.0
 40
1.0
 10
68.4375392414998
 20
-31.03252674177169
 30
0.0
 10
68.43261127422765
 20
-31.14212542640425
 30
0.0
 10
68.44424939742977
 20
-31.25187650872392
 30
0.0
 10
68.46525968207447
 20
-31.4714633510247
 30
0.0
 10
68.48063396873364
 20
-31.58125166858875
 30
0.0
 10
68.53382813135974
 20
-31.9104641838918
 30
0.0
 10
68.58070481603647
 20
-32.12971148074395
 30
0.0
 10
68.74617629926816
 20
-32.78603085594361
 30
0.0
 10
68.8895348194581
 20
-33.22167015768595
 30
0.0
 10
69.05778171775648
 20
-33.6541995059337
 30
0.0
  0
SPLINE
  5
AB
330
1F
100
AcDbEntity
  8
0
  6
Continuous
 62
     7
370
    25
100
AcDbSpline
210
0.0
220
0.0
230
1.0
 70
     8
 71
     3
 72
    14
 73
    10
 74
     0
 42
0.000000001
 43
0.00000001
 40
0.0
 40
0.0
 40
0.0
 40
0.0
 40
0.5000000000000023
 40
0.5000000000000023
 40
0.7500000000000001
 40
0.7500000000000001
 40
0.8750000000000001
 40
0.8750000000000001
 40
1.0
 40
1.0
 40
1.0
 40
1.0
 10
64.183304301007
 20
-33.1860148899332
 30
0.0
 10
64.4308031421118
 20
-32.79341715746575
 30
0.0
 10
64.65446056036821
 20
-32.39302906350221
 30
0.0
 10
64.94183100806505
 20
-31.78020432524731
 30
0.0
 10
65.0295823173342
 20
-31.57388780030461
 30
0.0
 10
65.1444664324225
 20
-31.26081889531626
 30
0.0
 10
65.180456800389
 20
-31.15596405862574
 30
0.0
 10
65.24287922437613
 20
-30.94439077497184
 30
0.0
 10
65.27519464548054
 20
-30.83886134997063
 30
0.0
 10
65.2912178273811
 20
-30.730328340355
 30
0.0
  0
SPLINE
  5
AD
330
1F
100
AcDbEntity
  8
0
  6
Continuous
 62
     7
370
    25
100
AcDbSpline
210
0.0
220
0.0
230
1.0
 70
     8
 71
     3
 72
    14
 73
    10
 74
     0
 42
0.000000001
 43
0.00000001
 40
0.0
 40
0.0
 40
0.0
 40
0.0
 40
0.1249999999999998
 40
0.1249999999999998
 40
0.2499999999999997
 40
0.2499999999999997
 40
0.4999999999999998
 40
0.4999999999999998
 40
1.0
 40
1.0
 40
1.0
 40
1.0
 10
61.97413213713921
 20
-30.0562840651272
 30
0.0
 10
61.9465250099414
 20
-30.16246317353556
 30
0.0
 10
61.93509027913485
 20
-30.272235633258
 30
0.0
 10
61.90998676698717
 20
-30.49139226001251
 30
0.0
 10
61.90219881385911
 20
-30.60197793336063
 30
0.0
 10
61.88578342570914
 20
-30.93505605362925
 30
0.0
 10
61.88605166616036
 20
-31.15925848178355
 30
0.0
 10
61.91145072946011
 20
-31.83563915981101
 30
0.0
 10
61.96110201820902
 20
-32.29156460991894
 30
0.0
 10
62.0357444099951
 20
-32.74962265125699
 30
0.0
  0
SPLINE
  5
B3
330
1F
100
AcDbEntity
  8
0
  6
Continuous
 62
     7
370
    25
100
AcDbSpline
210
0.0
220
0.0
230
1.0
 70
     8
 71
     3
 72
    14
 73
    10
 74
     0
 42
0.000000001
 43
0.00000001
 40
0.0
 40
0.0
 40
0.0
 40
0.0
 40
0.5000000000000039
 40
0.5000000000000039
 40
0.7500000000000019
 40
0.7500000000000019
 40
0.875000000000001
 40
0.875000000000001
 40
1.0
 40
1.0
 40
1.0
 40
1.0
 10
57.3651270750979
 20
-31.2782081508462
 30
0.0
 10
57.68884313107649
 20
-30.94564752330938
 30
0.0
 10
57.99085846373067
 20
-30.60050986183021
 30
0.0
 10
58.39936260517247
 20
-30.06082449010735
 30
0.0
 10
58.52809195534024
 20
-29.87726099932426
 30
0.0
 10
58.7055562622544
 20
-29.59491915166204
 30
0.0
 10
58.76256070071717
 20
-29.49983846298474
 30
0.0
 10
58.86760760410868
 20
-29.3058669149156
 30
0.0
 10
58.92115765691052
 20
-29.20936231488462
 30
0.0
 10
58.95939597538249
 20
-29.1065324187704
 30
0.0
  0
SPLINE
  5
B5
330
1F
100
AcDbEntity
  8
0
  6
Continuous
 62
     7
370
    25
100
AcDbSpline
210
0.0
220
0.0
230
1.0
 70
     8
 71
     3
 72
    14
 73
    10
 74
     0
 42
0.000000001
 43
0.00000001
 40
0.0
 40
0.0
 40
0.0
 40
0.0
 40
0.1249999999999993
 40
0.1249999999999993
 40
0.2499999999999985
 40
0.2499999999999985
 40
0.499999999999999
 40
0.499999999999999
 40
1.0
 40
1.0
 40
1.0
 40
1.0
 10
55.85493825099259
 20
-27.7575567337224
 30
0.0
 10
55.80585852780171
 20
-27.85567572936481
 30
0.0
 10
55.77185069559285
 20
-27.96067198325382
 30
0.0
 10
55.70173053059268
 20
-28.16982019824252
 30
0.0
 10
55.67112070859987
 20
-28.2763701028007
 30
0.0
 10
55.58581320090686
 20
-28.59875671589285
 30
0.0
 10
55.53946127373754
 20
-28.81811555339604
 30
0.0
 10
55.42367785615951
 20
-29.48499645298782
 30
0.0
 10
55.37745191391073
 20
-29.94128192151569
 30
0.0
 10
55.35522756847529
 20
-30.4048493215336
 30
0.0
  0
SPLINE
  5
BB
330
1F
100
AcDbEntity
  8
0
  6
Continuous
 62
     7
370
    25
100
AcDbSpline
210
0.0
220
0.0
230
1.0
 70
     8
 71
     3
 72
    14
 73
    10
 74
     0
 42
0.000000001
 43
0.00000001
 40
0.0
 40
0.0
 40
0.0
 40
0.0
 40
0.4999999999999987
 40
0.4999999999999987
 40
0.749999999999998
 40
0.749999999999998
 40
0.874999999999999
 40
0.874999999999999
 40
1.0
 40
1.0
 40
1.0
 40
1.0
 10
51.09259870507411
 20
-27.9945128110106
 30
0.0
 10
51.47838403092612
 20
-27.73652378363616
 30
0.0
 10
51.84555775870279
 20
-27.46172072659634
 30
0.0
 10
52.35734200268845
 20
-27.01876156184804
 30
0.0
 10
52.52142330343968
 20
-26.86597371060725
 30
0.0
 10
52.75371176040037
 20
-26.62669861384034
 30
0.0
 10
52.82923890186075
 20
-26.54554755551921
 30
0.0
 10
52.9723192309071
 20
-26.37765523046423
 30
0.0
 10
53.04476352113841
 20
-26.29439316950618
 30
0.0
 10
53.10354577817581
 20
-26.2017605467851
 30
0.0
  0
SPLINE
  5
BD
330
1F
100
AcDbEntity
  8
0
  6
Continuous
 62
     7
370
    25
100
AcDbSpline
210
0.0
220
0.0
230
1.0
 70
     8
 71
     3
 72
    14
 73
    10
 74
     0
 42
0.000000001
 43
0.00000001
 40
0.0
 40
0.0
 40
0.0
 40
0.0
 40
0.1250000000000009
 40
0.1250000000000009
 40
0.2500000000000018
 40
0.2500000000000018
 40
0.5
 40
0.5
 40
1.0
 40
1.0
 40
1.0
 40
1.0
 10
50.3473957190347
 20
-24.2368101624571
 30
0.0
 10
50.27898841926535
 20
-24.32258077439737
 30
0.0
 10
50.22389379110854
 20
-24.41821198232972
 30
0.0
 10
50.1118215609409
 20
-24.60821100495293
 30
0.0
 10
50.05972766618655
 20
-24.70606839860872
 30
0.0
 10
49.90925638638701
 20
-25.0036736625497
 30
0.0
 10
49.81831009323608
 20
-25.20860187560265
 30
0.0
 10
49.56640448571855
 20
-25.83683710139668
 30
0.0
 10
49.42632160795081
 20
-26.2735407238785
 30
0.0
 10
49.30820183584829
 20
-26.7223573627431
 30
0.0
  0
SPLINE
  5
C3
330
1F
100
AcDbEntity
  8
0
  6
Continuous
 62
     7
370
    25
100
AcDbSpline
210
0.0
220
0.0
230
1.0
 70
     8
 71
     3
 72
    14
 73
    10
 74
     0
 42
0.000000001
 43
0.00000001
 40
0.0
 40
0.0
 40
0.0
 40
0.0
 40
0.4999999999999959
 40
0.4999999999999959
 40
0.7499999999999947
 40
0.7499999999999947
 40
0.8749999999999973
 40
0.8749999999999973
 40
1.0
 40
1.0
 40
1.0
 40
1.0
 10
45.63985877963629
 20
-23.4784421136956
 30
0.0
 10
46.07085270540611
 20
-23.3063000449433
 30
0.0
 10
46.48713757451898
 20
-23.11384180459187
 30
0.0
 10
47.07983449377267
 20
-22.78696828787194
 30
0.0
 10
47.27209660491596
 20
-22.67163363842972
 30
0.0
 10
47.54905709170938
 20
-22.4858827624564
 30
0.0
 10
47.63980603766598
 20
-22.42220802514606
 30
0.0
 10
47.81466649541327
 20
-22.28773262334671
 30
0.0
 10
47.90283885996462
 20
-22.22135205306042
 30
0.0
 10
47.97959598886591
 20
-22.142965193847
 30
0.0
  0
SPLINE
  5
C5
330
1F
100
AcDbEntity
  8
0
  6
Continuous
 62
     7
370
    25
100
AcDbSpline
210
0.0
220
0.0
230
1.0
 70
     8
 71
     3
 72
    14
 73
    10
 74
     0
 42
0.000000001
 43
0.00000001
 40
0.0
 40
0.0
 40
0.0
 40
0.0
 40
0.1249999999999986
 40
0.1249999999999986
 40
0.2499999999999971
 40
0.2499999999999971
 40
0.4999999999999991
 40
0.4999999999999991
 40
1.0
 40
1.0
 40
1.0
 40
1.0
 10
45.6922105780333
 20
-19.647917870912
 30
0.0
 10
45.60746542894029
 20
-19.71759151183707
 30
0.0
 10
45.53369190445916
 20
-19.7996781311347
 30
0.0
 10
45.3845657033646
 20
-19.96222409238778
 30
0.0
 10
45.3132644890235
 20
-20.04711213746659
 30
0.0
 10
45.10420575408639
 20
-20.30692927415319
 30
0.0
 10
44.97263988437258
 20
-20.48847051649128
 30
0.0
 10
44.5956215707426
 20
-21.05060317451249
 30
0.0
 10
44.36780405141462
 20
-21.44863890709987
 30
0.0
 10
44.1589512534784
 20
-21.8630893440417
 30
0.0
  0
SPLINE
  5
CB
330
1F
100
AcDbEntity
  8
0
  6
Continuous
 62
     7
370
    25
100
AcDbSpline
210
0.0
220
0.0
230
1.0
 70
     8
 71
     3
 72
    14
 73
    10
 74
     0
 42
0.000000001
 43
0.00000001
 40
0.0
 40
0.0
 40
0.0
 40
0.0
 40
0.5000000000000008
 40
0.5000000000000008
 40
0.7500000000000011
 40
0.7500000000000011
 40
0.8750000000000006
 40
0.8750000000000006
 40
1.0
 40
1.0
 40
1.0
 40
1.0
 10
41.24521819867511
 20
-17.9273700188855
 30
0.0
 10
41.70258422167522
 20
-17.84859834318677
 30
0.0
 10
42.14978658578003
 20
-17.74689626814705
 30
0.0
 10
42.79749248085618
 20
-17.5503943406483
 30
0.0
 10
43.00953262555828
 20
-17.47755357062292
 30
0.0
 10
43.31906063990743
 20
-17.35344512005443
 30
0.0
 10
43.42106522596106
 20
-17.31002959532079
 30
0.0
 10
43.62006357133062
 20
-17.21484833712037
 30
0.0
 10
43.72011045477338
 20
-17.16825040695657
 30
0.0
 10
43.81148780068448
 20
-17.1075351931403
 30
0.0
  0
SPLINE
  5
CD
330
1F
100
AcDbEntity
  8
0
  6
Continuous
 62
     7
370
    25
100
AcDbSpline
210
0.0
220
0.0
230
1.0
 70
     8
 71
     3
 72
    14
 73
    10
 74
     0
 42
0.000000001
 43
0.00000001
 40
0.0
 40
0.0
 40
0.0
 40
0.0
 40
0.1250000000000027
 40
0.1250000000000027
 40
0.2500000000000054
 40
0.2500000000000054
 40
0.5000000000000036
 40
0.5000000000000036
 40
1.0
 40
1.0
 40
1.0
 40
1.0
 10
42.0928367567068
 20
-14.1914364721761
 30
0.0
 10
41.99545752795786
 20
-14.24196806964439
 30
0.0
 10
41.90622936417675
 20
-14.30692252115065
 30
0.0
 10
41.72656672273014
 20
-14.43491138254442
 30
0.0
 10
41.63917439401035
 20
-14.50312006413827
 30
0.0
 10
41.38066507382723
 20
-14.71379381795681
 30
0.0
 10
41.21422968738054
 20
-14.86401386615801
 30
0.0
 10
40.72857617707747
 20
-15.33547606183933
 30
0.0
 10
40.42298073497427
 20
-15.67744783303555
 30
0.0
 10
40.13252278066111
 20
-16.0394185952015
 30
0.0
  0
SPLINE
  5
D3
330
1F
100
AcDbEntity
  8
0
  6
Continuous
 62
     7
370
    25
100
AcDbSpline
210
0.0
220
0.0
230
1.0
 70
     8
 71
     3
 72
    14
 73
    10
 74
     0
 42
0.000000001
 43
0.00000001
 40
0.0
 40
0.0
 40
0.0
 40
0.0
 40
0.5000000000000037
 40
0.5000000000000037
 40
0.7500000000000056
 40
0.7500000000000056
 40
0.8750000000000028
 40
0.8750000000000028
 40
1.0
 40
1.0
 40
1.0
 40
1.0
 10
38.10074384340381
 20
-11.5839050141225
 30
0.0
 10
38.56449287374079
 20
-11.60194643170093
 30
0.0
 10
39.02306784361465
 20
-11.59544539066562
 30
0.0
 10
39.69747485885927
 20
-11.53790312954109
 30
0.0
 10
39.92002586531532
 20
-11.51073973011141
 30
0.0
 10
40.2485935477136
 20
-11.45369783977585
 30
0.0
 10
40.35739568398062
 20
-11.43243899438054
 30
0.0
 10
40.57183473438079
 20
-11.3807117574928
 30
0.0
 10
40.67938360783013
 20
-11.35593302060066
 30
0.0
 10
40.78138754225729
 20
-11.3155429983699
 30
0.0
  0
SPLINE
  5
D5
330
1F
100
AcDbEntity
  8
0
  6
Continuous
 62
     7
370
    25
100
AcDbSpline
210
0.0
220
0.0
230
1.0
 70
     8
 71
     3
 72
    14
 73
    10
 74
     0
 42
0.000000001
 43
0.00000001
 40
0.0
 40
0.0
 40
0.0
 40
0.0
 40
0.1250000000000036
 40
0.1250000000000036
 40
0.2500000000000072
 40
0.2500000000000072
 40
0.5000000000000067
 40
0.5000000000000067
 40
1.0
 40
1.0
 40
1.0
 40
1.0
 10
39.7065841627591
 20
-8.105840386476693
 30
0.0
 10
39.6008267939267
 20
-8.135021467201792
 30
0.0
 10
39.50004368976852
 20
-8.180004929699463
 30
0.0
 10
39.29769672751763
 20
-8.267842963832358
 30
0.0
 10
39.1980327485394
 20
-8.31639123525417
 30
0.0
 10
38.90137094086723
 20
-8.468714152237592
 30
0.0
 10
38.70734006272149
 20
-8.581047669359805
 30
0.0
 10
38.13427674456904
 20
-8.941234242423697
 30
0.0
 10
37.7642593669218
 20
-9.212196244865197
 30
0.0
 10
37.40489066260579
 20
-9.50586747301965
 30
0.0
  0
SPLINE
  5
DB
330
1F
100
AcDbEntity
  8
0
  6
Continuous
 62
     7
370
    25
100
AcDbSpline
210
0.0
220
0.0
230
1.0
 70
     8
 71
     3
 72
    14
 73
    10
 74
     0
 42
0.000000001
 43
0.00000001
 40
0.0
 40
0.0
 40
0.0
 40
0.0
 40
0.5
 40
0.5
 40
0.75
 40
0.75
 40
0.875
 40
0.875
 40
1.0
 40
1.0
 40
1.0
 40
1.0
 10
36.3438643320097
 20
-4.725286959437299
 30
0.0
 10
36.79372831174322
 20
-4.839352973765298
 30
0.0
 10
37.24363396071512
 20
-4.928337093430154
 30
0.0
 10
37.91526727339906
 20
-5.012269371609213
 30
0.0
 10
38.13860259470847
 20
-5.031970513674725
 30
0.0
 10
38.47184996079228
 20
-5.04448818789722
 30
0.0
 10
38.58269447182749
 20
-5.046315135395369
 30
0.0
 10
38.8032022117627
 20
-5.040302648286946
 30
0.0
 10
38.91355267337131
 20
-5.038426054371782
 30
0.0
 10
39.02172513491192
 20
-5.02012646150937
 30
0.0
  0
SPLINE
  5
DD
330
1F
100
AcDbEntity
  8
0
  6
Continuous
 62
     7
370
    25
100
AcDbSpline
210
0.0
220
0.0
230
1.0
 70
     8
 71
     3
 72
    14
 73
    10
 74
     0
 42
0.000000001
 43
0.00000001
 40
0.0
 40
0.0
 40
0.0
 40
0.0
 40
0.1249999999999963
 40
0.1249999999999963
 40
0.2499999999999926
 40
0.2499999999999926
 40
0.4999999999999927
 40
0.4999999999999927
 40
1.0
 40
1.0
 40
1.0
 40
1.0
 10
38.63774348505599
 20
-1.65709936468887
 30
0.0
 10
38.5282300806391
 20
-1.663654575416787
 30
0.0
 10
38.42029674136567
 20
-1.686701055739998
 30
0.0
 10
38.20410899152959
 20
-1.730549319026834
 30
0.0
 10
38.09652915641484
 20
-1.757315387854871
 30
0.0
 10
37.77468040579046
 20
-1.844630225604751
 30
0.0
 10
37.56153411638362
 20
-1.914167697913641
 30
0.0
 10
36.92610660724879
 20
-2.147336766750207
 30
0.0
 10
36.50783882899983
 20
-2.335446660709622
 30
0.0
 10
36.0952655115026
 20
-2.547983512992091
 30
0.0
  0
SPLINE
  5
E3
330
1F
100
AcDbEntity
  8
0
  6
Continuous
 62
     7
370
    25
100
AcDbSpline
210
0.0
220
0.0
230
1.0
 70
     8
 71
     3
 72
    14
 73
    10
 74
     0
 42
0.000000001
 43
0.00000001
 40
0.0
 40
0.0
 40
0.0
 40
0.0
 40
0.5
 40
0.5
 40
0.75
 40
0.75
 40
0.875
 40
0.875
 40
1.0
 40
1.0
 40
1.0
 40
1.0
 10
36.051363729584
 20
2.34872962487967
 30
0.0
 10
36.46768144411797
 20
2.143624245974673
 30
0.0
 10
36.88925473643641
 20
1.963043998635258
 30
0.0
 10
37.52876074794035
 20
1.741305424460661
 30
0.0
 10
37.74311955888077
 20
1.675600775344812
 30
0.0
 10
38.06648209965335
 20
1.594070618994244
 30
0.0
 10
38.17452454843379
 20
1.569237724975046
 30
0.0
 10
38.39146373155531
 20
1.529272687766295
 30
0.0
 10
38.49979293663301
 20
1.508165122546308
 30
0.0
 10
38.60940626964619
 20
1.50357450602033
 30
0.0
  0
SPLINE
  5
E5
330
1F
100
AcDbEntity
  8
0
  6
Continuous
 62
     7
370
    25
100
AcDbSpline
210
0.0
220
0.0
230
1.0
 70
     8
 71
     3
 72
    14
 73
    10
 74
     0
 42
0.000000001
 43
0.00000001
 40
0.0
 40
0.0
 40
0.0
 40
0.0
 40
0.1250000000000029
 40
0.1250000000000029
 40
0.2500000000000058
 40
0.2500000000000058
 40
0.5000000000000039
 40
0.5000000000000039
 40
1.0
 40
1.0
 40
1.0
 40
1.0
 10
38.93302819007981
 20
4.872945666042609
 30
0.0
 10
38.82454501135554
 20
4.889302819476316
 30
0.0
 10
38.71417864181414
 20
4.889200563106762
 30
0.0
 10
38.49359854644464
 20
4.891258450178901
 30
0.0
 10
38.38280461021313
 20
4.887444389590288
 30
0.0
 10
38.04983525144102
 20
4.868953708466658
 30
0.0
 10
37.82688906640892
 20
4.845251402188799
 30
0.0
 10
37.15686859756109
 20
4.749290444757134
 30
0.0
 10
36.70863072768877
 20
4.652253964297485
 30
0.0
 10
36.2608842307335
 20
4.530140368196429
 30
0.0
  0
SPLINE
  5
EB
330
1F
100
AcDbEntity
  8
0
  6
Continuous
 62
     7
370
    25
100
AcDbSpline
210
0.0
220
0.0
230
1.0
 70
     8
 71
     3
 72
    14
 73
    10
 74
     0
 42
0.000000001
 43
0.00000001
 40
0.0
 40
0.0
 40
0.0
 40
0.0
 40
0.5
 40
0.5
 40
0.7499999999999996
 40
0.7499999999999996
 40
0.8749999999999998
 40
0.8749999999999998
 40
1.0
 40
1.0
 40
1.0
 40
1.0
 10
37.2360257160264
 20
9.32897626919598
 30
0.0
 10
37.60060208351386
 20
9.041795614977431
 30
0.0
 10
37.97541824337888
 20
8.777511463291916
 30
0.0
 10
38.55484747231014
 20
8.427657632832869
 30
0.0
 10
38.75086126423526
 20
8.318821085119
 30
0.0
 10
39.05020648499989
 20
8.171841705697904
 30
0.0
 10
39.15072489806835
 20
8.125088181787792
 30
0.0
 10
39.35461424108419
 20
8.040892284161382
 30
0.0
 10
39.45618768354556
 20
7.997723061691539
 30
0.0
 10
39.5624512593979
 20
7.970442867747749
 30
0.0
  0
SPLINE
  5
ED
330
1F
100
AcDbEntity
  8
0
  6
Continuous
 62
     7
370
    25
100
AcDbSpline
210
0.0
220
0.0
230
1.0
 70
     8
 71
     3
 72
    14
 73
    10
 74
     0
 42
0.000000001
 43
0.00000001
 40
0.0
 40
0.0
 40
0.0
 40
0.0
 40
0.1250000000000008
 40
0.1250000000000008
 40
0.2500000000000017
 40
0.2500000000000017
 40
0.5000000000000037
 40
0.5000000000000037
 40
1.0
 40
1.0
 40
1.0
 40
1.0
 10
40.57953291928771
 20
11.1989004032422
 30
0.0
 10
40.47682120172486
 20
11.23745503474223
 30
0.0
 10
40.36884534186279
 20
11.26030147142015
 30
0.0
 10
40.15351330958786
 20
11.3081755693116
 30
0.0
 10
40.04434749890148
 20
11.32748020971192
 30
0.0
 10
39.71480989072359
 20
11.37862181670783
 30
0.0
 10
39.49180762816765
 20
11.40179058098156
 30
0.0
 10
38.81647730920884
 20
11.44723168926633
 30
0.0
 10
38.35785949351456
 20
11.44550958213874
 30
0.0
 10
37.89450848754129
 20
11.4191561923312
 30
0.0
  0
SPLINE
  5
F3
330
1F
100
AcDbEntity
  8
0
  6
Continuous
 62
     7
370
    25
100
AcDbSpline
210
0.0
220
0.0
230
1.0
 70
     8
 71
     3
 72
    14
 73
    10
 74
     0
 42
0.000000001
 43
0.00000001
 40
0.0
 40
0.0
 40
0.0
 40
0.0
 40
0.4999999999999941
 40
0.4999999999999941
 40
0.7499999999999933
 40
0.7499999999999933
 40
0.8749999999999967
 40
0.8749999999999967
 40
1.0
 40
1.0
 40
1.0
 40
1.0
 10
39.84607487789029
 20
15.9103827002154
 30
0.0
 10
40.14297616164284
 20
15.55367794332192
 30
0.0
 10
40.45465392429879
 20
15.21724037289129
 30
0.0
 10
40.94868253294291
 20
14.75456157732401
 30
0.0
 10
41.11778456256734
 20
14.60734981040292
 30
0.0
 10
41.38002964075853
 20
14.40134491207721
 30
0.0
 10
41.46863088112307
 20
14.33471411161938
 30
0.0
 10
41.65055944137403
 20
14.20996711831829
 30
0.0
 10
41.74093787438029
 20
14.14662294076975
 30
0.0
 10
41.83920746489748
 20
14.0978454447881
 30
0.0
  0
SPLINE
  5
F5
330
1F
100
AcDbEntity
  8
0
  6
Continuous
 62
     7
370
    25
100
AcDbSpline
210
0.0
220
0.0
230
1.0
 70
     8
 71
     3
 72
    14
 73
    10
 74
     0
 42
0.000000001
 43
0.00000001
 40
0.0
 40
0.0
 40
0.0
 40
0.0
 40
0.1250000000000005
 40
0.1250000000000005
 40
0.2500000000000011
 40
0.2500000000000011
 40
0.5000000000000007
 40
0.5000000000000007
 40
1.0
 40
1.0
 40
1.0
 40
1.0
 10
43.50529751520699
 20
17.0442902695956
 30
0.0
 10
43.4128462537303
 20
17.10335735675819
 30
0.0
 10
43.3119799667472
 20
17.14815398757312
 30
0.0
 10
43.1113070406556
 20
17.23975196848032
 30
0.0
 10
43.00854042527653
 20
17.28133160445018
 30
0.0
 10
42.69683694246793
 20
17.3998703659353
 30
0.0
 10
42.48352487134427
 20
17.46889761458591
 30
0.0
 10
41.8323998778089
 20
17.65375479410425
 30
0.0
 10
41.3834459155246
 20
17.7474223246501
 30
0.0
 10
40.92474106290459
 20
17.8179809107321
 30
0.0
  0
SPLINE
  5
FB
330
1F
100
AcDbEntity
  8
0
  6
Continuous
 62
     7
370
    25
100
AcDbSpline
210
0.0
220
0.0
230
1.0
 70
     8
 71
     3
 72
    14
 73
    10
 74
     0
 42
0.000000001
 43
0.00000001
 40
0.0
 40
0.0
 40
0.0
 40
0.0
 40
0.4999999999999998
 40
0.4999999999999998
 40
0.7499999999999974
 40
0.7499999999999974
 40
0.8749999999999988
 40
0.8749999999999988
 40
1.0
 40
1.0
 40
1.0
 40
1.0
 10
43.7674395423969
 20
21.8053098758105
 30
0.0
 10
43.98368973162744
 20
21.39467072577029
 30
0.0
 10
44.21860728324654
 20
21.00078367283621
 30
0.0
 10
44.60564385079429
 20
20.44550119570632
 30
0.0
 10
44.74044354798163
 20
20.26634807019256
 30
0.0
 10
44.95412711529103
 20
20.01032105554066
 30
0.0
 10
45.02693888359197
 20
19.92672506424512
 30
0.0
 10
45.17895551000454
 20
19.76687901747903
 30
0.0
 10
45.25418896235097
 20
19.68612832936971
 30
0.0
 10
45.3401697148763
 20
19.617985341985
 30
0.0
  0
SPLINE
  5
FD
330
1F
100
AcDbEntity
  8
0
  6
Continuous
 62
     7
370
    25
100
AcDbSpline
210
0.0
220
0.0
230
1.0
 70
     8
 71
     3
 72
    14
 73
    10
 74
     0
 42
0.000000001
 43
0.00000001
 40
0.0
 40
0.0
 40
0.0
 40
0.0
 40
0.1249999999999998
 40
0.1249999999999998
 40
0.2499999999999996
 40
0.2499999999999996
 40
0.4999999999999991
 40
0.4999999999999991
 40
1.0
 40
1.0
 40
1.0
 40
1.0
 10
47.5824520256199
 20
22.1536436786505
 30
0.0
 10
47.50430178398653
 20
22.23064170633336
 30
0.0
 10
47.41495341063377
 20
22.29543070355851
 30
0.0
 10
47.23770996053056
 20
22.42674929618003
 30
0.0
 10
47.14583393468043
 20
22.48878669810652
 30
0.0
 10
46.86558751515824
 20
22.66954190139155
 30
0.0
 10
46.671288396561
 20
22.78141081242361
 30
0.0
 10
46.07282601510938
 20
23.09760491738748
 30
0.0
 10
45.65315734870763
 20
23.28256836505238
 30
0.0
 10
45.21914625261081
 20
23.4469551782373
 30
0.0
  0
SPLINE
  5
103
330
1F
100
AcDbEntity
  8
0
  6
Continuous
 62
     7
370
    25
100
AcDbSpline
210
0.0
220
0.0
230
1.0
 70
     8
 71
     3
 72
    14
 73
    10
 74
     0
 42
0.000000001
 43
0.00000001
 40
0.0
 40
0.0
 40
0.0
 40
0.0
 40
0.4999999999999968
 40
0.4999999999999968
 40
0.7499999999999967
 40
0.7499999999999967
 40
0.8749999999999983
 40
0.8749999999999983
 40
1.0
 40
1.0
 40
1.0
 40
1.0
 10
48.82873725691191
 20
26.7561211914088
 30
0.0
 10
48.95488518065996
 20
26.30949454954849
 30
0.0
 10
49.10277549698528
 20
25.87537276839923
 30
0.0
 10
49.36590466822619
 20
25.25175511849839
 30
0.0
 10
49.4605106393687
 20
25.0484904856494
 30
0.0
 10
49.6162936985377
 20
24.75363096376482
 30
0.0
 10
49.67013377111053
 20
24.65672332758934
 30
0.0
 10
49.78559460765396
 20
24.46876426662866
 30
0.0
 10
49.84239501646262
 20
24.37413626051341
 30
0.0
 10
49.9123291595294
 20
24.2896059572609
 30
0.0
  0
SPLINE
  5
105
330
1F
100
AcDbEntity
  8
0
  6
Continuous
 62
     7
370
    25
100
AcDbSpline
210
0.0
220
0.0
230
1.0
 70
     8
 71
     3
 72
    14
 73
    10
 74
     0
 42
0.000000001
 43
0.00000001
 40
0.0
 40
0.0
 40
0.0
 40
0.0
 40
0.1249999999999997
 40
0.1249999999999997
 40
0.2499999999999994
 40
0.2499999999999994
 40
0.4999999999999988
 40
0.4999999999999988
 40
1.0
 40
1.0
 40
1.0
 40
1.0
 10
52.6328052340635
 20
26.3036573690335
 30
0.0
 10
52.57237155283746
 20
26.39522115394809
 30
0.0
 10
52.49844604577282
 20
26.47717092751378
 30
0.0
 10
52.35237846093694
 20
26.6424708792157
 30
0.0
 10
52.27540844781505
 20
26.72225471494573
 30
0.0
 10
52.03886720488366
 20
26.95732649028802
 30
0.0
 10
51.87207284264635
 20
27.10714785548252
 30
0.0
 10
51.35242875108896
 20
27.54085968623727
 30
0.0
 10
50.98038691509357
 20
27.80903526081288
 30
0.0
 10
50.5900379430273
 20
28.0600658085414
 30
0.0
  0
SPLINE
  5
10B
330
1F
100
AcDbEntity
  8
0
  6
Continuous
 62
     7
370
    25
100
AcDbSpline
210
0.0
220
0.0
230
1.0
 70
     8
 71
     3
 72
    14
 73
    10
 74
     0
 42
0.000000001
 43
0.00000001
 40
0.0
 40
0.0
 40
0.0
 40
0.0
 40
0.5000000000000046
 40
0.5000000000000046
 40
0.7500000000000041
 40
0.7500000000000041
 40
0.8750000000000021
 40
0.8750000000000021
 40
1.0
 40
1.0
 40
1.0
 40
1.0
 10
54.80876502451
 20
30.5464424358902
 30
0.0
 10
54.83929741319117
 20
30.08334802961114
 30
0.0
 10
54.89369697773408
 20
29.62796472523086
 30
0.0
 10
55.02141874525172
 20
28.96326698630903
 30
0.0
 10
55.07169625544118
 20
28.74477448595202
 30
0.0
 10
55.1627703392531
 20
28.42396923283454
 30
0.0
 10
55.19528564657337
 20
28.31798528049411
 30
0.0
 10
55.26914450064797
 20
28.11012791823056
 30
0.0
 10
55.30502941549463
 20
28.00575829205235
 30
0.0
 10
55.35586049147039
 20
27.9085350528054
 30
0.0
  0
SPLINE
  5
10D
330
1F
100
AcDbEntity
  8
0
  6
Continuous
 62
     7
370
    25
100
AcDbSpline
210
0.0
220
0.0
230
1.0
 70
     8
 71
     3
 72
    14
 73
    10
 74
     0
 42
0.000000001
 43
0.00000001
 40
0.0
 40
0.0
 40
0.0
 40
0.0
 40
0.1250000000000022
 40
0.1250000000000022
 40
0.2500000000000044
 40
0.2500000000000044
 40
0.5000000000000044
 40
0.5000000000000044
 40
1.0
 40
1.0
 40
1.0
 40
1.0
 10
58.4356324710451
 20
29.31295582849961
 30
0.0
 10
58.39555659209008
 20
29.41508359387495
 30
0.0
 10
58.34028485070594
 20
29.51061254543626
 30
0.0
 10
58.23177698550356
 20
29.70266945513193
 30
0.0
 10
58.17307694402659
 20
29.7967127881989
 30
0.0
 10
57.99057886505405
 20
30.07582737101648
 30
0.0
 10
57.85857897317349
 20
30.25705327779152
 30
0.0
 10
57.44046411184137
 20
30.78932754615343
 30
0.0
 10
57.13230911973728
 20
31.12899468817211
 30
0.0
 10
56.8026823948853
 20
31.45569773093949
 30
0.0
  0
SPLINE
  5
113
330
1F
100
AcDbEntity
  8
0
  6
Continuous
 62
     7
370
    25
100
AcDbSpline
210
0.0
220
0.0
230
1.0
 70
     8
 71
     3
 72
    14
 73
    10
 74
     0
 42
0.000000001
 43
0.00000001
 40
0.0
 40
0.0
 40
0.0
 40
0.0
 40
0.5000000000000019
 40
0.5000000000000019
 40
0.749999999999999
 40
0.749999999999999
 40
0.8749999999999996
 40
0.8749999999999996
 40
1.0
 40
1.0
 40
1.0
 40
1.0
 10
61.4461669363902
 20
33.0106183828916
 30
0.0
 10
61.37974937810301
 20
32.55129565991833
 30
0.0
 10
61.33828066886034
 20
32.09455326788393
 30
0.0
 10
61.32501297853729
 20
31.41782592070465
 30
0.0
 10
61.32876465931943
 20
31.19365472354844
 30
0.0
 10
61.35114939329062
 20
30.86092446815433
 30
0.0
 10
61.36091886040232
 20
30.7504962069338
 30
0.0
 10
61.38994774567109
 20
30.53182490750811
 30
0.0
 10
61.40334882358074
 20
30.42227511475156
 30
0.0
 10
61.4328552705321
 20
30.3166080615947
 30
0.0
  0
SPLINE
  5
115
330
1F
100
AcDbEntity
  8
0
  6
Continuous
 62
     7
370
    25
100
AcDbSpline
210
0.0
220
0.0
230
1.0
 70
     8
 71
     3
 72
    14
 73
    10
 74
     0
 42
0.000000001
 43
0.00000001
 40
0.0
 40
0.0
 40
0.0
 40
0.0
 40
0.1250000000000006
 40
0.1250000000000006
 40
0.2500000000000012
 40
0.2500000000000012
 40
0.5000000000000008
 40
0.5000000000000008
 40
1.0
 40
1.0
 40
1.0
 40
1.0
 10
64.7373223412544
 20
31.0500182741542
 30
0.0
 10
64.719355772786
 20
31.15824654657774
 30
0.0
 10
64.68515343740354
 20
31.26317960255515
 30
0.0
 10
64.6189476062234
 20
31.47359966169892
 30
0.0
 10
64.58108300987742
 20
31.57779234717851
 30
0.0
 10
64.46060413663847
 20
31.88875109086087
 30
0.0
 10
64.36916774379515
 20
32.0934610974728
 30
0.0
 10
64.07085573846629
 20
32.70103486377892
 30
0.0
 10
63.84005544209361
 20
33.09734848923821
 30
0.0
 10
63.585557234063
 20
33.4854455363729
 30
0.0
  0
SPLINE
  5
11B
330
1F
100
AcDbEntity
  8
0
  6
Continuous
 62
     7
370
    25
100
AcDbSpline
210
0.0
220
0.0
230
1.0
 70
     8
 71
     3
 72
    14
 73
    10
 74
     0
 42
0.000000001
 43
0.00000001
 40
0.0
 40
0.0
 40
0.0
 40
0.0
 40
0.499999999999995
 40
0.499999999999995
 40
0.7499999999999925
 40
0.7499999999999925
 40
0.8749999999999962
 40
0.8749999999999962
 40
1.0
 40
1.0
 40
1.0
 40
1.0
 10
68.45085667921532
 20
34.04095271910081
 30
0.0
 10
68.29039193996573
 20
33.60547628650879
 30
0.0
 10
68.15486733851846
 20
33.16733664103831
 30
0.0
 10
68.00119005208701
 20
32.50815591797227
 30
0.0
 10
67.95825193701035
 20
32.28810338102582
 30
0.0
 10
67.91096900085053
 20
31.95799003213162
 30
0.0
 10
67.89756565516234
 20
31.84794370694011
 30
0.0
 10
67.8804958700432
 20
31.62801545543872
 30
0.0
 10
67.87082741960658
 20
31.51807334772642
 30
0.0
 10
67.87771966421312
 20
31.4085806379284
 30
0.0
  0
SPLINE
  5
11D
330
1F
100
AcDbEntity
  8
0
  6
Continuous
 62
     7
370
    25
100
AcDbSpline
210
0.0
220
0.0
230
1.0
 70
     8
 71
     3
 72
    14
 73
    10
 74
     0
 42
0.000000001
 43
0.00000001
 40
0.0
 40
0.0
 40
0.0
 40
0.0
 40
0.1250000000000033
 40
0.1250000000000033
 40
0.2500000000000067
 40
0.2500000000000067
 40
0.5000000000000057
 40
0.5000000000000057
 40
1.0
 40
1.0
 40
1.0
 40
1.0
 10
71.26246075850031
 20
31.4389267417716
 30
0.0
 10
71.26738872577204
 20
31.54852542640409
 30
0.0
 10
71.25575060257061
 20
31.65827650872368
 30
0.0
 10
71.23474031792537
 20
31.87786335102474
 30
0.0
 10
71.21936603126605
 20
31.98765166858843
 30
0.0
 10
71.16617186864116
 20
32.3168641838921
 30
0.0
 10
71.11929518396363
 20
32.53611148074386
 30
0.0
 10
70.95382370073192
 20
33.19243085594351
 30
0.0
 10
70.81046518054278
 20
33.62807015767978
 30
0.0
 10
70.6422182822436
 20
34.0605995059336
 30
0.0
  0
SPLINE
  5
123
330
1F
100
AcDbEntity
  8
0
  6
Continuous
 62
     7
370
    25
100
AcDbSpline
210
0.0
220
0.0
230
1.0
 70
     8
 71
     3
 72
    14
 73
    10
 74
     0
 42
0.000000001
 43
0.00000001
 40
0.0
 40
0.0
 40
0.0
 40
0.0
 40
0.499999999999999
 40
0.499999999999999
 40
0.7499999999999984
 40
0.7499999999999984
 40
0.8749999999999992
 40
0.8749999999999992
 40
1.0
 40
1.0
 40
1.0
 40
1.0
 10
75.51669569899322
 20
33.592414889933
 30
0.0
 10
75.26919685788111
 20
33.19981715747081
 30
0.0
 10
75.04553943963276
 20
32.79942906350252
 30
0.0
 10
74.75816899193465
 20
32.18660432524702
 30
0.0
 10
74.67041768266594
 20
31.98028780030412
 30
0.0
 10
74.55553356757765
 20
31.66721889531635
 30
0.0
 10
74.51954319961142
 20
31.56236405862557
 30
0.0
 10
74.45712077562375
 20
31.35079077497181
 30
0.0
 10
74.42480535452177
 20
31.24526134997058
 30
0.0
 10
74.40878217261897
 20
31.1367283403549
 30
0.0
  0
SPLINE
  5
125
330
1F
100
AcDbEntity
  8
0
  6
Continuous
 62
     7
370
    25
100
AcDbSpline
210
0.0
220
0.0
230
1.0
 70
     8
 71
     3
 72
    14
 73
    10
 74
     0
 42
0.000000001
 43
0.00000001
 40
0.0
 40
0.0
 40
0.0
 40
0.0
 40
0.1250000000000009
 40
0.1250000000000009
 40
0.2500000000000018
 40
0.2500000000000018
 40
0.5000000000000036
 40
0.5000000000000036
 40
1.0
 40
1.0
 40
1.0
 40
1.0
 10
77.72586786286088
 20
30.46268406512709
 30
0.0
 10
77.7534749900589
 20
30.56886317353557
 30
0.0
 10
77.76490972086515
 20
30.67863563325798
 30
0.0
 10
77.79001323301311
 20
30.89779226001233
 30
0.0
 10
77.79780118614109
 20
31.00837793336053
 30
0.0
 10
77.8142165742911
 20
31.34145605362914
 30
0.0
 10
77.81394833384017
 20
31.56565848178282
 30
0.0
 10
77.78854927053916
 20
32.24203915981209
 30
0.0
 10
77.73889798178311
 20
32.69796460991965
 30
0.0
 10
77.66425559000511
 20
33.15602265125689
 30
0.0
  0
SPLINE
  5
12B
330
1F
100
AcDbEntity
  8
0
  6
Continuous
 62
     7
370
    25
100
AcDbSpline
210
0.0
220
0.0
230
1.0
 70
     8
 71
     3
 72
    14
 73
    10
 74
     0
 42
0.000000001
 43
0.00000001
 40
0.0
 40
0.0
 40
0.0
 40
0.0
 40
0.500000000000001
 40
0.500000000000001
 40
0.7500000000000047
 40
0.7500000000000047
 40
0.8750000000000023
 40
0.8750000000000023
 40
1.0
 40
1.0
 40
1.0
 40
1.0
 10
82.3348729249022
 20
31.6846081508461
 30
0.0
 10
82.01115686892197
 20
31.35204752330969
 30
0.0
 10
81.70914153626944
 20
31.0069098618301
 30
0.0
 10
81.30063739482762
 20
30.46722449010725
 30
0.0
 10
81.17190804466031
 20
30.28366099932396
 30
0.0
 10
80.9944437377456
 20
30.00131915166205
 30
0.0
 10
80.93743929928301
 20
29.90623846298471
 30
0.0
 10
80.83239239589146
 20
29.71226691491543
 30
0.0
 10
80.7788423430898
 20
29.61576231488457
 30
0.0
 10
80.74060402461762
 20
29.5129324187703
 30
0.0
  0
SPLINE
  5
12D
330
1F
100
AcDbEntity
  8
0
  6
Continuous
 62
     7
370
    25
100
AcDbSpline
210
0.0
220
0.0
230
1.0
 70
     8
 71
     3
 72
    14
 73
    10
 74
     0
 42
0.000000001
 43
0.00000001
 40
0.0
 40
0.0
 40
0.0
 40
0.0
 40
0.1249999999999982
 40
0.1249999999999982
 40
0.2499999999999963
 40
0.2499999999999963
 40
0.4999999999999967
 40
0.4999999999999967
 40
1.0
 40
1.0
 40
1.0
 40
1.0
 10
83.84506174900753
 20
28.1639567337223
 30
0.0
 10
83.89414147219819
 20
28.26207572936481
 30
0.0
 10
83.92814930440703
 20
28.36707198325372
 30
0.0
 10
83.99826946940773
 20
28.57622019824242
 30
0.0
 10
84.02887929140007
 20
28.68277010280046
 30
0.0
 10
84.11418679909367
 20
29.00515671589291
 30
0.0
 10
84.16053872626298
 20
29.22451555339595
 30
0.0
 10
84.2763221438398
 20
29.89139645298771
 30
0.0
 10
84.32254808609055
 20
30.34768192151538
 30
0.0
 10
84.34477243152477
 20
30.8112493215335
 30
0.0
  0
SPLINE
  5
133
330
1F
100
AcDbEntity
  8
0
  6
Continuous
 62
     7
370
    25
100
AcDbSpline
210
0.0
220
0.0
230
1.0
 70
     8
 71
     3
 72
    14
 73
    10
 74
     0
 42
0.000000001
 43
0.00000001
 40
0.0
 40
0.0
 40
0.0
 40
0.0
 40
0.4999999999999986
 40
0.4999999999999986
 40
0.7499999999999978
 40
0.7499999999999978
 40
0.8749999999999989
 40
0.8749999999999989
 40
1.0
 40
1.0
 40
1.0
 40
1.0
 10
88.60740129492599
 20
28.4009128110105
 30
0.0
 10
88.22161596907844
 20
28.14292378363627
 30
0.0
 10
87.85444224129735
 20
27.86812072659625
 30
0.0
 10
87.34265799731168
 20
27.42516156184793
 30
0.0
 10
87.17857669656007
 20
27.27237371060715
 30
0.0
 10
86.94628823960001
 20
27.03309861384023
 30
0.0
 10
86.8707610981395
 20
26.95194755551918
 30
0.0
 10
86.72768076909286
 20
26.78405523046407
 30
0.0
 10
86.65523647886138
 20
26.70079316950611
 30
0.0
 10
86.5964542218243
 20
26.608160546785
 30
0.0
  0
SPLINE
  5
135
330
1F
100
AcDbEntity
  8
0
  6
Continuous
 62
     7
370
    25
100
AcDbSpline
210
0.0
220
0.0
230
1.0
 70
     8
 71
     3
 72
    14
 73
    10
 74
     0
 42
0.000000001
 43
0.00000001
 40
0.0
 40
0.0
 40
0.0
 40
0.0
 40
0.1249999999999988
 40
0.1249999999999988
 40
0.2499999999999977
 40
0.2499999999999977
 40
0.4999999999999953
 40
0.4999999999999953
 40
1.0
 40
1.0
 40
1.0
 40
1.0
 10
89.35260428096541
 20
24.643210162457
 30
0.0
 10
89.42101158073496
 20
24.72898077439736
 30
0.0
 10
89.4761062088917
 20
24.82461198232962
 30
0.0
 10
89.58817843905906
 20
25.01461100495282
 30
0.0
 10
89.6402723338132
 20
25.11246839860862
 30
0.0
 10
89.79074361361391
 20
25.4100736625496
 30
0.0
 10
89.8816899067645
 20
25.61500187560256
 30
0.0
 10
90.13359551428077
 20
26.24323710139657
 30
0.0
 10
90.2736783920437
 20
26.6799407238784
 30
0.0
 10
90.39179816415188
 20
27.128757362743
 30
0.0
  0
SPLINE
  5
13B
330
1F
100
AcDbEntity
  8
0
  6
Continuous
 62
     7
370
    25
100
AcDbSpline
210
0.0
220
0.0
230
1.0
 70
     8
 71
     3
 72
    14
 73
    10
 74
     0
 42
0.000000001
 43
0.00000001
 40
0.0
 40
0.0
 40
0.0
 40
0.0
 40
0.4999999999999956
 40
0.4999999999999956
 40
0.7499999999999923
 40
0.7499999999999923
 40
0.8749999999999961
 40
0.8749999999999961
 40
1.0
 40
1.0
 40
1.0
 40
1.0
 10
94.0601412203638
 20
23.8848421136955
 30
0.0
 10
93.62914729459202
 20
23.71270004494341
 30
0.0
 10
93.21286242548189
 20
23.52024180459176
 30
0.0
 10
92.62016550622701
 20
23.19336828787185
 30
0.0
 10
92.42790339508464
 20
23.07803363842998
 30
0.0
 10
92.15094290829059
 20
22.89228276245604
 30
0.0
 10
92.06019396233376
 20
22.82860802514595
 30
0.0
 10
91.8853335045873
 20
22.69413262334663
 30
0.0
 10
91.7971611400369
 20
22.62775205306036
 30
0.0
 10
91.72040401113419
 20
22.5493651938469
 30
0.0
  0
SPLINE
  5
13D
330
1F
100
AcDbEntity
  8
0
  6
Continuous
 62
     7
370
    25
100
AcDbSpline
210
0.0
220
0.0
230
1.0
 70
     8
 71
     3
 72
    14
 73
    10
 74
     0
 42
0.000000001
 43
0.00000001
 40
0.0
 40
0.0
 40
0.0
 40
0.0
 40
0.1250000000000004
 40
0.1250000000000004
 40
0.2500000000000008
 40
0.2500000000000008
 40
0.5000000000000017
 40
0.5000000000000017
 40
1.0
 40
1.0
 40
1.0
 40
1.0
 10
94.0077894219669
 20
20.0543178709119
 30
0.0
 10
94.0925345710597
 20
20.12399151183697
 30
0.0
 10
94.16630809554098
 20
20.20607813113462
 30
0.0
 10
94.31543429663552
 20
20.36862409238755
 30
0.0
 10
94.38673551097595
 20
20.45351213746635
 30
0.0
 10
94.59579424591492
 20
20.71332927415325
 30
0.0
 10
94.72736011562755
 20
20.89487051649117
 30
0.0
 10
95.10437842925752
 20
21.45700317451239
 30
0.0
 10
95.3321959485871
 20
21.85503890709916
 30
0.0
 10
95.54104874652168
 20
22.2694893440416
 30
0.0
  0
SPLINE
  5
143
330
1F
100
AcDbEntity
  8
0
  6
Continuous
 62
     7
370
    25
100
AcDbSpline
210
0.0
220
0.0
230
1.0
 70
     8
 71
     3
 72
    14
 73
    10
 74
     0
 42
0.000000001
 43
0.00000001
 40
0.0
 40
0.0
 40
0.0
 40
0.0
 40
0.5000000000000153
 40
0.5000000000000153
 40
0.7500000000000157
 40
0.7500000000000157
 40
0.8750000000000078
 40
0.8750000000000078
 40
1.0
 40
1.0
 40
1.0
 40
1.0
 10
98.454781801325
 20
18.3337700188854
 30
0.0
 10
97.99741577832529
 20
18.25499834318667
 30
0.0
 10
97.55021341422047
 20
18.15329626814715
 30
0.0
 10
96.90250751914377
 20
17.95679434064811
 30
0.0
 10
96.69046737444188
 20
17.88395357062282
 30
0.0
 10
96.38093936009274
 20
17.75984512005433
 30
0.0
 10
96.27893477403951
 20
17.7164295953207
 30
0.0
 10
96.07993642866917
 20
17.62124833712027
 30
0.0
 10
95.97988954522638
 20
17.57465040695643
 30
0.0
 10
95.8885121993156
 20
17.5139351931402
 30
0.0
  0
SPLINE
  5
145
330
1F
100
AcDbEntity
  8
0
  6
Continuous
 62
     7
370
    25
100
AcDbSpline
210
0.0
220
0.0
230
1.0
 70
     8
 71
     3
 72
    14
 73
    10
 74
     0
 42
0.000000001
 43
0.00000001
 40
0.0
 40
0.0
 40
0.0
 40
0.0
 40
0.1249999999999997
 40
0.1249999999999997
 40
0.2499999999999993
 40
0.2499999999999993
 40
0.4999999999999987
 40
0.4999999999999987
 40
1.0
 40
1.0
 40
1.0
 40
1.0
 10
97.60716324329331
 20
14.597836472176
 30
0.0
 10
97.70454247204333
 20
14.64836806964429
 30
0.0
 10
97.79377063582324
 20
14.71332252115049
 30
0.0
 10
97.9734332772701
 20
14.8413113825444
 30
0.0
 10
98.06082560598935
 20
14.90952006413811
 30
0.0
 10
98.31933492617372
 20
15.12019381795696
 30
0.0
 10
98.48577031262003
 20
15.27041386615773
 30
0.0
 10
98.97142382292186
 20
15.74187606183967
 30
0.0
 10
99.27701926501987
 20
16.08384783303526
 30
0.0
 10
99.56747721933911
 20
16.4458185952014
 30
0.0
  0
SPLINE
  5
14B
330
1F
100
AcDbEntity
  8
0
  6
Continuous
 62
     7
370
    25
100
AcDbSpline
210
0.0
220
0.0
230
1.0
 70
     8
 71
     3
 72
    14
 73
    10
 74
     0
 42
0.000000001
 43
0.00000001
 40
0.0
 40
0.0
 40
0.0
 40
0.0
 40
0.4999999999999921
 40
0.4999999999999921
 40
0.7499999999999882
 40
0.7499999999999882
 40
0.8749999999999941
 40
0.8749999999999941
 40
1.0
 40
1.0
 40
1.0
 40
1.0
 10
101.599256156596
 20
11.9903050141224
 30
0.0
 10
101.135507126272
 20
12.00834643170083
 30
0.0
 10
100.6769321563824
 20
12.00184539066562
 30
0.0
 10
100.0025251411426
 20
11.94430312954094
 30
0.0
 10
99.77997413468484
 20
11.91713973011132
 30
0.0
 10
99.4514064522865
 20
11.86009783977575
 30
0.0
 10
99.34260431601956
 20
11.83883899438043
 30
0.0
 10
99.12816526561936
 20
11.7871117574927
 30
0.0
 10
99.02061639216991
 20
11.76233302060066
 30
0.0
 10
98.91861245774282
 20
11.7219429983698
 30
0.0
  0
SPLINE
  5
14D
330
1F
100
AcDbEntity
  8
0
  6
Continuous
 62
     7
370
    25
100
AcDbSpline
210
0.0
220
0.0
230
1.0
 70
     8
 71
     3
 72
    14
 73
    10
 74
     0
 42
0.000000001
 43
0.00000001
 40
0.0
 40
0.0
 40
0.0
 40
0.0
 40
0.125000000000007
 40
0.125000000000007
 40
0.2500000000000141
 40
0.2500000000000141
 40
0.5000000000000134
 40
0.5000000000000134
 40
1.0
 40
1.0
 40
1.0
 40
1.0
 10
99.9934158372411
 20
8.51224038647659
 30
0.0
 10
100.0991732060751
 20
8.541421467201713
 30
0.0
 10
100.1999563102319
 20
8.586404929699361
 30
0.0
 10
100.4023032724816
 20
8.674242963832262
 30
0.0
 10
100.5019672514609
 20
8.722791235254066
 30
0.0
 10
100.7986290591331
 20
8.875114152237492
 30
0.0
 10
100.9926599372798
 20
8.987447669359705
 30
0.0
 10
101.565723255428
 20
9.347634242423599
 30
0.0
 10
101.9357406331193
 20
9.6185962448652
 30
0.0
 10
102.295109337394
 20
9.912267473019549
 30
0.0
  0
SPLINE
  5
153
330
1F
100
AcDbEntity
  8
0
  6
Continuous
 62
     7
370
    25
100
AcDbSpline
210
0.0
220
0.0
230
1.0
 70
     8
 71
     3
 72
    14
 73
    10
 74
     0
 42
0.000000001
 43
0.00000001
 40
0.0
 40
0.0
 40
0.0
 40
0.0
 40
0.5000000000000002
 40
0.5000000000000002
 40
0.750000000000008
 40
0.750000000000008
 40
0.8750000000000041
 40
0.8750000000000041
 40
1.0
 40
1.0
 40
1.0
 40
1.0
 10
103.35613566799
 20
5.1316869594372
 30
0.0
 10
102.9062716882739
 20
5.2457529737652
 30
0.0
 10
102.456366039286
 20
5.334737093430051
 30
0.0
 10
101.7847327266008
 20
5.418669371609104
 30
0.0
 10
101.5613974052927
 20
5.438370513674618
 30
0.0
 10
101.2281500392076
 20
5.450888187897108
 30
0.0
 10
101.1173055281719
 20
5.452715135395267
 30
0.0
 10
100.8967977882378
 20
5.446702648286847
 30
0.0
 10
100.7864473266299
 20
5.444826054371812
 30
0.0
 10
100.678274865088
 20
5.426526461509261
 30
0.0
  0
SPLINE
  5
155
330
1F
100
AcDbEntity
  8
0
  6
Continuous
 62
     7
370
    25
100
AcDbSpline
210
0.0
220
0.0
230
1.0
 70
     8
 71
     3
 72
    14
 73
    10
 74
     0
 42
0.000000001
 43
0.00000001
 40
0.0
 40
0.0
 40
0.0
 40
0.0
 40
0.1250000000000057
 40
0.1250000000000057
 40
0.2500000000000114
 40
0.2500000000000114
 40
0.5000000000000077
 40
0.5000000000000077
 40
1.0
 40
1.0
 40
1.0
 40
1.0
 10
101.062256514944
 20
2.06349936468877
 30
0.0
 10
101.171769919367
 20
2.070054575416548
 30
0.0
 10
101.2797032586348
 20
2.093101055739901
 30
0.0
 10
101.4958910084703
 20
2.136949319026721
 30
0.0
 10
101.6034708435849
 20
2.163715387854757
 30
0.0
 10
101.9253195942099
 20
2.251030225604677
 30
0.0
 10
102.1384658836155
 20
2.320567697913554
 30
0.0
 10
102.7738933927534
 20
2.553736766750081
 30
0.0
 10
103.1921611710467
 20
2.741846660710095
 30
0.0
 10
103.604734488497
 20
2.95438351299198
 30
0.0
  0
SPLINE
  5
15B
330
1F
100
AcDbEntity
  8
0
  6
Continuous
 62
     7
370
    25
100
AcDbSpline
210
0.0
220
0.0
230
1.0
 70
     8
 71
     3
 72
    14
 73
    10
 74
     0
 42
0.000000001
 43
0.00000001
 40
0.0
 40
0.0
 40
0.0
 40
0.0
 40
0.5
 40
0.5
 40
0.75
 40
0.75
 40
0.875
 40
0.875
 40
1.0
 40
1.0
 40
1.0
 40
1.0
 10
103.648636270416
 20
-1.94232962487978
 30
0.0
 10
103.2323185559006
 20
-1.737224245975389
 30
0.0
 10
102.8107452635598
 20
-1.556643998635386
 30
0.0
 10
102.171239252062
 20
-1.33490542446077
 30
0.0
 10
101.9568804411218
 20
-1.269200775344948
 30
0.0
 10
101.6335179003457
 20
-1.187670618994342
 30
0.0
 10
101.5254754515656
 20
-1.16283772497517
 30
0.0
 10
101.3085362684452
 20
-1.122872687766394
 30
0.0
 10
101.2002070633642
 20
-1.101765122546282
 30
0.0
 10
101.090593730354
 20
-1.09717450602045
 30
0.0
  0
SPLINE
  5
15D
330
1F
100
AcDbEntity
  8
0
  6
Continuous
 62
     7
370
    25
100
AcDbSpline
210
0.0
220
0.0
230
1.0
 70
     8
 71
     3
 72
    14
 73
    10
 74
     0
 42
0.000000001
 43
0.00000001
 40
0.0
 40
0.0
 40
0.0
 40
0.0
 40
0.1250000000000019
 40
0.1250000000000019
 40
0.2500000000000038
 40
0.2500000000000038
 40
0.5000000000000077
 40
0.5000000000000077
 40
1.0
 40
1.0
 40
1.0
 40
1.0
 10
100.76697180992
 20
-4.46654566604272
 30
0.0
 10
100.8754549886428
 20
-4.482902819476428
 30
0.0
 10
100.9858213581854
 20
-4.482800563106839
 30
0.0
 10
101.206401453556
 20
-4.484858450179046
 30
0.0
 10
101.3171953897878
 20
-4.481044389590403
 30
0.0
 10
101.6501647485581
 20
-4.462553708466772
 30
0.0
 10
101.8731109335932
 20
-4.438851402188893
 30
0.0
 10
102.543131402435
 20
-4.342890444757304
 30
0.0
 10
102.9913692722814
 20
-4.245853964297544
 30
0.0
 10
103.439115769267
 20
-4.123740368196539
 30
0.0
  0
CIRCLE
  5
163
330
1F
100
AcDbEntity
  8
0
  6
Continuous
 62
     7
370
    25
100
AcDbCircle
 10
69.85
 20
0.2032
 30
0.0
 40
7.61999999999999
  0
LINE
  5
164
330
1F
100
AcDbEntity
  8
0
  6
Continuous
 62
     7
370
    25
100
AcDbLine
 10
99.1204670807
 20
-10.7925004032
 30
0.0
 11
97.6879251839
 21
-10.2547708603
 31
0.0
  0
LINE
  5
165
330
1F
100
AcDbEntity
  8
0
  6
Continuous
 62
     7
370
    25
100
AcDbLine
 10
96.4902059172
 20
-13.0111354639
 30
0.0
 11
97.8607925351
 21
-13.6914454448
 31
0.0
  0
LINE
  5
166
330
1F
100
AcDbEntity
  8
0
  6
Continuous
 62
     7
370
    25
100
AcDbLine
 10
96.1947024848
 20
-16.6378902696
 30
0.0
 11
94.905265324
 21
-15.8140691994
 31
0.0
  0
LINE
  5
167
330
1F
100
AcDbEntity
  8
0
  6
Continuous
 62
     7
370
    25
100
AcDbLine
 10
93.1606386716
 20
-18.2611807852
 30
0.0
 11
94.3598302851
 21
-19.211585342
 31
0.0
  0
LINE
  5
168
330
1F
100
AcDbEntity
  8
0
  6
Continuous
 62
     7
370
    25
100
AcDbLine
 10
92.1175479744
 20
-21.7472436787
 30
0.0
 11
91.0275701409
 21
-20.6733360151
 31
0.0
  0
LINE
  5
169
330
1F
100
AcDbEntity
  8
0
  6
Continuous
 62
     7
370
    25
100
AcDbLine
 10
88.8122846592
 20
-22.7042440644
 30
0.0
 11
89.7876708405
 21
-23.8832059573
 31
0.0
  0
LINE
  5
16A
330
1F
100
AcDbEntity
  8
0
  6
Continuous
 62
     7
370
    25
100
AcDbLine
 10
87.0671947659
 20
-25.897257369
 30
0.0
 11
86.2243135213
 21
-24.6201980302
 31
0.0
  0
LINE
  5
16B
330
1F
100
AcDbEntity
  8
0
  6
Continuous
 62
     7
370
    25
100
AcDbLine
 10
83.6351878161
 20
-26.1461421158
 30
0.0
 11
84.3441395085
 21
-27.5021350528
 31
0.0
  0
LINE
  5
16C
330
1F
100
AcDbEntity
  8
0
  6
Continuous
 62
     7
370
    25
100
AcDbLine
 10
81.264367529
 20
-28.9065558285
 30
0.0
 11
80.7054208283
 21
-27.4821584355
 31
0.0
  0
LINE
  5
16D
330
1F
100
AcDbEntity
  8
0
  6
Continuous
 62
     7
370
    25
100
AcDbLine
 10
77.8556121168
 20
-28.4364474786
 30
0.0
 11
78.2671447295
 21
-29.9102080616
 31
0.0
  0
LINE
  5
16E
330
1F
100
AcDbEntity
  8
0
  6
Continuous
 62
     7
370
    25
100
AcDbLine
 10
74.9626776587
 20
-30.6436182742
 30
0.0
 11
74.7120941549
 21
-29.1341358281
 31
0.0
  0
LINE
  5
16F
330
1F
100
AcDbEntity
  8
0
  6
Continuous
 62
     7
370
    25
100
AcDbLine
 10
71.7261527527
 20
-29.4750628182
 30
0.0
 11
71.8222803358
 21
-31.0021806379
 31
0.0
  0
LINE
  5
170
330
1F
100
AcDbEntity
  8
0
  6
Continuous
 62
     7
370
    25
100
AcDbLine
 10
68.4375392415
 20
-31.0325267418
 30
0.0
 11
68.5062706361
 21
-29.5039308688
 31
0.0
  0
LINE
  5
171
330
1F
100
AcDbEntity
  8
0
  6
Continuous
 62
     7
370
    25
100
AcDbLine
 10
65.5146965106
 20
-29.2165956607
 30
0.0
 11
65.2912178274
 21
-30.7303283404
 31
0.0
  0
LINE
  5
172
330
1F
100
AcDbEntity
  8
0
  6
Continuous
 62
     7
370
    25
100
AcDbLine
 10
61.9741321371
 20
-30.0562840651
 30
0.0
 11
62.3591745383
 21
-28.57538174
 31
0.0
  0
LINE
  5
173
330
1F
100
AcDbEntity
  8
0
  6
Continuous
 62
     7
370
    25
100
AcDbLine
 10
59.4927138341
 20
-27.6723422609
 30
0.0
 11
58.9593959754
 21
-29.1065324188
 31
0.0
  0
LINE
  5
174
330
1F
100
AcDbEntity
  8
0
  6
Continuous
 62
     7
370
    25
100
AcDbLine
 10
55.854938251
 20
-27.7575567337
 30
0.0
 11
56.5394634583
 21
-26.3890704941
 31
0.0
  0
LINE
  5
175
330
1F
100
AcDbEntity
  8
0
  6
Continuous
 62
     7
370
    25
100
AcDbLine
 10
53.9233942628
 20
-24.9097939026
 30
0.0
 11
53.1035457782
 21
-26.2017605468
 31
0.0
  0
LINE
  5
176
330
1F
100
AcDbEntity
  8
0
  6
Continuous
 62
     7
370
    25
100
AcDbLine
 10
50.347395719
 20
-24.2368101625
 30
0.0
 11
51.3014866961
 21
-23.0405494238
 31
0.0
  0
LINE
  5
177
330
1F
100
AcDbEntity
  8
0
  6
Continuous
 62
     7
370
    25
100
AcDbLine
 10
49.0501437865
 20
-21.0496872052
 30
0.0
 11
47.9795959889
 21
-22.1429651938
 31
0.0
  0
LINE
  5
178
330
1F
100
AcDbEntity
  8
0
  6
Continuous
 62
     7
370
    25
100
AcDbLine
 10
45.692210578
 20
-19.6479178709
 30
0.0
 11
46.874168971
 21
-18.6761649678
 31
0.0
  0
LINE
  5
179
330
1F
100
AcDbEntity
  8
0
  6
Continuous
 62
     7
370
    25
100
AcDbLine
 10
45.0859468356
 20
-16.2607273544
 30
0.0
 11
43.8114878007
 21
-17.1075351931
 31
0.0
  0
LINE
  5
17A
330
1F
100
AcDbEntity
  8
0
  6
Continuous
 62
     7
370
    25
100
AcDbLine
 10
42.0928367567
 20
-14.1914364722
 30
0.0
 11
43.4510053121
 21
-13.4866616694
 31
0.0
  0
LINE
  5
17B
330
1F
100
AcDbEntity
  8
0
  6
Continuous
 62
     7
370
    25
100
AcDbLine
 10
42.204057839
 20
-10.7522148754
 30
0.0
 11
40.7813875423
 21
-11.3155429984
 31
0.0
  0
LINE
  5
17C
330
1F
100
AcDbEntity
  8
0
  6
Continuous
 62
     7
370
    25
100
AcDbLine
 10
39.7065841628
 20
-8.1058403865
 30
0.0
 11
41.1816043975
 21
-7.6988457249
 31
0.0
  0
LINE
  5
17D
330
1F
100
AcDbEntity
  8
0
  6
Continuous
 62
     7
370
    25
100
AcDbLine
 10
40.5304291749
 20
-4.7648981965
 30
0.0
 11
39.0217251349
 21
-5.0201264615
 31
0.0
  0
LINE
  5
17E
330
1F
100
AcDbEntity
  8
0
  6
Continuous
 62
     7
370
    25
100
AcDbLine
 10
38.6377434851
 20
-1.6570993647
 30
0.0
 11
40.1651499369
 21
-1.5656724639
 31
0.0
  0
LINE
  5
17F
330
1F
100
AcDbEntity
  8
0
  6
Continuous
 62
     7
370
    25
100
AcDbLine
 10
40.1382064467
 20
1.4395482132
 30
0.0
 11
38.6094062696
 21
1.503574506
 31
0.0
  0
LINE
  5
180
330
1F
100
AcDbEntity
  8
0
  6
Continuous
 62
     7
370
    25
100
AcDbLine
 10
38.9330281901
 20
4.872945666
 30
0.0
 11
40.4460658679
 21
4.6448090117
 31
0.0
  0
LINE
  5
181
330
1F
100
AcDbEntity
  8
0
  6
Continuous
 62
     7
370
    25
100
AcDbLine
 10
41.0445316698
 20
7.5899602733
 30
0.0
 11
39.5624512594
 21
7.9704428677
 31
0.0
  0
LINE
  5
182
330
1F
100
AcDbEntity
  8
0
  6
Continuous
 62
     7
370
    25
100
AcDbLine
 10
40.5795329193
 20
11.1989004032
 30
0.0
 11
42.0120748161
 21
10.6611708603
 31
0.0
  0
LINE
  5
183
330
1F
100
AcDbEntity
  8
0
  6
Continuous
 62
     7
370
    25
100
AcDbLine
 10
43.2097940828
 20
13.4175354639
 30
0.0
 11
41.8392074649
 21
14.0978454448
 31
0.0
  0
LINE
  5
184
330
1F
100
AcDbEntity
  8
0
  6
Continuous
 62
     7
370
    25
100
AcDbLine
 10
43.5052975152
 20
17.0442902696
 30
0.0
 11
44.794734676
 21
16.2204691994
 31
0.0
  0
LINE
  5
185
330
1F
100
AcDbEntity
  8
0
  6
Continuous
 62
     7
370
    25
100
AcDbLine
 10
46.5393613284
 20
18.6675807852
 30
0.0
 11
45.3401697149
 21
19.617985342
 31
0.0
  0
LINE
  5
186
330
1F
100
AcDbEntity
  8
0
  6
Continuous
 62
     7
370
    25
100
AcDbLine
 10
47.5824520256
 20
22.1536436787
 30
0.0
 11
48.6724298591
 21
21.0797360151
 31
0.0
  0
LINE
  5
187
330
1F
100
AcDbEntity
  8
0
  6
Continuous
 62
     7
370
    25
100
AcDbLine
 10
50.8877153408
 20
23.1106440644
 30
0.0
 11
49.9123291595
 21
24.2896059573
 31
0.0
  0
LINE
  5
188
330
1F
100
AcDbEntity
  8
0
  6
Continuous
 62
     7
370
    25
100
AcDbLine
 10
52.6328052341
 20
26.303657369
 30
0.0
 11
53.4756864787
 21
25.0265980302
 31
0.0
  0
LINE
  5
189
330
1F
100
AcDbEntity
  8
0
  6
Continuous
 62
     7
370
    25
100
AcDbLine
 10
56.0648121839
 20
26.5525421158
 30
0.0
 11
55.3558604915
 21
27.9085350528
 31
0.0
  0
LINE
  5
18A
330
1F
100
AcDbEntity
  8
0
  6
Continuous
 62
     7
370
    25
100
AcDbLine
 10
58.435632471
 20
29.3129558285
 30
0.0
 11
58.9945791717
 21
27.8885584355
 31
0.0
  0
LINE
  5
18B
330
1F
100
AcDbEntity
  8
0
  6
Continuous
 62
     7
370
    25
100
AcDbLine
 10
61.8443878832
 20
28.8428474786
 30
0.0
 11
61.4328552705
 21
30.3166080616
 31
0.0
  0
LINE
  5
18C
330
1F
100
AcDbEntity
  8
0
  6
Continuous
 62
     7
370
    25
100
AcDbLine
 10
64.7373223413
 20
31.0500182742
 30
0.0
 11
64.9879058451
 21
29.5405358281
 31
0.0
  0
LINE
  5
18D
330
1F
100
AcDbEntity
  8
0
  6
Continuous
 62
     7
370
    25
100
AcDbLine
 10
67.9738472473
 20
29.8814628182
 30
0.0
 11
67.8777196642
 21
31.4085806379
 31
0.0
  0
LINE
  5
18E
330
1F
100
AcDbEntity
  8
0
  6
Continuous
 62
     7
370
    25
100
AcDbLine
 10
71.2624607585
 20
31.4389267418
 30
0.0
 11
71.1937293639
 21
29.9103308688
 31
0.0
  0
LINE
  5
18F
330
1F
100
AcDbEntity
  8
0
  6
Continuous
 62
     7
370
    25
100
AcDbLine
 10
74.1853034894
 20
29.6229956607
 30
0.0
 11
74.4087821726
 21
31.1367283404
 31
0.0
  0
LINE
  5
190
330
1F
100
AcDbEntity
  8
0
  6
Continuous
 62
     7
370
    25
100
AcDbLine
 10
77.7258678629
 20
30.4626840651
 30
0.0
 11
77.3408254617
 21
28.98178174
 31
0.0
  0
LINE
  5
191
330
1F
100
AcDbEntity
  8
0
  6
Continuous
 62
     7
370
    25
100
AcDbLine
 10
80.2072861659
 20
28.0787422609
 30
0.0
 11
80.7406040246
 21
29.5129324188
 31
0.0
  0
LINE
  5
192
330
1F
100
AcDbEntity
  8
0
  6
Continuous
 62
     7
370
    25
100
AcDbLine
 10
83.845061749
 20
28.1639567337
 30
0.0
 11
83.1605365417
 21
26.7954704941
 31
0.0
  0
LINE
  5
193
330
1F
100
AcDbEntity
  8
0
  6
Continuous
 62
     7
370
    25
100
AcDbLine
 10
85.7766057372
 20
25.3161939026
 30
0.0
 11
86.5964542218
 21
26.6081605468
 31
0.0
  0
LINE
  5
194
330
1F
100
AcDbEntity
  8
0
  6
Continuous
 62
     7
370
    25
100
AcDbLine
 10
89.352604281
 20
24.6432101625
 30
0.0
 11
88.3985133039
 21
23.4469494238
 31
0.0
  0
LINE
  5
195
330
1F
100
AcDbEntity
  8
0
  6
Continuous
 62
     7
370
    25
100
AcDbLine
 10
90.6498562135
 20
21.4560872052
 30
0.0
 11
91.7204040111
 21
22.5493651938
 31
0.0
  0
LINE
  5
196
330
1F
100
AcDbEntity
  8
0
  6
Continuous
 62
     7
370
    25
100
AcDbLine
 10
94.007789422
 20
20.0543178709
 30
0.0
 11
92.825831029
 21
19.0825649678
 31
0.0
  0
LINE
  5
197
330
1F
100
AcDbEntity
  8
0
  6
Continuous
 62
     7
370
    25
100
AcDbLine
 10
94.6140531644
 20
16.6671273544
 30
0.0
 11
95.8885121993
 21
17.5139351931
 31
0.0
  0
LINE
  5
198
330
1F
100
AcDbEntity
  8
0
  6
Continuous
 62
     7
370
    25
100
AcDbLine
 10
97.6071632433
 20
14.5978364722
 30
0.0
 11
96.2489946879
 21
13.8930616694
 31
0.0
  0
LINE
  5
199
330
1F
100
AcDbEntity
  8
0
  6
Continuous
 62
     7
370
    25
100
AcDbLine
 10
97.495942161
 20
11.1586148754
 30
0.0
 11
98.9186124577
 21
11.7219429984
 31
0.0
  0
LINE
  5
19A
330
1F
100
AcDbEntity
  8
0
  6
Continuous
 62
     7
370
    25
100
AcDbLine
 10
99.9934158372
 20
8.5122403865
 30
0.0
 11
98.5183956025
 21
8.1052457249
 31
0.0
  0
LINE
  5
19B
330
1F
100
AcDbEntity
  8
0
  6
Continuous
 62
     7
370
    25
100
AcDbLine
 10
99.1695708251
 20
5.1712981965
 30
0.0
 11
100.6782748651
 21
5.4265264615
 31
0.0
  0
LINE
  5
19C
330
1F
100
AcDbEntity
  8
0
  6
Continuous
 62
     7
370
    25
100
AcDbLine
 10
101.0622565149
 20
2.0634993647
 30
0.0
 11
99.5348500631
 21
1.9720724639
 31
0.0
  0
LINE
  5
19D
330
1F
100
AcDbEntity
  8
0
  6
Continuous
 62
     7
370
    25
100
AcDbLine
 10
99.5617935533
 20
-1.0331482132
 30
0.0
 11
101.0905937304
 21
-1.097174506
 31
0.0
  0
LINE
  5
19E
330
1F
100
AcDbEntity
  8
0
  6
Continuous
 62
     7
370
    25
100
AcDbLine
 10
100.7669718099
 20
-4.466545666
 30
0.0
 11
99.2539341321
 21
-4.2384090117
 31
0.0
  0
LINE
  5
19F
330
1F
100
AcDbEntity
  8
0
  6
Continuous
 62
     7
370
    25
100
AcDbLine
 10
98.6554683302
 20
-7.1835602733
 30
0.0
 11
100.1375487406
 21
-7.5640428677
 31
0.0
  0
ARC
  5
1A0
330
1F
100
AcDbEntity
  8
0
  6
Continuous
 62
     7
370
    25
100
AcDbCircle
 10
69.8499999994
 20
0.2032000002
 30
0.0
 40
33.86666666727812
100
AcDbArc
 50
340.6595992716
 51
344.367750852
  0
ARC
  5
1A1
330
1F
100
AcDbEntity
  8
0
  6
Continuous
 62
     7
370
    25
100
AcDbCircle
 10
97.4826227039
 20
-10.8017082714
 30
0.0
 40
0.5842000000000341
100
AcDbArc
 50
69.4255012518
 51
158.2846931767
  0
ARC
  5
1A2
330
1F
100
AcDbEntity
  8
0
  6
Continuous
 62
     7
370
    25
100
AcDbCircle
 10
69.85
 20
0.2032
 30
0.0
 40
29.15920000002831
100
AcDbArc
 50
334.7426569468
 51
338.2846931767
  0
ARC
  5
1A3
330
1F
100
AcDbEntity
  8
0
  6
Continuous
 62
     7
370
    25
100
AcDbCircle
 10
96.7499449032
 20
-12.4878522718
 30
0.0
 40
0.5842000000000355
100
AcDbArc
 50
154.7426569468
 51
243.6018488717
  0
ARC
  5
1A4
330
1F
100
AcDbEntity
  8
0
  6
Continuous
 62
     7
370
    25
100
AcDbCircle
 10
69.85
 20
0.2032
 30
0.0
 40
33.86666666666908
100
AcDbArc
 50
328.6595992715
 51
332.367750852
  0
ARC
  5
1A5
330
1F
100
AcDbEntity
  8
0
  6
Continuous
 62
     7
370
    25
100
AcDbCircle
 10
94.5907345138
 20
-16.3063699301
 30
0.0
 40
0.5842000000000451
100
AcDbArc
 50
57.4255012518
 51
146.2846931767
  0
ARC
  5
1A6
330
1F
100
AcDbEntity
  8
0
  6
Continuous
 62
     7
370
    25
100
AcDbCircle
 10
69.85
 20
0.2032
 30
0.0
 40
29.15919999995337
100
AcDbArc
 50
322.7426569468
 51
326.2846931767
  0
ARC
  5
1A7
330
1F
100
AcDbEntity
  8
0
  6
Continuous
 62
     7
370
    25
100
AcDbCircle
 10
93.5234984309
 20
-17.8033353582
 30
0.0
 40
0.5842000000000224
100
AcDbArc
 50
142.7426569468
 51
231.6018488717
  0
ARC
  5
1A8
330
1F
100
AcDbEntity
  8
0
  6
Continuous
 62
     7
370
    25
100
AcDbCircle
 10
69.85
 20
0.2032
 30
0.0
 40
33.86666666666557
100
AcDbArc
 50
316.6595992715
 51
320.367750852
  0
ARC
  5
1A9
330
1F
100
AcDbEntity
  8
0
  6
Continuous
 62
     7
370
    25
100
AcDbCircle
 10
90.6175575062
 20
-21.0894841611
 30
0.0
 40
0.5842000000000568
100
AcDbArc
 50
45.4255012518
 51
134.2846931767
  0
ARC
  5
1AA
330
1F
100
AcDbEntity
  8
0
  6
Continuous
 62
     7
370
    25
100
AcDbCircle
 10
69.85
 20
0.2032
 30
0.0
 40
29.15920000002435
100
AcDbArc
 50
310.7426569468
 51
314.2846931767
  0
ARC
  5
1AB
330
1F
100
AcDbEntity
  8
0
  6
Continuous
 62
     7
370
    25
100
AcDbCircle
 10
89.262406479
 20
-22.3318464444
 30
0.0
 40
0.5842000000000226
100
AcDbArc
 50
130.7426569468
 51
219.6018488717
  0
ARC
  5
1AC
330
1F
100
AcDbEntity
  8
0
  6
Continuous
 62
     7
370
    25
100
AcDbCircle
 10
69.85
 20
0.2032
 30
0.0
 40
33.86666666669303
100
AcDbArc
 50
304.6595992715
 51
308.367750852
  0
ARC
  5
1AD
330
1F
100
AcDbEntity
  8
0
  6
Continuous
 62
     7
370
    25
100
AcDbCircle
 10
85.7367385818
 20
-24.9420059207
 30
0.0
 40
0.5842000000000471
100
AcDbArc
 50
33.4255012518
 51
122.2846931767
  0
ARC
  5
1AE
330
1F
100
AcDbEntity
  8
0
  6
Continuous
 62
     7
370
    25
100
AcDbCircle
 10
69.85
 20
0.2032
 30
0.0
 40
29.15919999996236
100
AcDbArc
 50
298.7426569468
 51
302.2846931767
  0
ARC
  5
1AF
330
1F
100
AcDbEntity
  8
0
  6
Continuous
 62
     7
370
    25
100
AcDbCircle
 10
84.152899213
 20
-25.8754678659
 30
0.0
 40
0.5842000000000844
100
AcDbArc
 50
118.7426569468
 51
207.6018488717
  0
ARC
  5
1B0
330
1F
100
AcDbEntity
  8
0
  6
Continuous
 62
     7
370
    25
100
AcDbCircle
 10
69.85
 20
0.2031999999
 30
0.0
 40
33.86666666660923
100
AcDbArc
 50
292.6595992715
 51
296.367750852
  0
ARC
  5
1B1
330
1F
100
AcDbEntity
  8
0
  6
Continuous
 62
     7
370
    25
100
AcDbCircle
 10
80.1615929484
 20
-27.6955615214
 30
0.0
 40
0.5842000000000352
100
AcDbArc
 50
21.4255012518
 51
110.2846931767
  0
ARC
  5
1B2
330
1F
100
AcDbEntity
  8
0
  6
Continuous
 62
     7
370
    25
100
AcDbCircle
 10
69.85
 20
0.2032
 30
0.0
 40
29.15920000004954
100
AcDbArc
 50
286.7426569468
 51
290.2846931767
  0
ARC
  5
1B3
330
1F
100
AcDbEntity
  8
0
  6
Continuous
 62
     7
370
    25
100
AcDbCircle
 10
78.4182866185
 20
-28.2793263624
 30
0.0
 40
0.5842000000000376
100
AcDbArc
 50
106.7426569468
 51
195.6018488717
  0
ARC
  5
1B4
330
1F
100
AcDbEntity
  8
0
  6
Continuous
 62
     7
370
    25
100
AcDbCircle
 10
69.85
 20
0.2032
 30
0.0
 40
33.86666666668706
100
AcDbArc
 50
280.6595992715
 51
284.367750852
  0
ARC
  5
1B5
330
1F
100
AcDbEntity
  8
0
  6
Continuous
 62
     7
370
    25
100
AcDbCircle
 10
74.1357812226
 20
-29.2298073705
 30
0.0
 40
0.5842000000000336
100
AcDbArc
 50
9.4255012518
 51
98.2846931767
  0
ARC
  5
1B6
330
1F
100
AcDbEntity
  8
0
  6
Continuous
 62
     7
370
    25
100
AcDbCircle
 10
69.85
 20
0.2032
 30
0.0
 40
29.15920000003445
100
AcDbArc
 50
274.7426569468
 51
278.2846931767
  0
ARC
  5
1B7
330
1F
100
AcDbEntity
  8
0
  6
Continuous
 62
     7
370
    25
100
AcDbCircle
 10
72.3091987835
 20
-29.4383617825
 30
0.0
 40
0.5842000000000762
100
AcDbArc
 50
94.7426569468
 51
183.6018488717
  0
ARC
  5
1B8
330
1F
100
AcDbEntity
  8
0
  6
Continuous
 62
     7
370
    25
100
AcDbCircle
 10
69.85
 20
0.2032000001
 30
0.0
 40
33.86666666674818
100
AcDbArc
 50
268.6595992715
 51
272.367750852
  0
ARC
  5
1B9
330
1F
100
AcDbEntity
  8
0
  6
Continuous
 62
     7
370
    25
100
AcDbCircle
 10
67.9226602919
 20
-29.4776895623
 30
0.0
 40
0.5842000000000356
100
AcDbArc
 50
357.4255012518
 51
86.2846931767
  0
ARC
  5
1BA
330
1F
100
AcDbEntity
  8
0
  6
Continuous
 62
     7
370
    25
100
AcDbCircle
 10
69.85
 20
0.2032
 30
0.0
 40
29.15919999995408
100
AcDbArc
 50
262.7426569468
 51
266.2846931767
  0
ARC
  5
1BB
330
1F
100
AcDbEntity
  8
0
  6
Continuous
 62
     7
370
    25
100
AcDbCircle
 10
66.0926321611
 20
-29.3019187166
 30
0.0
 40
0.5842000000000643
100
AcDbArc
 50
82.7426569468
 51
171.6018488717
  0
ARC
  5
1BC
330
1F
100
AcDbEntity
  8
0
  6
Continuous
 62
     7
370
    25
100
AcDbCircle
 10
69.85
 20
0.2032
 30
0.0
 40
33.86666666665054
100
AcDbArc
 50
256.6595992715
 51
260.367750852
  0
ARC
  5
1BD
330
1F
100
AcDbEntity
  8
0
  6
Continuous
 62
     7
370
    25
100
AcDbCircle
 10
61.7937733548
 20
-28.4283744555
 30
0.0
 40
0.5842000000000203
100
AcDbArc
 50
345.4255012518
 51
74.2846931767
  0
ARC
  5
1BE
330
1F
100
AcDbEntity
  8
0
  6
Continuous
 62
     7
370
    25
100
AcDbCircle
 10
69.85
 20
0.2031999999
 30
0.0
 40
29.15919999992653
100
AcDbArc
 50
250.7426569468
 51
254.2846931767
  0
ARC
  5
1BF
330
1F
100
AcDbEntity
  8
0
  6
Continuous
 62
     7
370
    25
100
AcDbCircle
 10
60.0402805432
 20
-27.8759603816
 30
0.0
 40
0.5842000000000385
100
AcDbArc
 50
70.7426569468
 51
159.6018488717
  0
ARC
  5
1C0
330
1F
100
AcDbEntity
  8
0
  6
Continuous
 62
     7
370
    25
100
AcDbCircle
 10
69.85
 20
0.2032
 30
0.0
 40
33.86666666669933
100
AcDbArc
 50
244.6595992715
 51
248.367750852
  0
ARC
  5
1C1
330
1F
100
AcDbEntity
  8
0
  6
Continuous
 62
     7
370
    25
100
AcDbCircle
 10
56.0169821802
 20
-26.1277221555
 30
0.0
 40
0.5842000000000396
100
AcDbArc
 50
333.4255012518
 51
62.2846931767
  0
ARC
  5
1C2
330
1F
100
AcDbEntity
  8
0
  6
Continuous
 62
     7
370
    25
100
AcDbCircle
 10
69.85
 20
0.2032
 30
0.0
 40
29.15919999995624
100
AcDbArc
 50
238.7426569468
 51
242.2846931767
  0
ARC
  5
1C3
330
1F
100
AcDbEntity
  8
0
  6
Continuous
 62
     7
370
    25
100
AcDbCircle
 10
54.4166607377
 20
-25.2228079992
 30
0.0
 40
0.584200000000026
100
AcDbArc
 50
58.7426569468
 51
147.6018488717
  0
ARC
  5
1C4
330
1F
100
AcDbEntity
  8
0
  6
Continuous
 62
     7
370
    25
100
AcDbCircle
 10
69.85
 20
0.2032000001
 30
0.0
 40
33.86666666675062
100
AcDbArc
 50
232.6595992715
 51
236.367750852
  0
ARC
  5
1C5
330
1F
100
AcDbEntity
  8
0
  6
Continuous
 62
     7
370
    25
100
AcDbCircle
 10
50.8447602626
 20
-22.6762822075
 30
0.0
 40
0.5842000000000344
100
AcDbArc
 50
321.4255012518
 51
50.2846931767
  0
ARC
  5
1C6
330
1F
100
AcDbEntity
  8
0
  6
Continuous
 62
     7
370
    25
100
AcDbCircle
 10
69.85
 20
0.2032
 30
0.0
 40
29.1592000000223
100
AcDbArc
 50
226.7426569468
 51
230.2846931767
  0
ARC
  5
1C7
330
1F
100
AcDbEntity
  8
0
  6
Continuous
 62
     7
370
    25
100
AcDbCircle
 10
49.4675519154
 20
-21.4584170597
 30
0.0
 40
0.5842000000000349
100
AcDbArc
 50
46.7426569468
 51
135.6018488717
  0
ARC
  5
1C8
330
1F
100
AcDbEntity
  8
0
  6
Continuous
 62
     7
370
    25
100
AcDbCircle
 10
69.85
 20
0.2032
 30
0.0
 40
33.86666666662593
100
AcDbArc
 50
220.6595992715
 51
224.367750852
  0
ARC
  5
1C9
330
1F
100
AcDbEntity
  8
0
  6
Continuous
 62
     7
370
    25
100
AcDbCircle
 10
46.5031585187
 20
-18.2248990991
 30
0.0
 40
0.5842000000000187
100
AcDbArc
 50
309.4255012518
 51
38.2846931767
  0
ARC
  5
1CA
330
1F
100
AcDbEntity
  8
0
  6
Continuous
 62
     7
370
    25
100
AcDbCircle
 10
69.85
 20
0.2032
 30
0.0
 40
29.15920000003524
100
AcDbArc
 50
214.7426569468
 51
218.2846931767
  0
ARC
  5
1CB
330
1F
100
AcDbEntity
  8
0
  6
Continuous
 62
     7
370
    25
100
AcDbCircle
 10
45.4092538803
 20
-16.7473095107
 30
0.0
 40
0.5842000000000028
100
AcDbArc
 50
34.7426569468
 51
123.6018488717
  0
ARC
  5
1CC
330
1F
100
AcDbEntity
  8
0
  6
Continuous
 62
     7
370
    25
100
AcDbCircle
 10
69.85
 20
0.2032
 30
0.0
 40
33.86666666663479
100
AcDbArc
 50
208.6595992715
 51
212.367750852
  0
ARC
  5
1CD
330
1F
100
AcDbEntity
  8
0
  6
Continuous
 62
     7
370
    25
100
AcDbCircle
 10
43.1819257781
 20
-12.9681196322
 30
0.0
 40
0.5842000000000471
100
AcDbArc
 50
297.4255012518
 51
26.2846931767
  0
ARC
  5
1CE
330
1F
100
AcDbEntity
  8
0
  6
Continuous
 62
     7
370
    25
100
AcDbCircle
 10
69.85
 20
0.2032
 30
0.0
 40
29.15920000000137
100
AcDbArc
 50
202.7426569468
 51
206.2846931767
  0
ARC
  5
1CF
330
1F
100
AcDbEntity
  8
0
  6
Continuous
 62
     7
370
    25
100
AcDbCircle
 10
42.4191337303
 20
-11.2953833585
 30
0.0
 40
0.5842000000000389
100
AcDbArc
 50
22.7426569468
 51
111.6018488717
  0
ARC
  5
1D0
330
1F
100
AcDbEntity
  8
0
  6
Continuous
 62
     7
370
    25
100
AcDbCircle
 10
69.85
 20
0.2032
 30
0.0
 40
33.8666666666456
100
AcDbArc
 50
196.6595992715
 51
200.367750852
  0
ARC
  5
1D1
330
1F
100
AcDbEntity
  8
0
  6
Continuous
 62
     7
370
    25
100
AcDbCircle
 10
41.0262158486
 20
-7.1356902944
 30
0.0
 40
0.5842000000000311
100
AcDbArc
 50
285.4255012518
 51
14.2846931767
  0
ARC
  5
1D2
330
1F
100
AcDbEntity
  8
0
  6
Continuous
 62
     7
370
    25
100
AcDbCircle
 10
69.85
 20
0.2032
 30
0.0
 40
29.15920000002283
100
AcDbArc
 50
190.7426569468
 51
194.2846931767
  0
ARC
  5
1D3
330
1F
100
AcDbEntity
  8
0
  6
Continuous
 62
     7
370
    25
100
AcDbCircle
 10
40.6278740641
 20
-5.3409139372
 30
0.0
 40
0.5842000000000278
100
AcDbArc
 50
10.7426569468
 51
99.6018488717
  0
ARC
  5
1D4
330
1F
100
AcDbEntity
  8
0
  6
Continuous
 62
     7
370
    25
100
AcDbCircle
 10
69.85
 20
0.2032
 30
0.0
 40
33.86666666667423
100
AcDbArc
 50
184.6595992715
 51
188.367750852
  0
ARC
  5
1D5
330
1F
100
AcDbEntity
  8
0
  6
Continuous
 62
     7
370
    25
100
AcDbCircle
 10
40.1302435984
 20
-0.9825162348
 30
0.0
 40
0.584200000000036
100
AcDbArc
 50
273.4255012518
 51
2.2846931767
  0
ARC
  5
1D6
330
1F
100
AcDbEntity
  8
0
  6
Continuous
 62
     7
370
    25
100
AcDbCircle
 10
69.85
 20
0.2032
 30
0.0
 40
29.159200000029
100
AcDbArc
 50
178.7426569468
 51
182.2846931767
  0
ARC
  5
1D7
330
1F
100
AcDbEntity
  8
0
  6
Continuous
 62
     7
370
    25
100
AcDbCircle
 10
40.1137615247
 20
0.8558598667
 30
0.0
 40
0.5842000000000205
100
AcDbArc
 50
358.7426569468
 51
87.6018488717
  0
ARC
  5
1D8
330
1F
100
AcDbEntity
  8
0
  6
Continuous
 62
     7
370
    25
100
AcDbCircle
 10
69.8500000001
 20
0.2032
 30
0.0
 40
33.86666666673618
100
AcDbArc
 50
172.6595992715
 51
176.367750852
  0
ARC
  5
1D9
330
1F
100
AcDbEntity
  8
0
  6
Continuous
 62
     7
370
    25
100
AcDbCircle
 10
40.5331673142
 20
5.2224793139
 30
0.0
 40
0.5842000000000314
100
AcDbArc
 50
261.4255012518
 51
350.2846931767
  0
ARC
  5
1DA
330
1F
100
AcDbEntity
  8
0
  6
Continuous
 62
     7
370
    25
100
AcDbCircle
 10
69.85
 20
0.2032
 30
0.0
 40
29.15919999995818
100
AcDbArc
 50
166.7426569468
 51
170.2846931767
  0
ARC
  5
1DB
330
1F
100
AcDbEntity
  8
0
  6
Continuous
 62
     7
370
    25
100
AcDbCircle
 10
40.899265297
 20
7.0241093027
 30
0.0
 40
0.5842000000000299
100
AcDbArc
 50
346.7426569468
 51
75.6018488717
  0
ARC
  5
1DC
330
1F
100
AcDbEntity
  8
0
  6
Continuous
 62
     7
370
    25
100
AcDbCircle
 10
69.85
 20
0.2032
 30
0.0
 40
33.8666666667093
100
AcDbArc
 50
160.6595992715
 51
164.367750852
  0
ARC
  5
1DD
330
1F
100
AcDbEntity
  8
0
  6
Continuous
 62
     7
370
    25
100
AcDbCircle
 10
42.2173772961
 20
11.2081082714
 30
0.0
 40
0.5842000000000172
100
AcDbArc
 50
249.4255012518
 51
338.2846931767
  0
ARC
  5
1DE
330
1F
100
AcDbEntity
  8
0
  6
Continuous
 62
     7
370
    25
100
AcDbCircle
 10
69.8499999999
 20
0.2032
 30
0.0
 40
29.15919999994291
100
AcDbArc
 50
154.7426569468
 51
158.2846931767
  0
ARC
  5
1DF
330
1F
100
AcDbEntity
  8
0
  6
Continuous
 62
     7
370
    25
100
AcDbCircle
 10
42.9500550968
 20
12.8942522718
 30
0.0
 40
0.584200000000031
100
AcDbArc
 50
334.7426569468
 51
63.6018488717
  0
ARC
  5
1E0
330
1F
100
AcDbEntity
  8
0
  6
Continuous
 62
     7
370
    25
100
AcDbCircle
 10
69.85
 20
0.2032
 30
0.0
 40
33.86666666666816
100
AcDbArc
 50
148.6595992715
 51
152.367750852
  0
ARC
  5
1E1
330
1F
100
AcDbEntity
  8
0
  6
Continuous
 62
     7
370
    25
100
AcDbCircle
 10
45.1092654862
 20
16.7127699301
 30
0.0
 40
0.5842000000000398
100
AcDbArc
 50
237.4255012518
 51
326.2846931767
  0
ARC
  5
1E2
330
1F
100
AcDbEntity
  8
0
  6
Continuous
 62
     7
370
    25
100
AcDbCircle
 10
69.85
 20
0.2032
 30
0.0
 40
29.15919999997847
100
AcDbArc
 50
142.7426569468
 51
146.2846931767
  0
ARC
  5
1E3
330
1F
100
AcDbEntity
  8
0
  6
Continuous
 62
     7
370
    25
100
AcDbCircle
 10
46.1765015691
 20
18.2097353582
 30
0.0
 40
0.5842000000000402
100
AcDbArc
 50
322.7426569468
 51
51.6018488717
  0
ARC
  5
1E4
330
1F
100
AcDbEntity
  8
0
  6
Continuous
 62
     7
370
    25
100
AcDbCircle
 10
69.85
 20
0.2032
 30
0.0
 40
33.86666666667642
100
AcDbArc
 50
136.6595992715
 51
140.367750852
  0
ARC
  5
1E5
330
1F
100
AcDbEntity
  8
0
  6
Continuous
 62
     7
370
    25
100
AcDbCircle
 10
49.0824424938
 20
21.4958841611
 30
0.0
 40
0.584200000000034
100
AcDbArc
 50
225.4255012518
 51
314.2846931767
  0
ARC
  5
1E6
330
1F
100
AcDbEntity
  8
0
  6
Continuous
 62
     7
370
    25
100
AcDbCircle
 10
69.85
 20
0.2032
 30
0.0
 40
29.15919999998843
100
AcDbArc
 50
130.7426569468
 51
134.2846931767
  0
ARC
  5
1E7
330
1F
100
AcDbEntity
  8
0
  6
Continuous
 62
     7
370
    25
100
AcDbCircle
 10
50.437593521
 20
22.7382464444
 30
0.0
 40
0.5842000000000221
100
AcDbArc
 50
310.7426569468
 51
39.6018488717
  0
ARC
  5
1E8
330
1F
100
AcDbEntity
  8
0
  6
Continuous
 62
     7
370
    25
100
AcDbCircle
 10
69.85
 20
0.2032
 30
0.0
 40
33.86666666664798
100
AcDbArc
 50
124.6595992715
 51
128.367750852
  0
ARC
  5
1E9
330
1F
100
AcDbEntity
  8
0
  6
Continuous
 62
     7
370
    25
100
AcDbCircle
 10
53.9632614182
 20
25.3484059207
 30
0.0
 40
0.5842000000000334
100
AcDbArc
 50
213.4255012518
 51
302.2846931767
  0
ARC
  5
1EA
330
1F
100
AcDbEntity
  8
0
  6
Continuous
 62
     7
370
    25
100
AcDbCircle
 10
69.85
 20
0.2032
 30
0.0
 40
29.15920000002377
100
AcDbArc
 50
118.7426569468
 51
122.2846931767
  0
ARC
  5
1EB
330
1F
100
AcDbEntity
  8
0
  6
Continuous
 62
     7
370
    25
100
AcDbCircle
 10
55.547100787
 20
26.2818678659
 30
0.0
 40
0.584200000000039
100
AcDbArc
 50
298.7426569468
 51
27.6018488717
  0
ARC
  5
1EC
330
1F
100
AcDbEntity
  8
0
  6
Continuous
 62
     7
370
    25
100
AcDbCircle
 10
69.85
 20
0.2032000001
 30
0.0
 40
33.86666666658889
100
AcDbArc
 50
112.6595992715
 51
116.367750852
  0
ARC
  5
1ED
330
1F
100
AcDbEntity
  8
0
  6
Continuous
 62
     7
370
    25
100
AcDbCircle
 10
59.5384070516
 20
28.1019615214
 30
0.0
 40
0.5842000000000379
100
AcDbArc
 50
201.4255012518
 51
290.2846931767
  0
ARC
  5
1EE
330
1F
100
AcDbEntity
  8
0
  6
Continuous
 62
     7
370
    25
100
AcDbCircle
 10
69.85
 20
0.2032
 30
0.0
 40
29.15919999997336
100
AcDbArc
 50
106.7426569468
 51
110.2846931767
  0
ARC
  5
1EF
330
1F
100
AcDbEntity
  8
0
  6
Continuous
 62
     7
370
    25
100
AcDbCircle
 10
61.2817133815
 20
28.6857263624
 30
0.0
 40
0.5842000000000339
100
AcDbArc
 50
286.7426569468
 51
15.6018488717
  0
ARC
  5
1F0
330
1F
100
AcDbEntity
  8
0
  6
Continuous
 62
     7
370
    25
100
AcDbCircle
 10
69.85
 20
0.2032
 30
0.0
 40
33.86666666668747
100
AcDbArc
 50
100.6595992715
 51
104.367750852
  0
ARC
  5
1F1
330
1F
100
AcDbEntity
  8
0
  6
Continuous
 62
     7
370
    25
100
AcDbCircle
 10
65.5642187774
 20
29.6362073705
 30
0.0
 40
0.5842000000000003
100
AcDbArc
 50
189.4255012518
 51
278.2846931767
  0
ARC
  5
1F2
330
1F
100
AcDbEntity
  8
0
  6
Continuous
 62
     7
370
    25
100
AcDbCircle
 10
69.85
 20
0.2032
 30
0.0
 40
29.15919999996168
100
AcDbArc
 50
94.7426569468
 51
98.2846931767
  0
ARC
  5
1F3
330
1F
100
AcDbEntity
  8
0
  6
Continuous
 62
     7
370
    25
100
AcDbCircle
 10
67.3908012165
 20
29.8447617825
 30
0.0
 40
0.5842000000000219
100
AcDbArc
 50
274.7426569468
 51
3.6018488717
  0
ARC
  5
1F4
330
1F
100
AcDbEntity
  8
0
  6
Continuous
 62
     7
370
    25
100
AcDbCircle
 10
69.85
 20
0.2032
 30
0.0
 40
33.86666666670401
100
AcDbArc
 50
88.6595992715
 51
92.367750852
  0
ARC
  5
1F5
330
1F
100
AcDbEntity
  8
0
  6
Continuous
 62
     7
370
    25
100
AcDbCircle
 10
71.7773397081
 20
29.8840895623
 30
0.0
 40
0.5842000000000367
100
AcDbArc
 50
177.4255012518
 51
266.2846931767
  0
ARC
  5
1F6
330
1F
100
AcDbEntity
  8
0
  6
Continuous
 62
     7
370
    25
100
AcDbCircle
 10
69.85
 20
0.2031999999
 30
0.0
 40
29.15920000005027
100
AcDbArc
 50
82.7426569468
 51
86.2846931767
  0
ARC
  5
1F7
330
1F
100
AcDbEntity
  8
0
  6
Continuous
 62
     7
370
    25
100
AcDbCircle
 10
73.6073678389
 20
29.7083187166
 30
0.0
 40
0.5842000000000518
100
AcDbArc
 50
262.7426569468
 51
351.6018488717
  0
ARC
  5
1F8
330
1F
100
AcDbEntity
  8
0
  6
Continuous
 62
     7
370
    25
100
AcDbCircle
 10
69.85
 20
0.2032000001
 30
0.0
 40
33.86666666659834
100
AcDbArc
 50
76.6595992715
 51
80.367750852
  0
ARC
  5
1F9
330
1F
100
AcDbEntity
  8
0
  6
Continuous
 62
     7
370
    25
100
AcDbCircle
 10
77.9062266452
 20
28.8347744555
 30
0.0
 40
0.584200000000046
100
AcDbArc
 50
165.4255012518
 51
254.2846931767
  0
ARC
  5
1FA
330
1F
100
AcDbEntity
  8
0
  6
Continuous
 62
     7
370
    25
100
AcDbCircle
 10
69.85
 20
0.2032000001
 30
0.0
 40
29.15919999993819
100
AcDbArc
 50
70.7426569468
 51
74.2846931767
  0
ARC
  5
1FB
330
1F
100
AcDbEntity
  8
0
  6
Continuous
 62
     7
370
    25
100
AcDbCircle
 10
79.6597194568
 20
28.2823603816
 30
0.0
 40
0.5842000000000512
100
AcDbArc
 50
250.7426569468
 51
339.6018488717
  0
ARC
  5
1FC
330
1F
100
AcDbEntity
  8
0
  6
Continuous
 62
     7
370
    25
100
AcDbCircle
 10
69.85
 20
0.2032
 30
0.0
 40
33.86666666667126
100
AcDbArc
 50
64.6595992715
 51
68.367750852
  0
ARC
  5
1FD
330
1F
100
AcDbEntity
  8
0
  6
Continuous
 62
     7
370
    25
100
AcDbCircle
 10
83.6830178198
 20
26.5341221555
 30
0.0
 40
0.5842000000000331
100
AcDbArc
 50
153.4255012518
 51
242.2846931767
  0
ARC
  5
1FE
330
1F
100
AcDbEntity
  8
0
  6
Continuous
 62
     7
370
    25
100
AcDbCircle
 10
69.85
 20
0.2032
 30
0.0
 40
29.15919999998177
100
AcDbArc
 50
58.7426569468
 51
62.2846931767
  0
ARC
  5
1FF
330
1F
100
AcDbEntity
  8
0
  6
Continuous
 62
     7
370
    25
100
AcDbCircle
 10
85.2833392623
 20
25.6292079992
 30
0.0
 40
0.5842000000000702
100
AcDbArc
 50
238.7426569468
 51
327.6018488717
  0
ARC
  5
200
330
1F
100
AcDbEntity
  8
0
  6
Continuous
 62
     7
370
    25
100
AcDbCircle
 10
69.85
 20
0.2032
 30
0.0
 40
33.86666666662835
100
AcDbArc
 50
52.6595992715
 51
56.367750852
  0
ARC
  5
201
330
1F
100
AcDbEntity
  8
0
  6
Continuous
 62
     7
370
    25
100
AcDbCircle
 10
88.8552397374
 20
23.0826822075
 30
0.0
 40
0.5842000000000391
100
AcDbArc
 50
141.4255012518
 51
230.2846931767
  0
ARC
  5
202
330
1F
100
AcDbEntity
  8
0
  6
Continuous
 62
     7
370
    25
100
AcDbCircle
 10
69.85
 20
0.2032
 30
0.0
 40
29.15920000003153
100
AcDbArc
 50
46.7426569468
 51
50.2846931767
  0
ARC
  5
203
330
1F
100
AcDbEntity
  8
0
  6
Continuous
 62
     7
370
    25
100
AcDbCircle
 10
90.2324480846
 20
21.8648170597
 30
0.0
 40
0.5842000000000409
100
AcDbArc
 50
226.7426569468
 51
315.6018488717
  0
ARC
  5
204
330
1F
100
AcDbEntity
  8
0
  6
Continuous
 62
     7
370
    25
100
AcDbCircle
 10
69.85
 20
0.2032
 30
0.0
 40
33.86666666663106
100
AcDbArc
 50
40.6595992715
 51
44.367750852
  0
ARC
  5
205
330
1F
100
AcDbEntity
  8
0
  6
Continuous
 62
     7
370
    25
100
AcDbCircle
 10
93.1968414813
 20
18.6312990991
 30
0.0
 40
0.5842000000000386
100
AcDbArc
 50
129.4255012518
 51
218.2846931767
  0
ARC
  5
206
330
1F
100
AcDbEntity
  8
0
  6
Continuous
 62
     7
370
    25
100
AcDbCircle
 10
69.85
 20
0.2032
 30
0.0
 40
29.1591999999581
100
AcDbArc
 50
34.7426569468
 51
38.2846931767
  0
ARC
  5
207
330
1F
100
AcDbEntity
  8
0
  6
Continuous
 62
     7
370
    25
100
AcDbCircle
 10
94.2907461197
 20
17.1537095107
 30
0.0
 40
0.5842000000000808
100
AcDbArc
 50
214.7426569468
 51
303.6018488717
  0
ARC
  5
208
330
1F
100
AcDbEntity
  8
0
  6
Continuous
 62
     7
370
    25
100
AcDbCircle
 10
69.85
 20
0.2032
 30
0.0
 40
33.86666666670046
100
AcDbArc
 50
28.6595992715
 51
32.367750852
  0
ARC
  5
209
330
1F
100
AcDbEntity
  8
0
  6
Continuous
 62
     7
370
    25
100
AcDbCircle
 10
96.5180742219
 20
13.3745196322
 30
0.0
 40
0.5842000000000267
100
AcDbArc
 50
117.4255012518
 51
206.2846931767
  0
ARC
  5
20A
330
1F
100
AcDbEntity
  8
0
  6
Continuous
 62
     7
370
    25
100
AcDbCircle
 10
69.85
 20
0.2032
 30
0.0
 40
29.15919999997896
100
AcDbArc
 50
22.7426569468
 51
26.2846931767
  0
ARC
  5
20B
330
1F
100
AcDbEntity
  8
0
  6
Continuous
 62
     7
370
    25
100
AcDbCircle
 10
97.2808662697
 20
11.7017833585
 30
0.0
 40
0.5842000000000533
100
AcDbArc
 50
202.7426569468
 51
291.6018488717
  0
ARC
  5
20C
330
1F
100
AcDbEntity
  8
0
  6
Continuous
 62
     7
370
    25
100
AcDbCircle
 10
69.8500000003
 20
0.2032000001
 30
0.0
 40
33.86666666633487
100
AcDbArc
 50
16.6595992715
 51
20.367750852
  0
ARC
  5
20D
330
1F
100
AcDbEntity
  8
0
  6
Continuous
 62
     7
370
    25
100
AcDbCircle
 10
98.6737841514
 20
7.5420902944
 30
0.0
 40
0.5842000000000334
100
AcDbArc
 50
105.4255012518
 51
194.2846931767
  0
ARC
  5
20E
330
1F
100
AcDbEntity
  8
0
  6
Continuous
 62
     7
370
    25
100
AcDbCircle
 10
69.8499999999
 20
0.2032
 30
0.0
 40
29.15920000005974
100
AcDbArc
 50
10.7426569468
 51
14.2846931767
  0
ARC
  5
20F
330
1F
100
AcDbEntity
  8
0
  6
Continuous
 62
     7
370
    25
100
AcDbCircle
 10
99.0721259359
 20
5.7473139372
 30
0.0
 40
0.5842000000000352
100
AcDbArc
 50
190.7426569468
 51
279.6018488717
  0
ARC
  5
210
330
1F
100
AcDbEntity
  8
0
  6
Continuous
 62
     7
370
    25
100
AcDbCircle
 10
69.8500000008
 20
0.2032000001
 30
0.0
 40
33.86666666581934
100
AcDbArc
 50
4.6595992715
 51
8.3677508521
  0
ARC
  5
211
330
1F
100
AcDbEntity
  8
0
  6
Continuous
 62
     7
370
    25
100
AcDbCircle
 10
99.5697564016
 20
1.3889162348
 30
0.0
 40
0.5842000000000168
100
AcDbArc
 50
93.4255012518
 51
182.2846931767
  0
ARC
  5
212
330
1F
100
AcDbEntity
  8
0
  6
Continuous
 62
     7
370
    25
100
AcDbCircle
 10
69.8500000001
 20
0.2032
 30
0.0
 40
29.15919999992897
100
AcDbArc
 50
358.7426569468
 51
2.2846931767
  0
ARC
  5
213
330
1F
100
AcDbEntity
  8
0
  6
Continuous
 62
     7
370
    25
100
AcDbCircle
 10
99.5862384753
 20
-0.4494598667
 30
0.0
 40
0.5842000000000573
100
AcDbArc
 50
178.7426569468
 51
267.6018488717
  0
ARC
  5
214
330
1F
100
AcDbEntity
  8
0
  6
Continuous
 62
     7
370
    25
100
AcDbCircle
 10
69.8499999999
 20
0.2032
 30
0.0
 40
33.86666666678789
100
AcDbArc
 50
352.6595992716
 51
356.367750852
  0
ARC
  5
215
330
1F
100
AcDbEntity
  8
0
  6
Continuous
 62
     7
370
    25
100
AcDbCircle
 10
99.1668326858
 20
-4.8160793139
 30
0.0
 40
0.5842000000000478
100
AcDbArc
 50
81.4255012518
 51
170.2846931767
  0
ARC
  5
216
330
1F
100
AcDbEntity
  8
0
  6
Continuous
 62
     7
370
    25
100
AcDbCircle
 10
69.8500000001
 20
0.2032
 30
0.0
 40
29.15919999991417
100
AcDbArc
 50
346.7426569468
 51
350.2846931767
  0
ARC
  5
217
330
1F
100
AcDbEntity
  8
0
  6
Continuous
 62
     7
370
    25
100
AcDbCircle
 10
98.800734703
 20
-6.6177093027
 30
0.0
 40
0.5842000000000177
100
AcDbArc
 50
166.7426569468
 51
255.6018488717
  0
MTEXT
  5
219
330
1F
100
AcDbEntity
  8
0
  6
Continuous
 62
     7
100
AcDbMText
 10
36.0513637296
 20
-34.6830330584
 30
0.0
 40
4.83362
 41
0.0
 71
     1
 72
     1
  1
SOLIDWORKS Educational Product.
  7
SLDTEXTSTYLE0
 73
     1
 44
1.0
  0
MTEXT
  5
21A
330
1F
100
AcDbEntity
  8
0
  6
Continuous
 62
     7
100
AcDbMText
 10
36.0513637296
 20
-41.9334630584
 30
0.0
 40
4.83362
 41
0.0
 71
     1
 72
     1
  1
For Instructional Use Only.
  7
SLDTEXTSTYLE0
 73
     1
 44
1.0
  0
ENDSEC
  0
SECTION
  2
OBJECTS
  0
DICTIONARY
  5
C
330
0
100
AcDbDictionary
281
     1
  3
ACAD_GROUP
350
D
  3
ACAD_LAYOUT
350
1A
  3
ACAD_MLINESTYLE
350
17
  3
ACAD_PLOTSETTINGS
350
19
  3
ACAD_PLOTSTYLENAME
350
E
  3
ACAD_SCALELIST
350
47
  0
DICTIONARY
  5
D
102
{ACAD_REACTORS
330
C
102
}
330
C
100
AcDbDictionary
281
     1
  0
DICTIONARY
  5
1A
102
{ACAD_REACTORS
330
C
102
}
330
C
100
AcDbDictionary
281
     1
  3
Layout1
350
1E
  3
Layout2
350
26
  3
Model
350
22
  0
DICTIONARY
  5
17
102
{ACAD_REACTORS
330
C
102
}
330
C
100
AcDbDictionary
281
     1
  3
Standard
350
18
  0
DICTIONARY
  5
19
102
{ACAD_REACTORS
330
C
102
}
330
C
100
AcDbDictionary
281
     1
  0
ACDBDICTIONARYWDFLT
  5
E
102
{ACAD_REACTORS
330
C
102
}
330
C
100
AcDbDictionary
281
     1
  3
Normal
350
F
100
AcDbDictionaryWithDefault
340
F
  0
DICTIONARY
  5
47
102
{ACAD_REACTORS
330
C
102
}
330
C
100
AcDbDictionary
281
     1
  3
A0
350
48
  3
A1
350
49
  3
A2
350
4A
  3
A3
350
4B
  3
A4
350
4C
  3
A5
350
4D
  3
A6
350
4E
  3
A7
350
4F
  3
A8
350
50
  3
A9
350
51
  3
B0
350
52
  3
B1
350
53
  3
B2
350
54
  3
B3
350
55
  3
B4
350
56
  3
B5
350
57
  3
B6
350
58
  3
B7
350
59
  3
B8
350
5A
  3
B9
350
5B
  3
C0
350
5C
  3
C1
350
5D
  3
C2
350
5E
  3
C3
350
5F
  3
C4
350
60
  3
C5
350
61
  3
C6
350
62
  3
C7
350
63
  3
C8
350
64
  3
C9
350
65
  3
D0
350
66
  3
D1
350
67
  3
D2
350
68
  0
LAYOUT
  5
1E
102
{ACAD_REACTORS
330
1A
102
}
330
1A
100
AcDbPlotSettings
  1

  2
none_device
  4

  6

 40
0.0
 41
0.0
 42
0.0
 43
0.0
 44
0.0
 45
0.0
 46
0.0
 47
0.0
 48
0.0
 49
0.0
140
0.0
141
0.0
142
1.0
143
1.0
 70
   688
 72
     1
 73
     0
 74
     5
  7

 75
    16
147
1.0
148
0.0
149
0.0
100
AcDbLayout
  1
Layout1
 70
     1
 71
     1
 10
0.0
 20
0.0
 11
420.0
 21
297.0
 12
0.0
 22
0.0
 32
0.0
 14
1.0000000000E+20
 24
1.0000000000E+20
 34
1.0000000000E+20
 15
-1.0000000000E+20
 25
-1.0000000000E+20
 35
-1.0000000000E+20
146
0.0
 13
0.0
 23
0.0
 33
0.0
 16
1.0
 26
0.0
 36
0.0
 17
0.0
 27
1.0
 37
0.0
 76
     0
330
1B
  0
LAYOUT
  5
26
102
{ACAD_REACTORS
330
1A
102
}
330
1A
100
AcDbPlotSettings
  1

  2
none_device
  4

  6

 40
0.0
 41
0.0
 42
0.0
 43
0.0
 44
0.0
 45
0.0
 46
0.0
 47
0.0
 48
0.0
 49
0.0
140
0.0
141
0.0
142
1.0
143
1.0
 70
   688
 72
     1
 73
     0
 74
     5
  7

 75
    16
147
1.0
148
0.0
149
0.0
100
AcDbLayout
  1
Layout2
 70
     1
 71
     2
 10
0.0
 20
0.0
 11
0.0
 21
0.0
 12
0.0
 22
0.0
 32
0.0
 14
0.0
 24
0.0
 34
0.0
 15
0.0
 25
0.0
 35
0.0
146
0.0
 13
0.0
 23
0.0
 33
0.0
 16
1.0
 26
0.0
 36
0.0
 17
0.0
 27
1.0
 37
0.0
 76
     0
330
23
  0
LAYOUT
  5
22
102
{ACAD_REACTORS
330
1A
102
}
330
1A
100
AcDbPlotSettings
  1

  2
none_device
  4
ANSI_A_(11.00_x_8.50_Inches)
  6

 40
6.35
 41
19.05
 42
6.35000508
 43
19.05000254
 44
279.4
 45
215.9
 46
-87.07040879
 47
88.25877573
 48
0.0
 49
0.0
140
0.0
141
0.0
142
0.1242372047
143
1.0
 70
  1696
 72
     0
 73
     0
 74
     0
  7

 75
     0
147
0.0179189148
148
-1300.4909072572
149
0.0
100
AcDbLayout
  1
Model
 70
     1
 71
     0
 10
0.0
 20
0.0
 11
420.0
 21
297.0
 12
0.0
 22
0.0
 32
0.0
 14
36.0513637296
 24
-33.6634666667
 34
0.0
 15
103.6486362704
 25
34.0698666667
 35
0.0
146
0.0
 13
0.0
 23
0.0
 33
0.0
 16
1.0
 26
0.0
 36
0.0
 17
0.0
 27
1.0
 37
0.0
 76
     0
330
1F
331
29
  0
MLINESTYLE
  5
18
102
{ACAD_REACTORS
330
17
102
}
330
17
100
AcDbMlineStyle
  2
Standard
 70
     0
  3

 62
   256
 51
90.0
 52
90.0
 71
     2
 49
0.5
 62
   256
  6
BYLAYER
 49
-0.5
 62
   256
  6
BYLAYER
  0
ACDBPLACEHOLDER
  5
F
102
{ACAD_REACTORS
330
E
102
}
330
E
  0
SCALE
  5
48
102
{ACAD_REACTORS
330
47
102
}
330
47
100
AcDbScale
 70
     0
300
1:1
140
1.0
141
1.0
290
     1
  0
SCALE
  5
49
102
{ACAD_REACTORS
330
47
102
}
330
47
100
AcDbScale
 70
     0
300
1:2
140
1.0
141
2.0
290
     0
  0
SCALE
  5
4A
102
{ACAD_REACTORS
330
47
102
}
330
47
100
AcDbScale
 70
     0
300
1:4
140
1.0
141
4.0
290
     0
  0
SCALE
  5
4B
102
{ACAD_REACTORS
330
47
102
}
330
47
100
AcDbScale
 70
     0
300
1:5
140
1.0
141
5.0
290
     0
  0
SCALE
  5
4C
102
{ACAD_REACTORS
330
47
102
}
330
47
100
AcDbScale
 70
     0
300
1:8
140
1.0
141
8.0
290
     0
  0
SCALE
  5
4D
102
{ACAD_REACTORS
330
47
102
}
330
47
100
AcDbScale
 70
     0
300
1:10
140
1.0
141
10.0
290
     0
  0
SCALE
  5
4E
102
{ACAD_REACTORS
330
47
102
}
330
47
100
AcDbScale
 70
     0
300
1:16
140
1.0
141
16.0
290
     0
  0
SCALE
  5
4F
102
{ACAD_REACTORS
330
47
102
}
330
47
100
AcDbScale
 70
     0
300
1:20
140
1.0
141
20.0
290
     0
  0
SCALE
  5
50
102
{ACAD_REACTORS
330
47
102
}
330
47
100
AcDbScale
 70
     0
300
1:30
140
1.0
141
30.0
290
     0
  0
SCALE
  5
51
102
{ACAD_REACTORS
330
47
102
}
330
47
100
AcDbScale
 70
     0
300
1:40
140
1.0
141
40.0
290
     0
  0
SCALE
  5
52
102
{ACAD_REACTORS
330
47
102
}
330
47
100
AcDbScale
 70
     0
300
1:50
140
1.0
141
50.0
290
     0
  0
SCALE
  5
53
102
{ACAD_REACTORS
330
47
102
}
330
47
100
AcDbScale
 70
     0
300
1:100
140
1.0
141
100.0
290
     0
  0
SCALE
  5
54
102
{ACAD_REACTORS
330
47
102
}
330
47
100
AcDbScale
 70
     0
300
2:1
140
2.0
141
1.0
290
     0
  0
SCALE
  5
55
102
{ACAD_REACTORS
330
47
102
}
330
47
100
AcDbScale
 70
     0
300
4:1
140
4.0
141
1.0
290
     0
  0
SCALE
  5
56
102
{ACAD_REACTORS
330
47
102
}
330
47
100
AcDbScale
 70
     0
300
8:1
140
8.0
141
1.0
290
     0
  0
SCALE
  5
57
102
{ACAD_REACTORS
330
47
102
}
330
47
100
AcDbScale
 70
     0
300
10:1
140
10.0
141
1.0
290
     0
  0
SCALE
  5
58
102
{ACAD_REACTORS
330
47
102
}
330
47
100
AcDbScale
 70
     0
300
100:1
140
100.0
141
1.0
290
     0
  0
SCALE
  5
59
102
{ACAD_REACTORS
330
47
102
}
330
47
100
AcDbScale
 70
     0
300
1/128" = 1'-0"
140
0.0078125
141
12.0
290
     0
  0
SCALE
  5
5A
102
{ACAD_REACTORS
330
47
102
}
330
47
100
AcDbScale
 70
     0
300
1/64" = 1'-0"
140
0.015625
141
12.0
290
     0
  0
SCALE
  5
5B
102
{ACAD_REACTORS
330
47
102
}
330
47
100
AcDbScale
 70
     0
300
1/32" = 1'-0"
140
0.03125
141
12.0
290
     0
  0
SCALE
  5
5C
102
{ACAD_REACTORS
330
47
102
}
330
47
100
AcDbScale
 70
     0
300
1/16" = 1'-0"
140
0.0625
141
12.0
290
     0
  0
SCALE
  5
5D
102
{ACAD_REACTORS
330
47
102
}
330
47
100
AcDbScale
 70
     0
300
3/32" = 1'-0"
140
0.09375
141
12.0
290
     0
  0
SCALE
  5
5E
102
{ACAD_REACTORS
330
47
102
}
330
47
100
AcDbScale
 70
     0
300
1/8" = 1'-0"
140
0.125
141
12.0
290
     0
  0
SCALE
  5
5F
102
{ACAD_REACTORS
330
47
102
}
330
47
100
AcDbScale
 70
     0
300
3/16" = 1'-0"
140
0.1875
141
12.0
290
     0
  0
SCALE
  5
60
102
{ACAD_REACTORS
330
47
102
}
330
47
100
AcDbScale
 70
     0
300
1/4" = 1'-0"
140
0.25
141
12.0
290
     0
  0
SCALE
  5
61
102
{ACAD_REACTORS
330
47
102
}
330
47
100
AcDbScale
 70
     0
300
3/8" = 1'-0"
140
0.375
141
12.0
290
     0
  0
SCALE
  5
62
102
{ACAD_REACTORS
330
47
102
}
330
47
100
AcDbScale
 70
     0
300
1/2" = 1'-0"
140
0.5
141
12.0
290
     0
  0
SCALE
  5
63
102
{ACAD_REACTORS
330
47
102
}
330
47
100
AcDbScale
 70
     0
300
3/4" = 1'-0"
140
0.75
141
12.0
290
     0
  0
SCALE
  5
64
102
{ACAD_REACTORS
330
47
102
}
330
47
100
AcDbScale
 70
     0
300
1" = 1'-0"
140
1.0
141
12.0
290
     0
  0
SCALE
  5
65
102
{ACAD_REACTORS
330
47
102
}
330
47
100
AcDbScale
 70
     0
300
1-1/2" = 1'-0"
140
1.5
141
12.0
290
     0
  0
SCALE
  5
66
102
{ACAD_REACTORS
330
47
102
}
330
47
100
AcDbScale
 70
     0
300
3" = 1'-0"
140
3.0
141
12.0
290
     0
  0
SCALE
  5
67
102
{ACAD_REACTORS
330
47
102
}
330
47
100
AcDbScale
 70
     0
300
6" = 1'-0"
140
6.0
141
12.0
290
     0
  0
SCALE
  5
68
102
{ACAD_REACTORS
330
47
102
}
330
47
100
AcDbScale
 70
     0
300
1'-0" = 1'-0"
140
12.0
141
12.0
290
     0
  0
ENDSEC
  0
EOF
