                                                                        S      1
,,36H0ebdaaeb-bcab-4009-abc4-b0f85c1e8de0,36H0ebdaaeb-bcab-4009-abc4-b0fG      1
85c1e8de0,7Hunknown,7Hunknown,32,38,7,99,15,,1.,2,2HMM,1,0.08,15H2018042G      2
9.051308,0.01,10000.,7Hunknown,7Hunknown,11,0,;                         G      3
     186       1                                                00000000D      1
     186            -107       1       0                               0D      2
     514       2                                                00010000D      3
     514                       1       1                               0D      4
     510       3                                                00010000D      5
     510            -107       1       1                               0D      6
     510       4                                                00010000D      7
     510            -107       1       1                               0D      8
     510       5                                                00010000D      9
     510            -107       1       1                               0D     10
     510       6                                                00010000D     11
     510            -107       1       1                               0D     12
     510       7                                                00010000D     13
     510            -107       1       1                               0D     14
     510       8                                                00010000D     15
     510            -107       1       1                               0D     16
     510       9                                                00010000D     17
     510            -107       1       1                               0D     18
     510      10                                                00010000D     19
     510            -107       1       1                               0D     20
     510      11                                                00010000D     21
     510            -107       1       1                               0D     22
     508      12                                                00010000D     23
     508                       1       1                               0D     24
     508      13                                                00010000D     25
     508                       1       1                               0D     26
     508      14                                                00010000D     27
     508                       1       1                               0D     28
     508      15                                                00010000D     29
     508                       1       1                               0D     30
     508      16                                                00010000D     31
     508                       1       1                               0D     32
     508      17                                                00010000D     33
     508                       1       1                               0D     34
     508      18                                                00010000D     35
     508                       1       1                               0D     36
     508      19                                                00010000D     37
     508                       2       1                               0D     38
     508      21                                                00010000D     39
     508                       2       1                               0D     40
     126      23                                                00010000D     41
     126       0               3       0                               0D     42
     126      26                                                00010000D     43
     126       0               3       0                               0D     44
     126      29                                                00010000D     45
     126       0               3       0                               0D     46
     126      32                                                00010000D     47
     126       0               3       0                               0D     48
     126      35                                                00010000D     49
     126       0               4       0                               0D     50
     126      39                                                00010000D     51
     126       0               4       0                               0D     52
     126      43                                                00010000D     53
     126       0               4       0                               0D     54
     126      47                                                00010000D     55
     126       0               4       0                               0D     56
     126      51                                                00010000D     57
     126       0               4       0                               0D     58
     126      55                                                00010000D     59
     126       0               3       0                               0D     60
     126      58                                                00010000D     61
     126       0               3       0                               0D     62
     126      61                                                00010000D     63
     126       0               3       0                               0D     64
     126      64                                                00010000D     65
     126       0               3       0                               0D     66
     126      67                                                00010000D     67
     126       0               3       0                               0D     68
     126      70                                                00010000D     69
     126       0               3       0                               0D     70
     126      73                                                00010000D     71
     126       0               3       0                               0D     72
     126      76                                                00010000D     73
     126       0               3       0                               0D     74
     126      79                                                00010000D     75
     126       0               3       0                               0D     76
     126      82                                                00010000D     77
     126       0               3       0                               0D     78
     126      85                                                00010000D     79
     126       0               3       0                               0D     80
     126      88                                                00010000D     81
     126       0               3       0                               0D     82
     128      91                                                00010000D     83
     128       0    -107       8       0                               0D     84
     128      99                                                00010000D     85
     128       0    -107       9       0                               0D     86
     128     108                                                00010000D     87
     128       0    -107       9       0                               0D     88
     128     117                                                00010000D     89
     128       0    -107       8       0                               0D     90
     128     125                                                00010000D     91
     128       0    -107       6       0                               0D     92
     128     131                                                00010000D     93
     128       0    -107       8       0                               0D     94
     128     139                                                00010000D     95
     128       0    -107       7       0                               0D     96
     128     146                                                00010000D     97
     128       0    -107       9       0                               0D     98
     128     155                                                00010000D     99
     128       0    -107       9       0                               0D    100
     502     164                                                00010000D    101
     502                      12       1                               0D    102
     504     176                                                00010001D    103
     504                       6       1                               0D    104
     406     182                                                00000000D    105
     406                       1      15                               0D    106
     314     183                                                00000200D    107
     314                       2       0                               0D    108
186,3,1,0,0,1,105;                                                     1P      1
514,9,5,1,7,1,9,1,11,1,13,1,15,1,17,1,19,1,21,1;                       3P      2
510,83,1,1,23;                                                         5P      3
510,85,1,1,25;                                                         7P      4
510,87,1,1,27;                                                         9P      5
510,89,1,1,29;                                                        11P      6
510,91,1,1,31;                                                        13P      7
510,93,1,1,33;                                                        15P      8
510,95,1,1,35;                                                        17P      9
510,97,1,1,37;                                                        19P     10
510,99,1,1,39;                                                        21P     11
508,4,0,103,1,1,0,0,103,2,1,0,0,103,3,0,0,0,103,4,0,0;                23P     12
508,4,0,103,5,1,0,0,103,4,1,0,0,103,6,0,0,0,103,7,0,0;                25P     13
508,4,0,103,8,1,0,0,103,7,1,0,0,103,9,0,0,0,103,10,0,0;               27P     14
508,4,0,103,11,1,0,0,103,10,1,0,0,103,12,0,0,0,103,13,0,0;            29P     15
508,4,0,103,14,1,0,0,103,13,1,0,0,103,15,0,0,0,103,16,0,0;            31P     16
508,4,0,103,17,1,0,0,103,16,1,0,0,103,18,0,0,0,103,19,0,0;            33P     17
508,4,0,103,20,1,0,0,103,19,1,0,0,103,21,0,0,0,103,2,0,0;             35P     18
508,7,0,103,21,1,0,0,103,18,1,0,0,103,15,1,0,0,103,12,1,0,0,103,      37P     19
9,1,0,0,103,6,1,0,0,103,3,1,0;                                        37P     20
508,7,0,103,20,0,0,0,103,1,0,0,0,103,5,0,0,0,103,8,0,0,0,103,11,      39P     21
0,0,0,103,14,0,0,0,103,17,0,0;                                        39P     22
126,1,1,0,0,1,0,0.,0.,1.36025612106915,1.36025612106915,1.,1.,        41P     23
-26.3025612106915,68.6672075421628,-3.69086253011628,-12.7,           41P     24
68.6672075421628,-3.69086253011626,0.,1.36025612106915,0.,0.,0.;      41P     25
126,1,1,0,0,1,0,0.,0.,0.6,0.6,1.,1.,-12.7,68.6672075421628,           43P     26
-3.69086253011626,-12.7,73.5496083694032,-7.17829169243083,0.,        43P     27
0.6,0.,0.,0.;                                                         43P     28
126,1,1,0,0,1,0,0.,0.,1.36025612106915,1.36025612106915,1.,1.,        45P     29
-26.3025612106915,73.5496083694032,-7.17829169243086,-12.7,           45P     30
73.5496083694032,-7.17829169243084,0.,1.36025612106915,0.,0.,0.;      45P     31
126,1,1,0,0,1,0,0.,0.,0.6,0.6,1.,1.,-26.3025612106915,                47P     32
68.6672075421628,-3.69086253011628,-26.3025612106915,                 47P     33
73.5496083694032,-7.17829169243086,0.,0.6,0.,0.,0.;                   47P     34
126,1,1,0,0,1,0,0.,0.,11.2371191709629,11.2371191709629,1.,1.,        49P     35
2.66453525910038D-14,5.16720754216273,-92.5908625301162,              49P     36
-26.3025612106915,68.6672075421628,-3.69086253011627,0.,              49P     37
11.2371191709629,0.,0.,0.;                                            49P     38
126,1,1,0,0,1,0,0.,0.,11.2371191709629,11.2371191709629,1.,1.,        51P     39
2.66453525910038D-14,10.0496083694031,-96.0782916924308,              51P     40
-26.3025612106915,73.5496083694032,-7.17829169243085,0.,              51P     41
11.2371191709629,0.,0.,0.;                                            51P     42
126,1,1,0,0,1,0,0.,0.,0.600000000000001,0.600000000000001,1.,1.,      53P     43
2.66453525910038D-14,5.16720754216273,-92.5908625301162,              53P     44
2.66453525910038D-14,10.0496083694031,-96.0782916924308,0.,           53P     45
0.600000000000001,0.,0.,0.;                                           53P     46
126,1,1,0,0,1,0,0.,0.,11.2371191709629,11.2371191709629,1.,1.,        55P     47
26.3025612106916,68.6672075421628,-3.69086253011625,                  55P     48
2.66453525910038D-14,5.16720754216274,-92.5908625301162,0.,           55P     49
11.2371191709629,0.,0.,0.;                                            55P     50
126,1,1,0,0,1,0,0.,0.,11.2371191709629,11.2371191709629,1.,1.,        57P     51
26.3025612106916,73.5496083694032,-7.17829169243083,                  57P     52
2.66453525910038D-14,10.0496083694031,-96.0782916924308,0.,           57P     53
11.2371191709629,0.,0.,0.;                                            57P     54
126,1,1,0,0,1,0,0.,0.,0.6,0.6,1.,1.,26.3025612106916,                 59P     55
68.6672075421628,-3.69086253011625,26.3025612106916,                  59P     56
73.5496083694032,-7.17829169243083,0.,0.6,0.,0.,0.;                   59P     57
126,1,1,0,0,1,0,0.,0.,1.36025612106916,1.36025612106916,1.,1.,        61P     58
12.7,68.6672075421627,-3.69086253011631,26.3025612106916,             61P     59
68.6672075421628,-3.69086253011625,0.,1.36025612106916,0.,0.,0.;      61P     60
126,1,1,0,0,1,0,0.,0.,1.36025612106916,1.36025612106916,1.,1.,        63P     61
12.7,73.5496083694031,-7.17829169243089,26.3025612106916,             63P     62
73.5496083694032,-7.17829169243083,0.,1.36025612106916,0.,0.,0.;      63P     63
126,1,1,0,0,1,0,0.,0.,0.6,0.6,1.,1.,12.7,68.6672075421627,            65P     64
-3.69086253011631,12.7,73.5496083694031,-7.17829169243089,0.,         65P     65
0.6,0.,0.,0.;                                                         65P     66
126,1,1,0,0,1,0,0.,0.,1.27,1.27,1.,1.,12.7,76.0489326023952,          67P     67
6.64355255420923,12.7,68.6672075421627,-3.69086253011632,0.,          67P     68
1.27,0.,0.,0.;                                                        67P     69
126,1,1,0,0,1,0,0.,0.,1.27,1.27,1.,1.,12.7,80.9313334296357,          69P     70
3.15612339189465,12.7,73.5496083694031,-7.1782916924309,0.,1.27,      69P     71
0.,0.,0.;                                                             69P     72
126,1,1,0,0,1,0,0.,0.,0.599999999999999,0.599999999999999,1.,1.,      71P     73
12.7,76.0489326023952,6.64355255420923,12.7,80.9313334296357,         71P     74
3.15612339189466,0.,0.599999999999999,0.,0.,0.;                       71P     75
126,1,1,0,0,1,0,0.,0.,2.54,2.54,1.,1.,-12.7,76.0489326023953,         73P     76
6.64355255420928,12.7,76.0489326023952,6.64355255420923,0.,2.54,      73P     77
0.,0.,0.;                                                             73P     78
126,1,1,0,0,1,0,0.,0.,2.54,2.54,1.,1.,-12.7,80.9313334296357,         75P     79
3.1561233918947,12.7,80.9313334296357,3.15612339189466,0.,2.54,       75P     80
0.,0.,0.;                                                             75P     81
126,1,1,0,0,1,0,0.,0.,0.6,0.6,1.,1.,-12.7,76.0489326023953,           77P     82
6.64355255420928,-12.7,80.9313334296357,3.1561233918947,0.,0.6,       77P     83
0.,0.,0.;                                                             77P     84
126,1,1,0,0,1,0,0.,0.,1.27,1.27,1.,1.,-12.7,68.6672075421628,         79P     85
-3.69086253011626,-12.7,76.0489326023953,6.64355255420928,0.,         79P     86
1.27,0.,0.,0.;                                                        79P     87
126,1,1,0,0,1,0,0.,0.,1.27,1.27,1.,1.,-12.7,73.5496083694032,         81P     88
-7.17829169243083,-12.7,80.9313334296357,3.1561233918947,0.,          81P     89
1.27,0.,0.,0.;                                                        81P     90
128,1,1,1,1,0,0,1,0,0,-0.00100000000000044,-0.00100000000000044,      83P     91
1.36125612106915,1.36125612106915,-0.00100000000000089,               83P     92
-0.00100000000000089,0.601000000000001,0.601000000000001,1.,1.,       83P     93
1.,1.,-26.3125612106915,68.6590702074507,-3.68505014817908,           83P     94
-12.69,68.6590702074507,-3.68505014817906,-26.3125612106915,          83P     95
73.5577457041152,-7.18410407436805,-12.69,73.5577457041152,           83P     96
-7.18410407436803,-0.00100000000000044,1.36125612106915,              83P     97
-0.00100000000000089,0.601000000000001;                               83P     98
128,1,1,1,1,0,0,1,0,0,-0.00100000000000089,-0.00100000000000089,      85P     99
11.2381191709629,11.2381191709629,-0.00100000000000044,               85P    100
-0.00100000000000044,0.601000000000001,0.601000000000001,1.,1.,       85P    101
1.,1.,0.00234068543821988,5.15341929292053,-92.5929614285212,         85P    102
-26.3049018961297,68.6647211219808,-3.6771388678369,                  85P    103
0.00234068543822072,10.0520947895851,-96.0920153547102,               85P    104
-26.3049018961297,73.5633966186454,-7.17619279402587,                 85P    105
-0.00100000000000089,11.2381191709629,-0.00100000000000044,           85P    106
0.601000000000001;                                                    85P    107
128,1,1,1,1,0,0,1,0,0,-0.00100000000000089,-0.00100000000000089,      87P    108
11.2381191709629,11.2381191709629,-0.00100000000000012,               87P    109
-0.00100000000000012,0.601000000000002,0.601000000000002,1.,1.,       87P    110
1.,1.,26.3049018961298,68.6647211219808,-3.67713886783687,            87P    111
-0.0023406854381669,5.15341929292053,-92.5929614285212,               87P    112
26.3049018961298,73.5633966186454,-7.17619279402585,                  87P    113
-0.0023406854381669,10.0520947895851,-96.0920153547102,               87P    114
-0.00100000000000089,11.2381191709629,-0.00100000000000012,           87P    115
0.601000000000002;                                                    87P    116
128,1,1,1,1,0,0,1,0,0,-0.001,-0.001,1.36125612106916,                 89P    117
1.36125612106916,-0.00100000000000031,-0.00100000000000031,           89P    118
0.601000000000001,0.601000000000001,1.,1.,1.,1.,12.69,                89P    119
68.6590702074506,-3.68505014817912,26.3125612106916,                  89P    120
68.6590702074507,-3.68505014817906,12.69,73.5577457041152,            89P    121
-7.18410407436808,26.3125612106916,73.5577457041152,                  89P    122
-7.18410407436802,-0.001,1.36125612106916,-0.00100000000000031,       89P    123
0.601000000000001;                                                    89P    124
128,1,1,1,1,0,0,1,0,0,-0.001,-0.001,1.271,1.271,                      91P    125
-0.00100000000000089,-0.00100000000000089,0.601,0.601,1.,1.,1.,       91P    126
1.,12.7,76.0466076496204,6.65750227085849,12.7,68.6532578255134,      91P    127
-3.6931874828912,12.7,80.9452831462849,3.15844834466953,12.7,         91P    128
73.551933322178,-7.19224140908016,-0.001,1.271,                       91P    129
-0.00100000000000089,0.601;                                           91P    130
128,1,1,1,1,0,0,1,0,0,-0.001,-0.001,2.54100000000001,                 93P    131
2.54100000000001,-0.00100000000000036,-0.00100000000000036,           93P    132
0.601000000000001,0.601000000000001,1.,1.,1.,1.,-12.71,               93P    133
76.0407952676832,6.64936493614647,12.7100000000001,                   93P    134
76.0407952676832,6.64936493614643,-12.71,80.9394707643478,            93P    135
3.1503110099575,12.7100000000001,80.9394707643477,                    93P    136
3.15031100995746,-0.001,2.54100000000001,-0.00100000000000036,        93P    137
0.601000000000001;                                                    93P    138
128,1,1,1,1,0,0,1,0,0,-0.00100000000000089,-0.00100000000000089,      95P    139
1.271,1.271,-0.00100000000000022,-0.00100000000000022,                95P    140
0.601000000000001,0.601000000000001,1.,1.,1.,1.,-12.7,                95P    141
68.6532578255135,-3.69318748289114,-12.7,76.0466076496204,            95P    142
6.65750227085854,-12.7,73.5519333221781,-7.1922414090801,-12.7,       95P    143
80.9452831462849,3.15844834466958,-0.00100000000000089,1.271,         95P    144
-0.00100000000000022,0.601000000000001;                               95P    145
128,1,1,1,1,0,0,1,0,0,-2.63125612106915,-2.63125612106915,            97P    146
2.63125612106915,2.63125612106915,-6.09847654457207,                  97P    147
-6.09847654457207,6.09847654457207,6.09847654457207,1.,1.,1.,1.,      97P    148
26.3125612106916,10.043795987466,-96.0864290271429,                   97P    149
-26.3125612106915,10.043795987466,-96.0864290271429,                  97P    150
26.3125612106916,80.9371458115729,3.16426072660676,                   97P    151
-26.3125612106915,80.9371458115729,3.16426072660676,                  97P    152
-2.63125612106915,2.63125612106915,-6.09847654457207,                 97P    153
6.09847654457207;                                                     97P    154
128,1,1,1,1,0,0,1,0,0,-2.63125612106915,-2.63125612106915,            99P    155
2.63125612106915,2.63125612106915,-6.09847654457207,                  99P    156
-6.09847654457207,6.09847654457207,6.09847654457207,1.,1.,1.,1.,      99P    157
-26.3125612106915,5.16139516022561,-92.5989998648284,                 99P    158
26.3125612106916,5.16139516022561,-92.5989998648284,                  99P    159
-26.3125612106915,76.0547449843325,6.65168988892136,                  99P    160
26.3125612106916,76.0547449843325,6.65168988892136,                   99P    161
-2.63125612106915,2.63125612106915,-6.09847654457207,                 99P    162
6.09847654457207;                                                     99P    163
502,14,-26.3025612106915,68.6672075421628,-3.69086253011628,         101P    164
-12.7,68.6672075421628,-3.69086253011626,-12.7,73.5496083694032,     101P    165
-7.17829169243083,-26.3025612106915,73.5496083694032,                101P    166
-7.17829169243086,2.66453525910038D-14,5.16720754216273,             101P    167
-92.5908625301162,2.66453525910038D-14,10.0496083694031,             101P    168
-96.0782916924308,26.3025612106916,68.6672075421628,                 101P    169
-3.69086253011625,26.3025612106916,73.5496083694032,                 101P    170
-7.17829169243083,12.7,68.6672075421627,-3.69086253011631,12.7,      101P    171
73.5496083694031,-7.17829169243089,12.7,76.0489326023952,            101P    172
6.64355255420923,12.7,80.9313334296357,3.15612339189465,-12.7,       101P    173
76.0489326023953,6.64355255420928,-12.7,80.9313334296357,            101P    174
3.1561233918947;                                                     101P    175
504,21,41,101,1,101,2,43,101,2,101,3,45,101,4,101,3,47,101,1,        103P    176
101,4,49,101,5,101,1,51,101,6,101,4,53,101,5,101,6,55,101,7,101,     103P    177
5,57,101,8,101,6,59,101,7,101,8,61,101,9,101,7,63,101,10,101,8,      103P    178
65,101,9,101,10,67,101,11,101,9,69,101,12,101,10,71,101,11,101,      103P    179
12,73,101,13,101,11,75,101,14,101,12,77,101,13,101,14,79,101,2,      103P    180
101,13,81,101,3,101,14;                                              103P    181
406,1,5HBody1;                                                       105P    182
314,62.7450980392157,62.7450980392157,62.7450980392157,13HSteel      107P    183
- Satin;                                                             107P    184
S      1G      3D    108P    184                                        T      1
